<mxfile host="drawio-plugin" modified="2024-01-23T13:46:27.658Z" agent="5.0 (Windows NT 10.0; Win64; x64) AppleWebKit/537.36 (KHTML, like Gecko) Chrome/111.0.0.0 Safari/537.36" etag="f2h2RnhlDg_bfoGJv375" version="20.5.3" type="embed" pages="4"><diagram name="How work translate" id="KgssnA-R2R2AKBzYMVyp"><mxGraphModel dx="636" dy="736" grid="1" gridSize="10" guides="1" tooltips="1" connect="1" arrows="1" fold="1" page="1" pageScale="1" pageWidth="827" pageHeight="1169" math="0" shadow="0"><root><mxCell id="0"/><mxCell id="1" parent="0"/><mxCell id="evsE_IiLdL26Czsj5JSg-2" value="" style="rounded=1;arcSize=10;dashed=0;fillColor=none;gradientColor=none;strokeWidth=2;" parent="1" vertex="1"><mxGeometry x="70" y="730" width="1320" height="590" as="geometry"/></mxCell><mxCell id="evsE_IiLdL26Czsj5JSg-3" value="" style="dashed=0;html=1;shape=mxgraph.aws3.instance;fillColor=#F58536;gradientColor=none;dashed=0;" parent="1" vertex="1"><mxGeometry x="90" y="710" width="40" height="41" as="geometry"/></mxCell><mxCell id="evsE_IiLdL26Czsj5JSg-4" value="" style="outlineConnect=0;dashed=0;verticalLabelPosition=bottom;verticalAlign=top;align=center;html=1;shape=mxgraph.aws3.dynamo_db;fillColor=#2E73B8;gradientColor=none;" parent="1" vertex="1"><mxGeometry x="550" y="999" width="72" height="81" as="geometry"/></mxCell><mxCell id="evsE_IiLdL26Czsj5JSg-16" style="edgeStyle=orthogonalEdgeStyle;rounded=0;orthogonalLoop=1;jettySize=auto;html=1;strokeWidth=5;" parent="1" source="evsE_IiLdL26Czsj5JSg-6" target="evsE_IiLdL26Czsj5JSg-17" edge="1"><mxGeometry relative="1" as="geometry"><Array as="points"><mxPoint x="874" y="970"/></Array></mxGeometry></mxCell><mxCell id="evsE_IiLdL26Czsj5JSg-6" value="" style="outlineConnect=0;dashed=0;verticalLabelPosition=bottom;verticalAlign=top;align=center;html=1;shape=mxgraph.aws3.bucket_with_objects;fillColor=#E05243;gradientColor=none;" parent="1" vertex="1"><mxGeometry x="680" y="930" width="60" height="61.5" as="geometry"/></mxCell><mxCell id="evsE_IiLdL26Czsj5JSg-11" style="edgeStyle=orthogonalEdgeStyle;rounded=0;orthogonalLoop=1;jettySize=auto;html=1;strokeWidth=5;entryX=0.13;entryY=0.5;entryDx=0;entryDy=0;entryPerimeter=0;" parent="1" source="evsE_IiLdL26Czsj5JSg-7" target="evsE_IiLdL26Czsj5JSg-14" edge="1"><mxGeometry relative="1" as="geometry"/></mxCell><mxCell id="evsE_IiLdL26Czsj5JSg-7" value="" style="shape=image;html=1;verticalAlign=top;verticalLabelPosition=bottom;labelBackgroundColor=#ffffff;imageAspect=0;aspect=fixed;image=https://cdn1.iconfinder.com/data/icons/CrystalClear/128x128/mimetypes/pdf.png" parent="1" vertex="1"><mxGeometry x="110" y="820" width="100" height="100" as="geometry"/></mxCell><mxCell id="evsE_IiLdL26Czsj5JSg-8" value="Photo" style="html=1;whiteSpace=wrap;strokeColor=none;fillColor=#0079D6;labelPosition=center;verticalLabelPosition=middle;verticalAlign=top;align=center;fontSize=12;outlineConnect=0;spacingTop=-6;fontColor=#FFFFFF;sketch=0;shape=mxgraph.sitemap.photo;" parent="1" vertex="1"><mxGeometry x="450" y="820" width="100" height="70" as="geometry"/></mxCell><mxCell id="evsE_IiLdL26Czsj5JSg-9" value="Photo" style="html=1;whiteSpace=wrap;strokeColor=none;fillColor=#0079D6;labelPosition=center;verticalLabelPosition=middle;verticalAlign=top;align=center;fontSize=12;outlineConnect=0;spacingTop=-6;fontColor=#FFFFFF;sketch=0;shape=mxgraph.sitemap.photo;" parent="1" vertex="1"><mxGeometry x="470" y="830" width="100" height="70" as="geometry"/></mxCell><mxCell id="evsE_IiLdL26Czsj5JSg-12" style="rounded=0;orthogonalLoop=1;jettySize=auto;html=1;exitX=1;exitY=0.5;exitDx=0;exitDy=0;exitPerimeter=0;strokeWidth=5;" parent="1" source="evsE_IiLdL26Czsj5JSg-10" target="evsE_IiLdL26Czsj5JSg-4" edge="1"><mxGeometry relative="1" as="geometry"/></mxCell><mxCell id="evsE_IiLdL26Czsj5JSg-13" style="rounded=0;orthogonalLoop=1;jettySize=auto;html=1;exitX=1;exitY=0.5;exitDx=0;exitDy=0;exitPerimeter=0;strokeWidth=5;" parent="1" source="evsE_IiLdL26Czsj5JSg-10" target="evsE_IiLdL26Czsj5JSg-6" edge="1"><mxGeometry relative="1" as="geometry"/></mxCell><mxCell id="evsE_IiLdL26Czsj5JSg-10" value="Photo" style="html=1;whiteSpace=wrap;strokeColor=none;fillColor=#0079D6;labelPosition=center;verticalLabelPosition=middle;verticalAlign=top;align=center;fontSize=12;outlineConnect=0;spacingTop=-6;fontColor=#FFFFFF;sketch=0;shape=mxgraph.sitemap.photo;" parent="1" vertex="1"><mxGeometry x="490" y="850" width="100" height="70" as="geometry"/></mxCell><mxCell id="evsE_IiLdL26Czsj5JSg-14" value="" style="outlineConnect=0;dashed=0;verticalLabelPosition=bottom;verticalAlign=top;align=center;html=1;shape=mxgraph.aws3.step_functions;fillColor=#D9A741;gradientColor=none;" parent="1" vertex="1"><mxGeometry x="280" y="823.5" width="76.5" height="93" as="geometry"/></mxCell><mxCell id="evsE_IiLdL26Czsj5JSg-15" style="edgeStyle=orthogonalEdgeStyle;rounded=0;orthogonalLoop=1;jettySize=auto;html=1;entryX=0;entryY=0.75;entryDx=0;entryDy=0;entryPerimeter=0;strokeWidth=5;" parent="1" source="evsE_IiLdL26Czsj5JSg-14" target="evsE_IiLdL26Czsj5JSg-8" edge="1"><mxGeometry relative="1" as="geometry"><Array as="points"><mxPoint x="403" y="873"/></Array></mxGeometry></mxCell><mxCell id="evsE_IiLdL26Czsj5JSg-17" value="" style="dashed=0;outlineConnect=0;html=1;align=center;labelPosition=center;verticalLabelPosition=bottom;verticalAlign=top;shape=mxgraph.weblogos.translate" parent="1" vertex="1"><mxGeometry x="840.0000000000001" y="863" width="68.4" height="67" as="geometry"/></mxCell><mxCell id="evsE_IiLdL26Czsj5JSg-18" value="Photo" style="html=1;whiteSpace=wrap;strokeColor=none;fillColor=#0079D6;labelPosition=center;verticalLabelPosition=middle;verticalAlign=top;align=center;fontSize=12;outlineConnect=0;spacingTop=-6;fontColor=#FFFFFF;sketch=0;shape=mxgraph.sitemap.photo;" parent="1" vertex="1"><mxGeometry x="1200" y="1070" width="100" height="70" as="geometry"/></mxCell><mxCell id="evsE_IiLdL26Czsj5JSg-19" value="Photo" style="html=1;whiteSpace=wrap;strokeColor=none;fillColor=#0079D6;labelPosition=center;verticalLabelPosition=middle;verticalAlign=top;align=center;fontSize=12;outlineConnect=0;spacingTop=-6;fontColor=#FFFFFF;sketch=0;shape=mxgraph.sitemap.photo;" parent="1" vertex="1"><mxGeometry x="1220" y="1080" width="100" height="70" as="geometry"/></mxCell><mxCell id="evsE_IiLdL26Czsj5JSg-20" value="Photo" style="html=1;whiteSpace=wrap;strokeColor=none;fillColor=#0079D6;labelPosition=center;verticalLabelPosition=middle;verticalAlign=top;align=center;fontSize=12;outlineConnect=0;spacingTop=-6;fontColor=#FFFFFF;sketch=0;shape=mxgraph.sitemap.photo;" parent="1" vertex="1"><mxGeometry x="1240" y="1100" width="100" height="70" as="geometry"/></mxCell><mxCell id="evsE_IiLdL26Czsj5JSg-21" style="edgeStyle=orthogonalEdgeStyle;rounded=0;orthogonalLoop=1;jettySize=auto;html=1;entryX=0.5;entryY=0;entryDx=0;entryDy=0;entryPerimeter=0;strokeWidth=5;" parent="1" source="evsE_IiLdL26Czsj5JSg-17" target="evsE_IiLdL26Czsj5JSg-18" edge="1"><mxGeometry relative="1" as="geometry"/></mxCell><mxCell id="evsE_IiLdL26Czsj5JSg-29" style="edgeStyle=orthogonalEdgeStyle;rounded=0;orthogonalLoop=1;jettySize=auto;html=1;strokeWidth=5;" parent="1" source="evsE_IiLdL26Czsj5JSg-22" target="evsE_IiLdL26Czsj5JSg-25" edge="1"><mxGeometry relative="1" as="geometry"><Array as="points"><mxPoint x="800" y="1167"/><mxPoint x="800" y="1167"/></Array></mxGeometry></mxCell><mxCell id="evsE_IiLdL26Czsj5JSg-22" value="" style="outlineConnect=0;dashed=0;verticalLabelPosition=bottom;verticalAlign=top;align=center;html=1;shape=mxgraph.aws3.step_functions;fillColor=#D9A741;gradientColor=none;" parent="1" vertex="1"><mxGeometry x="913.5" y="1120" width="76.5" height="93" as="geometry"/></mxCell><mxCell id="evsE_IiLdL26Czsj5JSg-23" style="edgeStyle=orthogonalEdgeStyle;rounded=0;orthogonalLoop=1;jettySize=auto;html=1;entryX=1;entryY=0.5;entryDx=0;entryDy=0;entryPerimeter=0;strokeWidth=5;" parent="1" source="evsE_IiLdL26Czsj5JSg-20" target="evsE_IiLdL26Czsj5JSg-22" edge="1"><mxGeometry relative="1" as="geometry"><Array as="points"><mxPoint x="1148" y="1167"/><mxPoint x="1044" y="1167"/></Array></mxGeometry></mxCell><mxCell id="evsE_IiLdL26Czsj5JSg-31" style="edgeStyle=orthogonalEdgeStyle;rounded=0;orthogonalLoop=1;jettySize=auto;html=1;strokeWidth=5;" parent="1" source="evsE_IiLdL26Czsj5JSg-25" target="evsE_IiLdL26Czsj5JSg-4" edge="1"><mxGeometry relative="1" as="geometry"/></mxCell><mxCell id="evsE_IiLdL26Czsj5JSg-25" value="" style="shape=image;html=1;verticalAlign=top;verticalLabelPosition=bottom;labelBackgroundColor=#ffffff;imageAspect=0;aspect=fixed;image=https://cdn1.iconfinder.com/data/icons/CrystalClear/128x128/mimetypes/pdf.png" parent="1" vertex="1"><mxGeometry x="660" y="1113" width="100" height="100" as="geometry"/></mxCell><mxCell id="evsE_IiLdL26Czsj5JSg-30" style="edgeStyle=orthogonalEdgeStyle;rounded=0;orthogonalLoop=1;jettySize=auto;html=1;entryX=0.5;entryY=1;entryDx=0;entryDy=0;entryPerimeter=0;strokeWidth=5;" parent="1" source="evsE_IiLdL26Czsj5JSg-25" target="evsE_IiLdL26Czsj5JSg-6" edge="1"><mxGeometry relative="1" as="geometry"/></mxCell></root></mxGraphModel></diagram><diagram name="How work translate when user upload manga" id="zzPvbd3QaZIDjyXFkCXa"><mxGraphModel dx="1463" dy="1905" grid="1" gridSize="10" guides="1" tooltips="1" connect="1" arrows="1" fold="1" page="1" pageScale="1" pageWidth="827" pageHeight="1169" math="0" shadow="0"><root><mxCell id="Nf4qPioikTFq-nyBgED0-0"/><mxCell id="Nf4qPioikTFq-nyBgED0-1" parent="Nf4qPioikTFq-nyBgED0-0"/><mxCell id="Nf4qPioikTFq-nyBgED0-2" value="" style="rounded=1;arcSize=10;dashed=0;fillColor=none;gradientColor=none;strokeWidth=2;" parent="Nf4qPioikTFq-nyBgED0-1" vertex="1"><mxGeometry x="50" y="-300" width="2130" height="1070" as="geometry"/></mxCell><mxCell id="GeBgLCl_6u0Tyzsn3KJV-32" style="edgeStyle=orthogonalEdgeStyle;rounded=0;orthogonalLoop=1;jettySize=auto;html=1;strokeWidth=5;" parent="Nf4qPioikTFq-nyBgED0-1" source="Nf4qPioikTFq-nyBgED0-3" target="GeBgLCl_6u0Tyzsn3KJV-29" edge="1"><mxGeometry relative="1" as="geometry"/></mxCell><mxCell id="Nf4qPioikTFq-nyBgED0-3" value="" style="dashed=0;html=1;shape=mxgraph.aws3.instance;fillColor=#F58536;gradientColor=none;dashed=0;" parent="Nf4qPioikTFq-nyBgED0-1" vertex="1"><mxGeometry x="230" y="-320" width="40" height="41" as="geometry"/></mxCell><mxCell id="NXHnE0Oz-ESIcemo2AC0-6" style="edgeStyle=orthogonalEdgeStyle;rounded=0;orthogonalLoop=1;jettySize=auto;html=1;entryX=0;entryY=0.5;entryDx=0;entryDy=0;strokeWidth=5;" parent="Nf4qPioikTFq-nyBgED0-1" source="Nf4qPioikTFq-nyBgED0-5" target="NXHnE0Oz-ESIcemo2AC0-7" edge="1"><mxGeometry relative="1" as="geometry"/></mxCell><mxCell id="NXHnE0Oz-ESIcemo2AC0-9" style="edgeStyle=orthogonalEdgeStyle;rounded=0;orthogonalLoop=1;jettySize=auto;html=1;entryX=0;entryY=0.5;entryDx=0;entryDy=0;strokeWidth=5;" parent="Nf4qPioikTFq-nyBgED0-1" source="Nf4qPioikTFq-nyBgED0-5" target="NXHnE0Oz-ESIcemo2AC0-8" edge="1"><mxGeometry relative="1" as="geometry"/></mxCell><mxCell id="Nf4qPioikTFq-nyBgED0-5" value="" style="outlineConnect=0;dashed=0;verticalLabelPosition=bottom;verticalAlign=top;align=center;html=1;shape=mxgraph.aws3.decider;fillColor=#D9A741;gradientColor=none;" parent="Nf4qPioikTFq-nyBgED0-1" vertex="1"><mxGeometry x="250" y="370" width="100" height="100" as="geometry"/></mxCell><mxCell id="Nf4qPioikTFq-nyBgED0-6" style="edgeStyle=orthogonalEdgeStyle;rounded=0;orthogonalLoop=1;jettySize=auto;html=1;strokeWidth=5;" parent="Nf4qPioikTFq-nyBgED0-1" edge="1"><mxGeometry relative="1" as="geometry"><mxPoint x="760" y="460.0588235294117" as="sourcePoint"/><Array as="points"><mxPoint x="894" y="460"/></Array></mxGeometry></mxCell><mxCell id="NXHnE0Oz-ESIcemo2AC0-4" style="edgeStyle=orthogonalEdgeStyle;rounded=0;orthogonalLoop=1;jettySize=auto;html=1;strokeWidth=5;" parent="Nf4qPioikTFq-nyBgED0-1" source="NXHnE0Oz-ESIcemo2AC0-0" target="NXHnE0Oz-ESIcemo2AC0-1" edge="1"><mxGeometry relative="1" as="geometry"><Array as="points"><mxPoint x="-230" y="475"/><mxPoint x="-230" y="475"/></Array></mxGeometry></mxCell><mxCell id="NXHnE0Oz-ESIcemo2AC0-0" value="&lt;font style=&quot;font-size: 34px;&quot;&gt;User&lt;/font&gt;" style="shape=umlActor;verticalLabelPosition=bottom;verticalAlign=top;html=1;outlineConnect=0;strokeWidth=8;" parent="Nf4qPioikTFq-nyBgED0-1" vertex="1"><mxGeometry x="-420" y="320" width="160" height="300" as="geometry"/></mxCell><mxCell id="NXHnE0Oz-ESIcemo2AC0-1" value="" style="shape=image;html=1;verticalAlign=top;verticalLabelPosition=bottom;labelBackgroundColor=#ffffff;imageAspect=0;aspect=fixed;image=https://cdn1.iconfinder.com/data/icons/CrystalClear/128x128/mimetypes/pdf.png" parent="Nf4qPioikTFq-nyBgED0-1" vertex="1"><mxGeometry x="-140" y="425" width="100" height="100" as="geometry"/></mxCell><mxCell id="NXHnE0Oz-ESIcemo2AC0-3" style="edgeStyle=orthogonalEdgeStyle;rounded=0;orthogonalLoop=1;jettySize=auto;html=1;entryX=-0.002;entryY=0.439;entryDx=0;entryDy=0;entryPerimeter=0;strokeWidth=5;" parent="Nf4qPioikTFq-nyBgED0-1" source="NXHnE0Oz-ESIcemo2AC0-1" target="Nf4qPioikTFq-nyBgED0-2" edge="1"><mxGeometry relative="1" as="geometry"/></mxCell><mxCell id="NXHnE0Oz-ESIcemo2AC0-5" style="edgeStyle=orthogonalEdgeStyle;rounded=0;orthogonalLoop=1;jettySize=auto;html=1;exitX=-0.003;exitY=0.439;exitDx=0;exitDy=0;exitPerimeter=0;strokeWidth=5;entryX=0;entryY=0.5;entryDx=0;entryDy=0;entryPerimeter=0;" parent="Nf4qPioikTFq-nyBgED0-1" source="Nf4qPioikTFq-nyBgED0-2" target="Nf4qPioikTFq-nyBgED0-5" edge="1"><mxGeometry relative="1" as="geometry"><Array as="points"><mxPoint x="46" y="420"/></Array></mxGeometry></mxCell><mxCell id="GeBgLCl_6u0Tyzsn3KJV-24" style="edgeStyle=orthogonalEdgeStyle;rounded=0;orthogonalLoop=1;jettySize=auto;html=1;entryX=0;entryY=0.5;entryDx=0;entryDy=0;strokeWidth=5;" parent="Nf4qPioikTFq-nyBgED0-1" source="NXHnE0Oz-ESIcemo2AC0-7" target="GeBgLCl_6u0Tyzsn3KJV-4" edge="1"><mxGeometry relative="1" as="geometry"/></mxCell><mxCell id="NXHnE0Oz-ESIcemo2AC0-7" value="&lt;font style=&quot;font-size: 20px;&quot;&gt;in s3 buket no translate pdf&lt;/font&gt;" style="rounded=0;whiteSpace=wrap;html=1;" parent="Nf4qPioikTFq-nyBgED0-1" vertex="1"><mxGeometry x="414" y="280" width="276" height="60" as="geometry"/></mxCell><mxCell id="NXHnE0Oz-ESIcemo2AC0-8" value="&lt;font style=&quot;font-size: 20px;&quot;&gt;in s3 buket translate pdf&lt;/font&gt;" style="rounded=0;whiteSpace=wrap;html=1;" parent="Nf4qPioikTFq-nyBgED0-1" vertex="1"><mxGeometry x="414" y="500" width="276" height="60" as="geometry"/></mxCell><mxCell id="GeBgLCl_6u0Tyzsn3KJV-0" value="" style="outlineConnect=0;dashed=0;verticalLabelPosition=bottom;verticalAlign=top;align=center;html=1;shape=mxgraph.aws3.dynamo_db;fillColor=#2E73B8;gradientColor=none;" parent="Nf4qPioikTFq-nyBgED0-1" vertex="1"><mxGeometry x="1220" y="106" width="72" height="81" as="geometry"/></mxCell><mxCell id="GeBgLCl_6u0Tyzsn3KJV-1" style="edgeStyle=orthogonalEdgeStyle;rounded=0;orthogonalLoop=1;jettySize=auto;html=1;strokeWidth=5;" parent="Nf4qPioikTFq-nyBgED0-1" source="GeBgLCl_6u0Tyzsn3KJV-2" target="GeBgLCl_6u0Tyzsn3KJV-12" edge="1"><mxGeometry relative="1" as="geometry"><Array as="points"><mxPoint x="1544" y="77"/></Array></mxGeometry></mxCell><mxCell id="GeBgLCl_6u0Tyzsn3KJV-27" style="edgeStyle=orthogonalEdgeStyle;rounded=0;orthogonalLoop=1;jettySize=auto;html=1;strokeWidth=5;" parent="Nf4qPioikTFq-nyBgED0-1" source="GeBgLCl_6u0Tyzsn3KJV-2" target="Nf4qPioikTFq-nyBgED0-3" edge="1"><mxGeometry relative="1" as="geometry"><Array as="points"><mxPoint x="1380" y="-150"/><mxPoint x="250" y="-150"/></Array></mxGeometry></mxCell><mxCell id="GeBgLCl_6u0Tyzsn3KJV-2" value="" style="outlineConnect=0;dashed=0;verticalLabelPosition=bottom;verticalAlign=top;align=center;html=1;shape=mxgraph.aws3.bucket_with_objects;fillColor=#E05243;gradientColor=none;" parent="Nf4qPioikTFq-nyBgED0-1" vertex="1"><mxGeometry x="1350" y="37" width="60" height="61.5" as="geometry"/></mxCell><mxCell id="GeBgLCl_6u0Tyzsn3KJV-3" style="edgeStyle=orthogonalEdgeStyle;rounded=0;orthogonalLoop=1;jettySize=auto;html=1;strokeWidth=5;entryX=0.13;entryY=0.5;entryDx=0;entryDy=0;entryPerimeter=0;" parent="Nf4qPioikTFq-nyBgED0-1" source="GeBgLCl_6u0Tyzsn3KJV-4" target="GeBgLCl_6u0Tyzsn3KJV-10" edge="1"><mxGeometry relative="1" as="geometry"/></mxCell><mxCell id="GeBgLCl_6u0Tyzsn3KJV-4" value="" style="shape=image;html=1;verticalAlign=top;verticalLabelPosition=bottom;labelBackgroundColor=#ffffff;imageAspect=0;aspect=fixed;image=https://cdn1.iconfinder.com/data/icons/CrystalClear/128x128/mimetypes/pdf.png" parent="Nf4qPioikTFq-nyBgED0-1" vertex="1"><mxGeometry x="780" y="-73" width="100" height="100" as="geometry"/></mxCell><mxCell id="GeBgLCl_6u0Tyzsn3KJV-5" value="Photo" style="html=1;whiteSpace=wrap;strokeColor=none;fillColor=#0079D6;labelPosition=center;verticalLabelPosition=middle;verticalAlign=top;align=center;fontSize=12;outlineConnect=0;spacingTop=-6;fontColor=#FFFFFF;sketch=0;shape=mxgraph.sitemap.photo;" parent="Nf4qPioikTFq-nyBgED0-1" vertex="1"><mxGeometry x="1120" y="-73" width="100" height="70" as="geometry"/></mxCell><mxCell id="GeBgLCl_6u0Tyzsn3KJV-6" value="Photo" style="html=1;whiteSpace=wrap;strokeColor=none;fillColor=#0079D6;labelPosition=center;verticalLabelPosition=middle;verticalAlign=top;align=center;fontSize=12;outlineConnect=0;spacingTop=-6;fontColor=#FFFFFF;sketch=0;shape=mxgraph.sitemap.photo;" parent="Nf4qPioikTFq-nyBgED0-1" vertex="1"><mxGeometry x="1140" y="-63" width="100" height="70" as="geometry"/></mxCell><mxCell id="GeBgLCl_6u0Tyzsn3KJV-7" style="rounded=0;orthogonalLoop=1;jettySize=auto;html=1;exitX=1;exitY=0.5;exitDx=0;exitDy=0;exitPerimeter=0;strokeWidth=5;" parent="Nf4qPioikTFq-nyBgED0-1" source="GeBgLCl_6u0Tyzsn3KJV-9" target="GeBgLCl_6u0Tyzsn3KJV-0" edge="1"><mxGeometry relative="1" as="geometry"/></mxCell><mxCell id="GeBgLCl_6u0Tyzsn3KJV-8" style="rounded=0;orthogonalLoop=1;jettySize=auto;html=1;exitX=1;exitY=0.5;exitDx=0;exitDy=0;exitPerimeter=0;strokeWidth=5;" parent="Nf4qPioikTFq-nyBgED0-1" source="GeBgLCl_6u0Tyzsn3KJV-9" target="GeBgLCl_6u0Tyzsn3KJV-2" edge="1"><mxGeometry relative="1" as="geometry"/></mxCell><mxCell id="GeBgLCl_6u0Tyzsn3KJV-9" value="Photo" style="html=1;whiteSpace=wrap;strokeColor=none;fillColor=#0079D6;labelPosition=center;verticalLabelPosition=middle;verticalAlign=top;align=center;fontSize=12;outlineConnect=0;spacingTop=-6;fontColor=#FFFFFF;sketch=0;shape=mxgraph.sitemap.photo;" parent="Nf4qPioikTFq-nyBgED0-1" vertex="1"><mxGeometry x="1160" y="-43" width="100" height="70" as="geometry"/></mxCell><mxCell id="GeBgLCl_6u0Tyzsn3KJV-10" value="" style="outlineConnect=0;dashed=0;verticalLabelPosition=bottom;verticalAlign=top;align=center;html=1;shape=mxgraph.aws3.step_functions;fillColor=#D9A741;gradientColor=none;" parent="Nf4qPioikTFq-nyBgED0-1" vertex="1"><mxGeometry x="950" y="-69.5" width="76.5" height="93" as="geometry"/></mxCell><mxCell id="GeBgLCl_6u0Tyzsn3KJV-11" style="edgeStyle=orthogonalEdgeStyle;rounded=0;orthogonalLoop=1;jettySize=auto;html=1;entryX=0;entryY=0.75;entryDx=0;entryDy=0;entryPerimeter=0;strokeWidth=5;" parent="Nf4qPioikTFq-nyBgED0-1" source="GeBgLCl_6u0Tyzsn3KJV-10" target="GeBgLCl_6u0Tyzsn3KJV-5" edge="1"><mxGeometry relative="1" as="geometry"><Array as="points"><mxPoint x="1073" y="-20"/></Array></mxGeometry></mxCell><mxCell id="GeBgLCl_6u0Tyzsn3KJV-12" value="" style="dashed=0;outlineConnect=0;html=1;align=center;labelPosition=center;verticalLabelPosition=bottom;verticalAlign=top;shape=mxgraph.weblogos.translate" parent="Nf4qPioikTFq-nyBgED0-1" vertex="1"><mxGeometry x="1510" y="-30" width="68.4" height="67" as="geometry"/></mxCell><mxCell id="GeBgLCl_6u0Tyzsn3KJV-13" value="Photo" style="html=1;whiteSpace=wrap;strokeColor=none;fillColor=#0079D6;labelPosition=center;verticalLabelPosition=middle;verticalAlign=top;align=center;fontSize=12;outlineConnect=0;spacingTop=-6;fontColor=#FFFFFF;sketch=0;shape=mxgraph.sitemap.photo;" parent="Nf4qPioikTFq-nyBgED0-1" vertex="1"><mxGeometry x="1870" y="177" width="100" height="70" as="geometry"/></mxCell><mxCell id="GeBgLCl_6u0Tyzsn3KJV-14" value="Photo" style="html=1;whiteSpace=wrap;strokeColor=none;fillColor=#0079D6;labelPosition=center;verticalLabelPosition=middle;verticalAlign=top;align=center;fontSize=12;outlineConnect=0;spacingTop=-6;fontColor=#FFFFFF;sketch=0;shape=mxgraph.sitemap.photo;" parent="Nf4qPioikTFq-nyBgED0-1" vertex="1"><mxGeometry x="1890" y="187" width="100" height="70" as="geometry"/></mxCell><mxCell id="GeBgLCl_6u0Tyzsn3KJV-15" value="Photo" style="html=1;whiteSpace=wrap;strokeColor=none;fillColor=#0079D6;labelPosition=center;verticalLabelPosition=middle;verticalAlign=top;align=center;fontSize=12;outlineConnect=0;spacingTop=-6;fontColor=#FFFFFF;sketch=0;shape=mxgraph.sitemap.photo;" parent="Nf4qPioikTFq-nyBgED0-1" vertex="1"><mxGeometry x="1910" y="207" width="100" height="70" as="geometry"/></mxCell><mxCell id="GeBgLCl_6u0Tyzsn3KJV-16" style="edgeStyle=orthogonalEdgeStyle;rounded=0;orthogonalLoop=1;jettySize=auto;html=1;entryX=0.5;entryY=0;entryDx=0;entryDy=0;entryPerimeter=0;strokeWidth=5;" parent="Nf4qPioikTFq-nyBgED0-1" source="GeBgLCl_6u0Tyzsn3KJV-12" target="GeBgLCl_6u0Tyzsn3KJV-13" edge="1"><mxGeometry relative="1" as="geometry"/></mxCell><mxCell id="GeBgLCl_6u0Tyzsn3KJV-17" style="edgeStyle=orthogonalEdgeStyle;rounded=0;orthogonalLoop=1;jettySize=auto;html=1;strokeWidth=5;" parent="Nf4qPioikTFq-nyBgED0-1" source="GeBgLCl_6u0Tyzsn3KJV-18" target="GeBgLCl_6u0Tyzsn3KJV-21" edge="1"><mxGeometry relative="1" as="geometry"><Array as="points"><mxPoint x="1470" y="274"/><mxPoint x="1470" y="274"/></Array></mxGeometry></mxCell><mxCell id="GeBgLCl_6u0Tyzsn3KJV-18" value="" style="outlineConnect=0;dashed=0;verticalLabelPosition=bottom;verticalAlign=top;align=center;html=1;shape=mxgraph.aws3.step_functions;fillColor=#D9A741;gradientColor=none;" parent="Nf4qPioikTFq-nyBgED0-1" vertex="1"><mxGeometry x="1583.5" y="227" width="76.5" height="93" as="geometry"/></mxCell><mxCell id="GeBgLCl_6u0Tyzsn3KJV-19" style="edgeStyle=orthogonalEdgeStyle;rounded=0;orthogonalLoop=1;jettySize=auto;html=1;entryX=1;entryY=0.5;entryDx=0;entryDy=0;entryPerimeter=0;strokeWidth=5;" parent="Nf4qPioikTFq-nyBgED0-1" source="GeBgLCl_6u0Tyzsn3KJV-15" target="GeBgLCl_6u0Tyzsn3KJV-18" edge="1"><mxGeometry relative="1" as="geometry"><Array as="points"><mxPoint x="1818" y="274"/><mxPoint x="1714" y="274"/></Array></mxGeometry></mxCell><mxCell id="GeBgLCl_6u0Tyzsn3KJV-20" style="edgeStyle=orthogonalEdgeStyle;rounded=0;orthogonalLoop=1;jettySize=auto;html=1;strokeWidth=5;" parent="Nf4qPioikTFq-nyBgED0-1" source="GeBgLCl_6u0Tyzsn3KJV-21" target="GeBgLCl_6u0Tyzsn3KJV-0" edge="1"><mxGeometry relative="1" as="geometry"/></mxCell><mxCell id="GeBgLCl_6u0Tyzsn3KJV-21" value="" style="shape=image;html=1;verticalAlign=top;verticalLabelPosition=bottom;labelBackgroundColor=#ffffff;imageAspect=0;aspect=fixed;image=https://cdn1.iconfinder.com/data/icons/CrystalClear/128x128/mimetypes/pdf.png" parent="Nf4qPioikTFq-nyBgED0-1" vertex="1"><mxGeometry x="1330" y="220" width="100" height="100" as="geometry"/></mxCell><mxCell id="GeBgLCl_6u0Tyzsn3KJV-22" style="edgeStyle=orthogonalEdgeStyle;rounded=0;orthogonalLoop=1;jettySize=auto;html=1;entryX=0.5;entryY=1;entryDx=0;entryDy=0;entryPerimeter=0;strokeWidth=5;" parent="Nf4qPioikTFq-nyBgED0-1" source="GeBgLCl_6u0Tyzsn3KJV-21" target="GeBgLCl_6u0Tyzsn3KJV-2" edge="1"><mxGeometry relative="1" as="geometry"/></mxCell><mxCell id="GeBgLCl_6u0Tyzsn3KJV-25" style="rounded=0;orthogonalLoop=1;jettySize=auto;html=1;entryX=0;entryY=0.5;entryDx=0;entryDy=0;entryPerimeter=0;strokeWidth=5;" parent="Nf4qPioikTFq-nyBgED0-1" source="NXHnE0Oz-ESIcemo2AC0-8" target="GeBgLCl_6u0Tyzsn3KJV-0" edge="1"><mxGeometry relative="1" as="geometry"/></mxCell><mxCell id="GeBgLCl_6u0Tyzsn3KJV-26" style="rounded=0;orthogonalLoop=1;jettySize=auto;html=1;exitX=1;exitY=0.22;exitDx=0;exitDy=0;exitPerimeter=0;entryX=0.06;entryY=0.5;entryDx=0;entryDy=0;entryPerimeter=0;strokeWidth=5;" parent="Nf4qPioikTFq-nyBgED0-1" source="GeBgLCl_6u0Tyzsn3KJV-0" target="GeBgLCl_6u0Tyzsn3KJV-2" edge="1"><mxGeometry relative="1" as="geometry"/></mxCell><mxCell id="GeBgLCl_6u0Tyzsn3KJV-33" style="edgeStyle=orthogonalEdgeStyle;rounded=0;orthogonalLoop=1;jettySize=auto;html=1;strokeWidth=5;" parent="Nf4qPioikTFq-nyBgED0-1" source="GeBgLCl_6u0Tyzsn3KJV-29" target="NXHnE0Oz-ESIcemo2AC0-0" edge="1"><mxGeometry relative="1" as="geometry"/></mxCell><mxCell id="GeBgLCl_6u0Tyzsn3KJV-29" value="" style="shape=image;html=1;verticalAlign=top;verticalLabelPosition=bottom;labelBackgroundColor=#ffffff;imageAspect=0;aspect=fixed;image=https://cdn1.iconfinder.com/data/icons/CrystalClear/128x128/mimetypes/pdf.png" parent="Nf4qPioikTFq-nyBgED0-1" vertex="1"><mxGeometry x="-390" y="-349.5" width="100" height="100" as="geometry"/></mxCell></root></mxGraphModel></diagram><diagram id="CWjdXO3Si7DqupWEPpFX" name="Database"><mxGraphModel dx="1463" dy="1905" grid="1" gridSize="10" guides="1" tooltips="1" connect="1" arrows="1" fold="1" page="1" pageScale="1" pageWidth="827" pageHeight="1169" math="0" shadow="0"><root><mxCell id="0"/><mxCell id="1" parent="0"/><mxCell id="sLMIWecMijC4AU-lOXYT-1" value="" style="shape=image;verticalLabelPosition=bottom;labelBackgroundColor=default;verticalAlign=top;aspect=fixed;imageAspect=0;image=data:image/png,iVBORw0KGgoAAAANSUhEUgAACmcAAAOZCAYAAADhnmaJAACAAElEQVR4XuzdQa4sWZUm6hrBm0XO4A0hh1AjqCFkm0aN4DGCopMtJFCKFqTogCI7ZIXoEA2kgk5CJ1BmNEBKlAIynhZXO8vuH3ubb3Pzfc8x9++TliDuMTO348d82/p9m5v/t/8GAAAAAAAAAAAAAAAAAAAAAAAAAAAAAAAAAAAAAAAAAAAAAAAAAAAAAAAAAAAAAAAAAAAAAAAAAAAAAAAAAAAAAAAAAAAAAAAAAAAAAAAAAAAAAAAAAAAAAAAAAAAAAAAAAAAAAAAAAAAAAAAAAAAAAAAAAAAAAAAAAAAAAAAAAAAAAAAAAAAAAAAAAAAAAAAAAAAAAAAAAAAAAAAAAAAAAAAAAAAAAAAAAAAAAAAAAAAAAAAAAAAAAAAAAAAAAAAAAAAAAAAAAAAAAAAAAAAAAAAAAAAAAAAAAAAAAAAAAAAAAAAAAAAAAAAAAAAAAAAAAAAAAAAAAAAAAAAAAAAAAAAAAAAAAAAAAAAAAAAAAAAAAAAAAAAAAAAAAAAAAAAAAAAAAAAAAAAAAAAAAAAAAAAAAAAAAAAAAAAAAAAAAAAAAAAAAAAAAAAAAAAAAAAAAAAAAAAAAAAAAAAAAAAAAAAAAAAAAAAAAAAAAAAAAAAAAAAAAAAAAAAAAAAAAAAAAAAAAAAAAAAAAAAAAAAAAAAAAAAAAAAAAAAAAAAAAAAAAAAAAAAAAAAAAAAAAAAAAAAAAAAAAAAAAAAAAAAAAAAAAAAAAAAAAAAAAAAAAAAAAAAAAAAAAAAAAAAAAAAAAAAAAAAAAAAAAAAAAAAAAAAAAAAAAAAAAAAAAAAAAAAAAAAAAAAAAAAAAAAAAAAAAAAAAAAAAAAAAAAAAAAAAAAAAAAAAAAAAAAAAAAAAAAAAAAAAAAAAAAAAAAAAAAAAAAAAAAAAAAAAAAAAAAAAAAAAAAAAAAAAAAAAAAAAAAAAAAAAAAAAAAAAAAAAAAAAAAAAAAAAAAAAAAAAAAAAAAAAAAAAAAAAAAAAAAAAAAAAAAAAAAAAAAAAAAAAAAAAAAAAAAAAAAAAAAAAAAAAAAAAAAAAAAAAAAAAAAAAAAAAAAAAAAAAAAAAAAAAAAAAAAAAAAAAAAAAAAAAAAAAAAAAAAAAAAH/e53v/ubn//853/3wx/+8Mc/+MEP/vff//3ff62UUkoppZRSb1GVS6p+9rOf/c/KKZVXMsPAW5CdlVJKKaWUUu+lZGfeK9lZKaWUUm9R3//+9/9P9R8/+clP/lf1yL/85S//e/Yp8ElVY/xP//RP/5+mWCmllFJKKfXeq8K0iSbeguyslFJKKaWUukrJzrwV2VkppZRS77Hqgs1f/OIX/yN7F1iuPq303e9+91/zoFRKKaWUUkqp91w10fRv//Zv/09mHFhBdlZKKaWUUkpdsWRnPiXZWSmllFLvvapX+fWvf/232cfAw1UQ84klpZRSSiml1JWrMo1JJlaSnZVSSimllFJXL9mZ1WRnpZRSSl2t3EWTpTTISimllFJKqWcpk0ysIjsrpZRSSimlnqVkZ1aRnZVSSil11XKBJsv88Ic//HEecEoppZRSSil11aqvacvcA2fJzkoppZRSSqlnKtmZFWRnpZRSSl25fve73/1N9jdwys9//vO/ywMt66c//enXX3755dd//vOfvwYAAHgrlUn+/d///evf/va3X//DP/zDN7LLtn7961//beYfuJfsDAAAXIXszFuRnQGA96r649///vdf//M///M3+pNt1QdNsseBU77//e//nzzQWtUBqTEGAADeo//8z//8+pe//OU3ckyryjqZf+BesjMAAHBFsjOfkuwMAFxBXai59yEmX2/Ow9TBlAdYqwpqAAAA793eJNO//Mu//L+Zg+Ao2RkAALg62ZnVZGcA4Er+4z/+Y3iB5o9//OPvZa8Dd/nBD37wv/MAq6pPLgEAAFxB3QXkH//xH7+Ra6rq67QyB8FRsjMAAHB1sjOryc4AwNV8+eWX3+hdqr773e/+a/Y6cJc8uFrV7VsBAACuYhSga2IgcxAclceV7AwAAFyR7MxKeVzJzgDAFYzunvnLX/7yv2e/A4f87ne/+5s8sKp++tOf5nEIAADwrv35z3/+RrZpVdkn8xDMkp0BAIBnITuziuwMAFzVL3/5y2/0MFU/+clP/lf2PHDIr3/967/NA6vKreUBAIArqjf8M99UVfbJPASzZGcAAOCZyM6sIDsDAFf1+9///hs9TNUPf/jDH2fPA4f84he/+B95YFX99re/zeMQAADg3assk/mm6uc///nfZR6CWbIzAADwTGRnVpCdAYAryx6m6rvf/e6/Zs8Dh/zsZz/7n3lgaZIBAICrGk0wVfbJPASzZGcAAOCZyM6sIDsDAFeWPUyr7HngEE0yAADwTEwwsYLsDAAAPBPZmRVkZwDgyrKHaZU9DxyiSQYAAJ6JCSZWkJ0BAIBnIjuzguwMAFxZ9jCtsueBQzTJAADAMzHBxAqyMwAA8ExkZ1aQnQGAK8seplX2PHCIJhkAAHgmJphYQXYGAACeiezMCrIzAHBl2cO0yp4HDtEkAwAAz8QEEyvIzgAAwDORnVlBdgYArix7mFbZ88AhmmSA5/OjH/3o629961v/VX/4wx9ykUO226oCgPfMBBMryM4Ab+9Xv/rVN/Jp1Z/+9Kdc9LDvfe9739huPR4APCvZmRVkZ/ggs4tsAXAN2cO0yp4HDtEkAzwfF2cC8MpMMLGC7Azw9nKCs9VvfvObXPSQurgzt1llAhWAZyY7s4LsDB9kdpEtAK4he5hW2fPAIZpkgOeTF2eenajKCSoAeM9MMLGC7Azw9nKCs9V3vvOdXPSQL7744hvbrDKBCsAzk51ZQXaGDzK7yBYA15A9TKvseeAQTTLA88mLM8+GvpygAoD3zAQTK8jOAG8vJzi39cc//jEXn1YXd+b2HpGlAeA9k51ZQXaGDzK7yBYA15A9TKvseeAQTTLA83FxJgCvzAQTK8jOAG8vJzi3F1V+/vnnufiUP/zhD9/IvI/K0gDwnsnOrCA7wweZXWQLgGvIHqZV9jxwiCYZ4Pm4OBOAV2aCiRVkZ4C315vgbP//29/+di4+pS7qbNv43ve+943tA8Czkp1ZQXaGD3rZBYD3L3uYVtnzwCGaZIDnkxdn1p1Azthuq2rGX/7yl78+7m9+85u/hs5W9d9nvm5uu90vvvjir79rVdv2n/70p1ylq22n1Xa9+v/bfT77/AHwaZlgYgXZGeDt5QRnZbftf3/11Ve5yq7KhTlhmv89q3Jjy5Atp9aFn/XfX3755UOyammPU9vePsbR372px6t1axuVsUfb2e7TbKavbbf3BNr+tvxeNbsdANaQnVlBdoYPzmSLox7Zd+/1/dvHuXduLtVj1Pq136PcVP+23a/aj1TbubVMT643q+Wys/mvp9atXFb5rGq0X9v9PvJ4tXzt43bf63HOzt/Cs8geplX2PHCIJhng+bzlxZkVeKqhr7uW5Hrbqq+fq6AymvhJtd3tHU32qpa7FbzqOdmu04JxBZDc3srQDMDjmWBiBdkZ4O3lBGfZ5t/PPvss1thXE1Lb7eXFnjNZsCawtl+vvle1vXuzak2S5Z09s+rns5Ny9Th726vndZvX82d7al9n83tt6+x7FgDcR3ZmBdkZPsjsMpMtjlrRd2/XqbzQ9ObOtlVzgpWvZlQmquyW22hV+aoer2WnfC57v8e986K53i1H8t/MXOVWPX+jbdfzW89Z+71GuXFP7Xtut1dHciU8o+xhWmXPA4dokgGeT4aJ2RAyko35SE3cjILDXt0KbDOTUFm3wkMvuOTE3PZnAFyHCSZWkJ0B3l5OypXMcUcmv7Y5s008HsmCsxOh26pJtb197GXVWn42a9f297Jwyedsr1pe3/7b3sWZld9vfVizVzVRCMCnJTuzguwMH2R2uZUtjlrVd+fy5daFmdu69XtWtpmd72u5Iy/k7M153jsvmuvtWZH/mtmMVttrd/vc/vve837rYthe1ePMPofwbLKHaZU9DxyiSQZ4PhkmzjbQ2ZT3VBjI5apqX9qFj/W/uW+39rEmlXoBs8Jbbat9TUBvoqqFlJ5ecOk9TvsZANdhgokVZGeAt5cTnKUmmrb/duvDf01m2DZJOZsFc1+qKlO2DNy+KryXgffu8JlZtSZC8yLS+rfadv1vLwvXv4/UfuXy7S4s9RxU1f9v+bjdAWe7/OjizL38XvtU26nt1//P5fbyOwBryM6sIDvDB5kX9rLFUWf67qq9vjuX3WaBlhvqd6nqXfC3dzHi6MLM7X5n/mlf075dvieXGc05plxvJP+eVbP5b5Sfmt4dLW9ltFxndHzVc947BipH1n61v2dvv6tm8zU8k+xhWmXPA4dokgGeTzbRsyFkJJvxngxhewGsZAAbTU71PolW/9bTC0ej7eaEV4a9vX0H4H0zwcQKsjPA28vM12xzY7sD5i2ZNdvdJrf/NprgKnlR5N6EW06cVW2/Mnwrs2qrvYsX83fZy+O53/V89ZYdTZxWjX7X3u85ej+i9w0Zo/wOwBqyMyvIzvBBZpe9bHHUyr47t9tqNC9Xj5sX/41+1/zQV9Xo4r/esq167p0XzfVGMkeNMlHp/X1Gv2fJ52+U0fbuljp6zvM43Nt+ZdTcfv3e8Gqyh2mVPQ8cokkGeD4ZJmZDyEhuryeXGU00Nb1P9uVXr9V/b39eNQqATS9o5nbLaMJrLyABcA0mmFhBdgZ4ezmx1CaU8m6QvQyYtnl0O7G23c5ogivvull1K3fnBxpH2x5l1dGFmU3m697+5H7vXfBZRhdoju7MmcvuTViW3u8KwKcjO7OC7AwfZHYZ9f/3WNl353JVo/6/ya89H+1P7vet7eZzuLfvOUfZy0M9uV4vH2WOmtl+foBu9PfPi1DrYsjehZPN6ALN0fZz2dGFmU39LJ8T86a8muxhWmXPA4dokgGeTzbOvTBxRG6vJ4PAzGNWeKkaLZvh5daFmU0GzV7Ay2WqRoERgGsxwcQKsjPA28vJue2E2PZOJqOJqSYnwLaTTdt/H22nHrdyZmXIqpmsmheQju5W08uqM9vPCdHevt+TsfO5Gm271L/X79Wel1sTliXvQDNzYS0AjyE7s4LsDB9kdhn10PdY2Xdn7793V/4mb7TSu9tiLlN1a7slLy6s6sl5zJnnpMys94j8N5p/zA/x1V03b8nsV9U7vjLL3bows8m/1Wjf4VllD9Mqex44RJMM8HxmwsQRub2eXObWHThmZOg68ntsP4FX20m9CS+f/gJ4DiaYWEF2Bnh7OcG5zYjbCareZODWdgIsJxu32+9NcN0rJ7hG+9jLqqOJ0618bnoThjkhe+sbL0o9N7k/vQ9A3ivfSziS+wE4R3ZmBdkZPsj+/JHZ4h6zfXf2/r1c0ZPrpXw+Zi/4yw+Y9bZdZn+/dO96M7bbHeW//N1m5lUzW1b1jq/83XrLjOTzPrNf8Cyyh2mVPQ8cokkGeD7ZcJ8NEzmB05PBqursBZq5vSPyOchPg9074QXA+2eCiRVkZ4C3l7lzm3VzgmqURXO5nGzc/uzI5NWMzKA9vaw6o+6wsl2nN9mZ282cPJJ3c+lt+16Z3c++fwHAPNmZFWRn+CCzy6OzxVGzfXd+9fjsTU226/S2f+/zMZuPZn+/dO96M27td34QrnejmZH8O/WezzO/W/69Zj7YB88ie5hW2fPAIZpkgOdzpuHu2W6rqqcmuPJOl1X1bzWRUxNFRy5+zMBV26kwMFt5QWk+B73tA/AcTDCxguwM8PZygihz3naCKi+6bPIixtzG9me9Ca6Ryru1rVqnHrtyedZ221U9mVVnL4ScWW/m8Xvyee9te6T2qyZ0axv5fFTl+wj59wBgHdmZFWRn+CB76CPZ4h6P6rszt4yWS9t1euvlnRhnn4+8gLGq5979vne9bf7bfuX5tm7t90yGG8nt957PfPycR92rme3Ds8oeplX2PHCIJhng+WTTPBsmRrKBH6lPTuWyWXXRZIWw0V1MmgwlZyufg9z+kdADwPtmgokVZGeAt1cTQns5ryYj289GH8DbfpCv99Vy2+3fmoCqicLt16kfrZ57s+qt9SqDzzx+Tz7vue1U+5IfmJyt/JsCsI7szAqyM3yQPfStbHGPFX13zi/OurX93G7+fE9uuze/eO/2j6xX+S//rkcq3cpwe3I/8vjqXdR6pnL78Myyh2mVPQ8cokkGeD5HwsQtvQZ+T4WiuvgyP4XXq7qrSU2e9b5KLYPF2crn4EzoAeB9M8HECrIzwNvLnJg5L/NrfvVaXqDYm2C69fPmzERoq57MqnXx54xcLzPurZ/vyQ9ijtY9e7FqVf5NAVhHdmYF2Rk+yOyyly2OWtl35/zirFvbz+3mz/fc2na5d/uz663If7M5q+fW8ZX572zl9uGZZQ/TKnseOESTDPB8MkycaZp7DfysuvCyvtI818+qizTzAs0MFnWxZ/1e91Z+ki5/r1oGgOdggokVZGeAt5c5sTdxts2g9f+3cgKzvooubX8+ytI5ibbNlbVOZeHat1alHiuX78msOtqHlOtlxs2fVw6flV8Fn9sulel7H9Ksf6vnvX6P7XPSnvva1nb53t8UgDVkZ1aQneGDzC6zff0tq/vuXG5W7k9uP7ebP99za9vl3u3PrHdP/ssPDlalWja3N+vW8ZXbbtu/t+p3hFeRPUyr7HngEE0ywPOpRnnbcNedLO+VkzBV96jwUsGwJoBye719zMet3+mRMpg8evsAvB0TTKwgOwO8vZyAmpk4234QcHunk7xws9mumxNcTd4xpf771mRVZtCqnlxutA8p18uMO3txaE8+77nt3jJV9R5AfhAz5fsXvb8pAGvIzqwgO8MH2R/P9vW35HYf3XfncrNyn3L7ud38loM9t7Zdcvu9ZXpm1luV/3KZXs4aqTnV7bo5x5rb7j0+0Jc9TKvseeAQTTLA88m7gRy5I0bKBr9Cx1l54WWrbXhcHRxy+0dCDwDvmwkmVpCdAd5eTkT2Js7K9k4ybdIsv9J8NBm4XaY3gZpZcm9bW731enK5R32teZl5/J583nvbzg9iji5+TTOToQCsITuzguwMH2QP3csW91jdd+dys7br9NbLecvZ5yNz3Gjfc797y/TkXUhzvcxZVY/Kf7lML2eN5O/bWzcfP79hEOjLHqZV9jxwiCYZ4Pn0Ln7MQDGjd2eN2aB3S170WbUNNL3HvvXJvyPOhB4A3jcTTKwgOwO8vZzgHOXc7cRf+7Di9t/2PnS43X5vwjDzdk3mzcj1qnruzaq5Xt45peTj977WvScngHv7lNu+dSeZ0vuqv9HfFIDHk51ZQXaGDzK79LLFPbJ/fnTfnRf9zcrtp3w+Zj+EVr9fbru377nfvWXSzPOSOW42//X2u2dmmZ68qLSX0fKOn/m7AX3Zw7TKngcO0SQDPJ/ehY29xvyW3gWUM0FvRoWenODJcJrh4lGPXXLi6p7nB4D3yQQTK8jOAG8vJ/RGk0t5d5XKyNv8uTcRuF0vM2rJfZj9AGNOjFX13JtVc73evuc+1ETjLflcjvYpl5n5cGU+l1WjvykAjyc7s4LsDB9kr9vrz++R/fOj++68yHFm+yW3n/Jixb0PzG3l/oz2PeczZ+5umfvU23Y+d4/OfzkPOrPftUxuu5fRal+3y/Q+wAd8U/YwrbLngUM0yQDPqRdYjlzc2GvuK0z0glhN6NTjVYiomr37RgaDnBjK0DMb1mryqJat7dfv3NufnLjqBRcArskEEyvIzgBvLzNiTpxtbS/GzOzZy4jNdrneBGreOWUmp/Ym/ap67s2quV5v3/P5m9l2fv3gaL1c5takYr23kBORVUfetwDgHNmZFWRn+CB7715/fo/sn+/tu3M+rsm5xb3MtZXbT727VO7lstL7oNhon/L5nrkQsXcBZW57df7Li0r3PkjY5N+oqpfRMiNW9eZ4U7u5Tm2zfn9fh86ryR6mVfY8cIgmGeA5VajpBa6Zxj5DTKsMJU1O1lTTfqvB74WCbPB7ofFWgO3dkbMXwvLxe8EFgGsywcQKsjPA28usOsqoJSfRWrWvOR/ZLtvLn5klqzLLbo32o6q3/7n92aya6/X2vfctG3sXQ44mFXv7NJPDm7yT6bZm70QDwHmyMyvIzvBBZpdef36P7KMf3XfnhX+9zNKT2+/JD83tzSVWxsr5wb19yjxU6462XXJec7Tt3G7VXv4bZajetkvvRjl7GS0v5mzVy2gl/571N9h7Xko+xq0MDc8me5hW2fPAIZpkgOc1mgSqRrqCRzX4FSIqENT/r38bBbW9izp7EzztrpW9Jr8eLz+RVkGpp/c7VDDIT9TV41SIyaAxCmAZqEbBBYDrMcHECrIzwNvLCc7e5FbTuzNL1d5EV9ku25tA7W238mTesab2bTupVf8/83ZvIvXerJrr9fa95D5UVd7fPpf1/7eTlTk519unXKayeOX5bR6vHF/Pf5tkrf/NSdEj38YBwDmyMyvIzvBBZpfqoevf7qmt1X13zrHtZa6t7TpVPb0LFyufVJZq+5L73ssvo33KecdaN3/HmhPdPoe5Tm67dxOZXv7L7db/z+eyl/9Kbr8q71hZ+7W9uDWflzxOmsyJbd3eBaaZYVvlcwLPLnuYVtnzwCGaZIDnlp9Eu6cqQPQucNzKYLetavRrPzIsbGuvuR/9DhVYat/2tjuaeMtA0ptcAuCaTDCxguwM8PZygnMvR5ZelryVbbfLjia4cj9a1cReTsBVtbvS9Ca6qrZ3Irk3q+Z6o33fuwNNr9qFm7f2afTtHW35nPSsZWtfRl9VWD8f5XkAHkN2ZgXZGT4YZYZ7amt135155lbmanK7I6NM1Kv6XXofjhvp3eylqs0l5vPWblqz/bfe7zv6W47yX8tLo981L448mtFqv3OfRvmv5O+4rdrX3u/Qau/GPfCssodplT0PHKJJBnh+FSYykM1UrXNkMqT3qbeZmnmMClVHwkkLnCMzk0sAXJMJJlaQnQHeXk5A9SbOtvIr4kZ3KtnaLr83wbU3gbWt7Vf17U26Nfdm1Vxvb9/3vt5wW+35mt32kfcEtn+70aTl6HEAeAzZmRVkZ/ggs8uZSiv77sw5tzJXk9vcM9qPbW3n+PJnI5W7cv9H1S46zL/T6Ped3e5s/svH2Vt2W6P9vpWd6vFmtr+tmblbeEbZw7TKngcO0SQDvI66wHEmQFR4uNXIj9QkT61762LQCgG1XH6lwJ4KJ3XHkb1t18/yKxx6cnJpdsILgPfPBBMryM4Aby8noHJCq2c7AZVfPdez3f6tXLz9ur2slnkzm1auzVxeyzb3ZtVc79a+137V/tfE6PZCzcrUlbu3z+2RbVfGz99vW/V4vfcBapIxs35lewDWkZ1ZQXaGDzK7nKmeVX13bnMmc5V8/Ftqu/Uc1eO1TNXucJlzfEe3vffc501pctm93/eR+a93c5n6e9XvXn+77d+o8lr923ad3O+9jNbUvmX+y6p9q2Okd+zAq8geplX2PHCIJhngNVUTXiGjwkQ1+/X/qzI4nFFBobZZ269gUNUe5xHa/tcEW/1/YQGAYoKJFWRnAEYqi7bsW//bm2jreVQ2Xi0vzpy9g0pm9pn3G+q5nFkOgPNkZ1aQneHTe/a+e5tF6sLCWds5ykfOIb6H/JcXZ87uw1atU8dN1ZHfA55d9jCtsueBQzTJAADAMzHBxAqyMwCvKr828SqTuADsk51ZQXYGHm2bRWbuEPkK6u6W7TnZfhMDcF72MK2y54FDNMkAAMAzMcHECrIzAM+g7ohSd9SpSc2a0Jux/Rq+I3eqAeB9k51ZQXYGRrZ3nKwsMnOnxvyg2CPvPvletDuftm8gnLH92vPPPvssfwyckD1Mq+x54BBNMgAA8ExMMLGC7AzA1dVk6HZis+rzzz/PxT5SE6fb5Wcv6ATg/ZOdWUF2Bka2H/qqqjs+7l2gWT+rD4dt13k2dWHmkYxW32KwvWtmVWU24HGyh2mVPQ8cokkGAACeiQkmVpCdAXgGNdE3M/nXmwitydO6wBOA5yA7s4LsDIz0Piw2yhh1B8lcdvaukleTF61W1Z00U13Iub1jZlX9d12wCTxO9jCtsueBQzTJAADAMzHBxAqyMwDPoCbuagI0J//qQsyaFGyVPx9NEAJwXbIzK8jOwJ7eh8XqAsNtFskLEFteeVa9i1arts/JKKM949e8w1vLHqZV9jxwiCYZAAB4JiaYWEF2BuBZfPXVV90LNPeqd3dNAK5NdmYF2RnYUx8WG11oOKrR3TWfSX01+dGM9qx3EoW3lj1Mq+x54BBNMgAA8ExMMLGC7AzAM6lJ0ZrMuzUBWBOn7pgJ8JxkZ1aQnYEZdcfHWxdp1h00K7M8+4WZTcto+TxkffbZZ3/9wB2wRvYwrbLngUM0yQAAwDMxwcQKsjMAz6gmAGtitO7UUhOB23qVSVCAVyU7s4LsDBzxxz/+8a8XGmYWeeWLDyuHVUbL56Qym4wG62UP0yp7HjhEkwwAADwTE0ysIDsDAADPRHZmBdkZALiy7GFaZc8Dh2iSAQCAZ2KCiRVkZwAA4JnIzqwgOwMAV5Y9TKvseeAQTTIAAPBMTDCxguwMAAA8E9mZFWRnAODKsodplT0PHKJJBgAAnokJJlaQnQEAgGciO7OC7AwAXFn2MK2y54FDNMkAAMAzMcHECrIzAADwTGRnVpCdAYAryx6mVfY8cIgmGQAAeCYmmFhBdgYAAJ6J7MwKsjMAcGXZw7TKngcO0SQDAADPxAQTK8jOAADAM5GdWUF2BgCuLHuYVtnzwCGaZAAA4JmYYGIF2RkAAHgmsjMryM4AwJVlD9Mqex44RJMMAAA8ExNMrCA7AwAAz0R2ZgXZGQC4suxhWmXPA4dokgEAgGdigokVZGcAAOCZyM6sIDsDAFeWPUyr7HngEE0yAADwTEwwsYLsDAAAPBPZmRVkZwDgyrKHaZU9DxyiSQYAAJ6JCSZWkJ0BAIBnIjuzguwMAFxZ9jCtsueBQzTJAADAMzHBxAqyMwAA8ExkZ1aQnQGAK8seplX2PHCIJhkAAHgmJphYQXYGAACeiezMCrIzAHBl2cO0yp4HDtEkAwAAz8QEEyvIzgAAwDORnVlBdgYArix7mFbZ88AhmmQAAOCZmGBiBdkZAAB4JrIzK8jOAMCVZQ/TKnseOESTDAAAPBMTTKwgOwMAAM9EdmYF2RkAuLLsYVplzwOHjJpkpZRSSimllHqmMsHEGbKzUkoppZRS6hVKduYM2VkppZRSz1jZ88AhmmSllFJKKaXUK5QJJs6QnZVSSimllFKvULIzZ8jOSimllHrGyp4HDtEkK6WUUkoppV6hTDBxhuyslFJKKaWUeoWSnTlDdlZKKaXUM1b2PHCIJlkppZRSSin1CmWCiTNkZ6WUUkoppdQrlOzMGbKzUkoppZ6xsueBQzTJSimllFJKqVcoE0ycITsrpZRSSimlXqFkZ86QnZVSSin1jJU9DxyiSVZKKaWUUkq9Qplg4gzZWSmllFJKKfUKJTtzhuyslFJKqWes7HngkFGT/Nvf/vZrAJ5fjv9VAHBllWXy3FZlgokzZGeAa8nxWtYFgI/JzqwgO/NK8jiXOwCuL8f0VtnzwCGaZIDXluO/4AjA1ZlgYgXZGeBacryWdQHgY7IzK8jOvJI8zuUOgOvLMb1V9jxwiCYZ4LXl+C84AnB1JphYQXYGuJYcr2VdAPiY7MwKsjOvJI9zuQPg+nJMb5U9DxyiSQZ4bTn+C44AXJ0JJlaQnQGuJcdrWRcAPiY7s4LszCvJ41zuALi+HNNbZc8Dh2iSAV5bjv+CIwBXZ4KJFWRngGvJ8VrWBYCPyc6sIDvzSvI4lzsAri/H9FbZ88AhmmSA15bjv+AIwNWZYGIF2RngWnK8lnUB4GOyMyvIzrySPM7lDoDryzG9VfY8cIgmGeC15fgvOAJwdSaYWEF2BriWHK9lXQD4mOzMCrIzrySPc7kD4PpyTG+VPQ8cokkGeG05/guOAFydCSZWkJ0BriXHa1kXAD4mO7OC7MwryeNc7gC4vhzTW2XPA4dokgFeW47/giMAV2eCiRVkZ4BryfFa1gWAj8nOrCA780ryOJc7AK4vx/RW2fPAIZpkOO6Pf/zj13/4wx/+q/7yl7/kIndbuW3oyfFfcATg6kwwscIrZufKIttsUlnlUVZuG6DkeC3rAsDHZGdWOJOd//SnP32UE+u/4T3L4/xI7tge61UAvA85prfKngcOOdMkw6v60Y9+9PW3vvWt/6pHNs0rtw09Of7PBkcAeK9MMLHCK2bnyiLbbFJZ5VFWbhug5Hgt6wLAx2RnVjiTnX/1q199lBPrv+E9y+P8SO7YHutVALwPOaa3yp4HDjnTJMOrWnkB5cptQ0+O/7PBkcf48ssv//q6b1X/PdKW/c53vvON4F717W9/+7+289lnn/31zataxzgCvBoTTKzwitl55QWUK7cNUHK8ns2623w2k9NmffXVV9/YrrHvfcl8/sUXX+Qi/6Xu+FzLyOfAlcnOrHAmO7s4k6vJ4/xI7sj+kXmtFz/St3/ve9/7xnPearutGnd+85vf/LVv9+2W8JpyTG+VPQ8ccqZJhldVzdm2aXvkG6srtw09Of7PBkce48gbTrnskaqJoc8///yvE4IAz84EEyu8YnZeeQFlvTm+atsAJcfr2aybWaqqJvLOqgv0crtVvB+ZuffOTXmOPFItn9fFmiZ8gbckO7PCmeyc5+K998rhPcjj/EzuYF724qv69qrKcfp2eC05prfKngcOOdMkw6uqJqxCYas//elPucjdXJzJp5bj/2xw5DGOvOGUy95bNRH0iDu/ALxXJphY4RWzc+Wcbe55dP+w7U/23kgHuEeO17NZN/NTqzPv/dREXm6vFe9HZu69c9PZSd5Wlc/rzjwAb0F2ZoUz2bnOr9sM+lbzY9sP1cCePM7P5A7mZS/+Kfr2qhqXXKQJzy/H9FbZ88AhZ5pk4PFcnMmnluP/bHDkMXLy58jFmfX1ads3q7ZVY8no69Va1TJ11yqAZ2OCiRVk58fLvgTgkXK8ns26mZta7X1V3i118V1urxXvR2buvXNTTvLu5fO6wONWPq+7s8rnwKcmO7PCM2Tn7Xkb9uRxfiZ3MC978SN9e1X269u+fe/rz6tqfPANdfDcckxvlT0PHPIMTTI8Exdn8qnl+D8bHHmMnPyp/x7JZfcCZ1Of4qu7XOXY0qru0mECCHg2JphYQXZ+vKN9DcAROV7PZt3MTK1qEu5eexN8vB9HMndO8u4t21Q+r4nc0Vfcy+fApyY7s8LVs3PdLV2vxqw8zs/kDuYd6cVz2dnnuvr2zz///Bvrtnr0t8sA70eO6a2y54FDrt4kw7PJC6hcnMlqOf7PBkceIyd/Hn1x5lZN8tRkT4bImij0VQzAMzHBxAqy8+Od6WsAbsnxejbrbsemvIjunvdoKofleLf9b96PI5k7J3n3lu2pCz96F+1WZq+fAXwKsjMrXD071wVZejVm5XF+b+5wrB1zpBfPZY8+1zV3NurbfbAKnlOO6a2y54FDrt4kw5VUk1afpGm3R6//n2+4PuKNfzgix//Z4Pip1WuhV2dVsKrt1NfMbV+bjwpVtf227XqcvAgyJ39WXpxZRhdo3rMtgPfKBBMryM7HVN/TeqvWByW9CLBSjtezWTfz2XYiru6cctT2biuVxTLXHVFjaV0wsB1fK7/Wv+f7S2fU9rbvX9Vj9sbxI1ruflTWbur3zkxf/7/+7ehj5d9m79xU259ddmQ00Vv/BvApyM6s8NbZub3fn3l0ti/IfgD25HF+b+44cqzVsZzH+L39757a1jZ7tMc4kztqm7Wds18LfqQXz2WPPNfNqG+vfJdzfsD15ZjeKnseOOStm2ReV341wF7jtJVN1Gi9bJBmzWw773Jw6w3qajR7F0NtH6c1zBn8bm0bzsrxfzY4Hn0dNEfXqwmh+vq4fN20qtdWXdRcyx0JQV988cXu67KqHnfmqwlGr9v693yM/H1z3frvkVx2NEbdMrpA80yoBnhPTDCxwpnsnOfw7AdGZtbLZfZ6ia2Z9WazV1O9WPZ622oXJTVHtg1wVI7Xs1k3x8Z6T2c7jh21zV51oWaOv7dUTqt19nJxq8q5M7l4u852/K3fde9x6mdHJnxrv0eTmPVcbPN2flj51u9R6+6dc1rVMr3zZ0/+bfbOTUfPkSOjid7ZfQY4Q3ZmhUdm55mc2papc2r1F733vVvVz3s9Rj7uXjlHs5XH+b25o+qW6n97fWPWbP+bvXRT6+bPtlWvsZl5s6YuxKzt9V6blQEqg7TX5ej1nXK5vV48l626x6hvP/JcANeQY3qr7HngkDNNMpw12zhtZRM1Wi+bo1kz286mdK/J3d4hYa/qDe5q7DIE7m0bHiHH/9ngeO+xOvv6qcC2NynUq5mJotFXh+1VTXDt6T0XFchyO+1ne+uOwmbJZUdj1IzeBZq3fk+AqzDBxApnsnOew7MfGMks0Vsvt73XS2zNrDebvUqvtxhVu/Pc7LYB7pHj9WzW3Y5NNTbmh4uPTL5lLmx3ntn+254jY2urWr53vtjaLt/G39zXvbp1p5t2cUSu16t2/sn3CvbMbntbM3c9zb/N3rnpyDnylnq+8v2Pmf0FOEt2ZoVHZueZnNqWmX3Pv5bLCzTzcffqVp/Fa8nj/N7cUbXnnv639/rZyv67sseR/DEznzSbMdrrMl+Lo+yV48BeL57LVt2rd4Gmu97D88kxvVX2PHDImSYZzpptnLayiRqtd2+jNbPtbFhHYWzULNf61WDWJ4K2b75WA1fN7My24VFy/J8NjhmSZo/VmddPBcB83VS1u2TWY+d2tsuM7gC5FyzrtVjbHG23/j3ftGnyuajAOHqc/H1z3b3AnMuOxqhZOUbdcxcYgPfIBBMrnMnOeQ7PfmAk+5LeenWBzGwvsZX71FtvNntV79XrfVrvVhknf5ftnej2tg1wrxyvZ7Nub2zc3tWx/v+s7dhXmbPk+DtS+bM3trYxs7ZTmS7H1/ZYo/xacvmcNK316/esbedFg+3nI70Jy1Ztv3Ofe3fBHMn3zbb71O5MWtvqPXejyd0m/zZ756bZc+Ss3u+19zcEeATZmRUemZ1ncmrrifK83HqZXk+Q2229SG/59u+tbt0cgteSx/m9uaNqJI/vVtVz18/aey557Fb13kdqsv/Oea32nk479nPbVaO5uJLv+7Rqc+G17e3jtV5+u+xo/3Mc2OvFc9mqMzI7VRkX4LnkmN4qex445EyTDGfNNk5b2USN1svGaNbMtrMJ7TWHeWeFqtGn3vcuGOttGx4px//Z4DgbktLM6ye/zmzvgsu6ICFfP/nmSpOPXdV7XdZrsrfsaLv5XGwnr2o79Tu2ysmVXHf0GCWXHY1Rs/Jijqre3wPgakwwscKZ7Jzn8NnzbfYjvfUyH+31Elu5T731ctuj3qN3QUlvX8toUmG0bYB75Xg9m3V7Y2NOwGWu68n3hdqdZXL8HelNZo4uLuzl4l7WbXK7bd3K4r3fLfd5b1/yuaoa3VVne07I/e+pfctt1/mj935BLZvn0b33Fkr+nnvnptlz5Kw8XqpG51KAR5GdWeGR2Xkmp257iOqf0qgn6PU8JZeFPXmc35s7Rsda70Ym1Vv3jt9aNj8ktfehqjzW22up1un1ofVv2bOPMkevt+3dtbZs80Nuv7cfJceBvV48l606o5dJemMVcF05prfKngcOOdMkw1mzjdNWNlGj9bIxmjWz7WxYe81hhshR09mMLtDsbRseKcf/2eCYx/jssTrz+snXwa2vTMvJn17gzLGjahQcm3ozZ/u67G235HPRajRZtZXr7oW4XHY0Rh2R+9z7ewBcjQkmVjiTnfMcPnu+zYsee+tlj7PXS2zlPvXWy22Peo/MMbd6oN4FmqNtA9wrx+vZrDsaG29N/Kccw9vdVHL8HcmJ1VvjZObiva/X2y7X6lY+zrF7tHzu92i5Jj+c2aonf8eqvYstS56jeufSJv82e8/57DnyiHzubp1PAc6SnVnhkdl5Jqe22ptD6N2RfNQT5PwF7Mnj/N7cMTrWMlPsXVhcehdFjvrlPNarbt2BP/vx2p+e/KDZrTny3G6r0es0x4G9XjyXrTorn7veWAVcV47prbLngUPONMlw1mzjtJVN1Gi9exut7TqjpjKbrl5zOBv0tvKN7tn14Iwc/2eDY75RMnuszrx+tj+/FTabCnu1T/UmTG+b+bi3Joia/D17b/LkMlWjsSnlunshLpedfYw9OfnT+/0ArsYEEyucyc55Du/1Kj0z6+Uye73E1sx6M9kr30Dfuxio6d1loLdtgDNyvJ7NuqOxcfuezcxYt/1Ghe3yOf6O1Li4zWu9c8BW76KDke0yrW7l7vzmhd643ZsMvrXd3jpVPfXc1eO233Mm1+eEdu981+Tfpvc7NjPnyKPyfYu9fQV4BNmZFR6ZnXvnwjwHV9WHPW7J+bfetkuej2FPHuf35o7Rsda+svzWcbuVH34azfnksV5168NBvczR6/e3WWhvH7ZyrqpqlIFyHNjrxXPZqrNyPBl9UwBwTTmmt8qeBw450yTDGTkht9c4pZn17m20ZtbLhjWbw2z0Rhd5pnyju7dteLQc/2eDYwa82WM1Q0tvvQx3o9f5EfnaGn1aMOVY1XujJ980qpoJmyXX3QvXuewjnpccz/YeH+AqTDCxwpnsnOfwXv/TM7NeLjN7Lp9ZL3NNr/fInrC3nZ5cr7dtgDNyvJ7NuqMxLb9SsN0Jsyff39neaTPH30fKfNc7b5TtMlUzFzlmNu7te/5us2N7nhN6275Xnsv2ftcj+5/b3Vt2Vv79Zs+pAPeSnVnhkdm5dy7Mc3DVqOfZym2PeoI8H8OePM7vzR2PPNbyWO+9jkoe66Nvjku5Xr7+MjdV9S7gTHm3zd62mxwH9nrxXLbqrHyO9x4fuJ4c01tlzwOHnGmS4Yxsho40LjPr3dtozax3q/HMu8f0LuYaycfPbcOj5fg/GxxvvQ5GMrT01utNzIzeLJmRYXD2gukmP+WXeqFxVj4fo6BcctnR+HdE/h33Hh/gKkwwscKZ7Jzn8F7/0zOzXi4zey6fWW8ms+WdDXr72JP9U2/bAGfkeD2bdffGxm023Ls7Sn4ocfvhwBx/Hynz3WhM3i5TNfvhwlwv5e+Wz99Ivo/W2/a9Zs5lTe7/3rJHtjsrH3/vGAN4BNmZFR6ZnXu9RJ6Dq2ZkvzE6d2c/BXvyOL83dzzyWJt5HZU81mfn4HK9zBz5Gh291lLvw2C57ebIY+SyVWflc7z3+MD15JjeKnseOORMkwxnZDN0pHGZWe/eRmtmvVuNZzZlo8a3Jy8Cy23Do+X4Pxscb70ORvL10Vsv3yhpVY9ZE/l7dyjpyfGmLiKof5utvOggP+XX2/6sfD72xotcdjT+HZF/x73HB7gKE0yscCY75wdPev1PT577e+vlMrPn8uxfeuvlMr3eY/vzqtm7k89sG+CMHK9ns+7e2Li9sHx0Z5mcVMwP7Oa4fVSNn5WZaztZs+8pbZfZWy7leinz5ex285zQ2/aeOvfUNvL5qMoLZffON/m32Vs293lv2Vn5/OXxB/BosjMrnMnOeS7unQvzHDz7XnyuNzp35/kY9uRxfm/uOHqs7fW/eQz3Xkdldrl0a72c38s8tCe/VW+UJ2ZfzyWXrTorx6q9xweuJ8f0VtnzwCFnmmQ4I5uhI43LzHr3Nloz62Xjmc1hNmXZmO65tW14tBz/Z4Pjvcdqvj5G6+UESlaFtAp1FfRuycc8W7nPZ8az3Le98SKXPfI4I7OTdwBXYoKJFc5k55V9Uy6z10tsZf/SWy+X6fUe259XzZrZNsAZOV7PZt29sbEmQbc/791xMicjc5kct2+px6zsm9ltpnrnjZLLzcr18oOL957v8oLWmX2q5zEfb6b2zjf5t9lbdsV5LH+fPP4AHk12ZoUz2TnPxb1z4b3n4Nn18nwMe/I4vzd33DrWql+uu6rn8TlTvddRyW1lbhnJ9XL7M6/jkdz2KE/Mvp5LLlt1Vs5fHvkdgfcvx/RW2fPAIWeaZDgjm6G9xinNrHdvozWz3q3msBrk7c+PNGW3tg2PluP/bHC891jNYLa3Xt2VZGYCqi7UrNfd6E5N+ZhnK/f5zHiW+7Y3XuSyRx5n5NbvBnBFJphY4Ux2Xtk35TJ7vcRW9i+99XKZXu+x/XnVrJltA5yR4/Vs1r01Nm7H9N5X/21/Xlk15bi9J5c9Wr3zRsnlZuV6uf17z3cltz1S36SR325xpPbON/l87y274jyWv9eR5w/gHrIzK5zJznku7vVi956DZ9fLfgb25HF+b+7YO9bq2J2ZJxtV73VU8lif7T1zvdz+zOt4JLc9ujnL7Ou55LJVZ+V+Hvkdgfcvx/RW2fPAIWeaZDgjm6G9xinNrHdvozWzXjZd2bC6OJMryfF/Njjee6xmMJtZryZfatIrv9KgV/X6S/mYZyv3OcezI6/53Le9dXPZ0fg3qz4Jmb8bwDMwwcQKZ7Lzyr4pl9nrJbZm1ssep9d7bH9eNSu33buACeCMHK9ns+6tsXF7Z8wau7Z3j8w7a/byaZ4TemqbeaFeq1q/tlv7VvtS42mrXKd33ii5zVm5Xn5AMn+30eP35LZ78q6krWqyuu4uWs9J1fY52X4VfVXvXNbkuXFv2TyP7S07I4+dqnx+AR5NdmaFM9k5z8W9XizPwb1+qyfXG527s5+BPXmc35s7RsdaviZaVd9fc2b18+p3t/3v7F0dc7nZ3j1fI7n93Of8+Z5b225mX88ll606o3fX/9nnDriGHNNbZc8Dh5xpkuGMbIb2GqetfLNytF42RrNm1svmMJuuRzaeuW14tBz/Z4PjvcdqTZjcs15Ty9drKiedtpWfpsvX5GjcuFeOZ0de87lve+vmsmd/jwzfZ7cH8F6YYGKFM9n53r4pP/TVWy/7g71eYmtmvexxer3C9udVs3LbR9YFmJHj9WzWvTU21mTc9oOD2/yZFwL2Lq7Lc0JPjtFVtV59cHFPbrt33ii57Vm31pt9/NSb4MznLp/3qvrvzP8pL+jsncuafN73ls3z2N6yM/LYqQtOAVaTnVnhTHbOc3GvF8tzcG+ZnlxvdO7Ofgb25HF+b+7oHWs5H15VPeKt/nfmdVRyudnePV8juT+53dHj9+S2R+vOvp5LLlt1RuaLs9sD3p8c01tlzwOHnGmS4YxshvYap63Z9e5pjHqNbk82h9mwnmk8843m3DY8Wo7/s8Hx1utg5N71empyJrdXlZMY+ZocjRv3ynHpyGs+921v3Vz2zO9Rk3o53tRkEMAzMMHECmeyc/Yrs/3PzHrZH+z1Elt54Wdvvexxer1HfrVWXkwzktuuAnikHK9ns+6tsbFsP+hWH0Bsth8i7I2ZJcf2nsxq28fYk+v1zhtlu8xoH3purZe/2+jxU++ckOvmxYtVM+ecPE+O/i7lyLK5z3vL3lLvbeT5tI4xgNVkZ1Y4k53zXNzrxfIcPHvOzPVG5+7sZ2BPHuf35o7esZbv21Rt79o/kuv1XkclX2/Zf4/kayTXy7599jVaMs+M9n329Vxy2ap79b7hYDarAdeRY3qr7HngkDNNMpyRzVBeTDWSzeKo4bqn0cp9Gq13q/HM7cw2Zr07BeS24dFy/J8Njvk6qK/InvHoY7wXhqq2kzT59d2z482sfM2PAmNPjml76+ayo/Hvlt7ET9VMsAe4AhNMrHAmO+edw/fO91v5pnSvb8r+YHbb2cv11ssep9d75HZ6+9iT+10F8Eg5Xs9m3VtjY8nxsfJnfuA37yDT5LjZk+PjaFtbR95TyuVm3VovJ4JnPwDYu/tM7nueN+p9gBm5T71zWZOPsbdsHgN7y+6ZeU8DYBXZmRXOZOc8F/d6sXvPwbPrzfRq0ORxfm/u6B1reSzOzjXner3XUcnXW/bfI7n9XG/2tZYyT+3t+5HHyGWr7pXv71XNzo0C15FjeqvseeCQM00ynNF703hGNj6jhisnMmfkG7aj9Y42nrUvM2bejIZHy/F/Njjm62UUkrbytfGoY7x3F8jt5FUv1D1yoiN/r3puZmUA3nsec9nR+LdnNPFz5NOLAO+dCSZWOJOd8xy+d75vev1Lr2/KDDHzZn3vq2F7+5Q9Tq/3yGzU205Prx8BeKQcr2ez7uyYtv3AW12EuB2Pa4wdffgtx83UG/9H29rKc01V77xRcrlZt9bLfeidN3ryOentey4zk7t757u9fTqy/zPnyFtG+fyebQHcQ3ZmhdXZ+d5zcK43ej88ew7Yk8f5vbmjd6zlsTjzga1elui9jkq+3rL/Hsn9yvVqvi73YSbP5B039/Y9X89740AuW3WP7bcntHr0jWCA9yHH9FbZ88AhZ5pkOCvfIL11sVSvqRw1XNkc3vrkSu8N26qe3HY2niW31Vsm5YWns+vBGTn+zwbHDEqjNzO2euElj/Habk2y1Ots9k4YJV8/+ZrP1+3M/pYKkrVu7Vf9/54Md6NxqScD8Chsllz2yOOU0cRPjVe3xl+AKzHBxApnsnPexXumD5npm0r2ITP9U/YUVb0eJLfd6z3y4tCZx+/luiqAR8rxejbr3hobm+1YWmPfNpPujfOZTVPvw8yjLNqM3tPKXNzkcrNurdebiL1ldE7Ic16eF/ee46Z3vuudy5pcfm/ZmXPkLfk7tbr19wZ4FNmZFc5k5zwX93qxe8/BuV5v2yV7Ne+bsyeP83tzR1XKY3HmrvS9/nL0oaZ8vc1c/Flyv7JvL/nNbaNcspXrVI1ep/l63hsHctmqo3rP6+zvBVxPjumtsueBQ840yXBWNnCjJqvUG8158dVew5V39bv1pu2oserJ/e41nrm9eqN+75NBOam5t214pBz/Z4NjBppbd4jN5UfHeL6+RsFxKy94qMrXWz5+7e+tCY/exYy9cSq3PRqXejIA97bf5LKzj1O/RwX3XritEiCBZ2OCiRXOZOfexSrZq2z1lq/KvqnJ5fZ6nPpZryfo9SAzPU7vIqK9N/R7/VUrgEfK8Xo2694aG5vRRYVVe+NwZt6evNByLxeP3i/bWy+X2zsnbeV6PXmO2Xs/bu+ckOe8zMO33oOoc1E+j3v7XfIxeue9ZuYc2VO/c+1bPk+tZibdAR5FdmaFM9k5z8W9Xuzec3Cu19t2yV5tr5eBPM7vzR1VqTfPvCdfP7fWy+VHr4mUr5Hs20vO0d+aI8/f9dY+5et5bxzIZatmVd+ev2+rUdYCri/H9FbZ88AhZ5pkOCsvSKw3TXsTeds3a/PNy1HD1Wu2em9w1rZb09d707YnG7Fe49mbUK03y3vNZ96B8Na24ZFy/J8NjiVfj6NjfPtaz3XyGM9xoapeI6NPqNbj5TZHXyXQC3i9MafUazgnuEZfTZfjzWhc6jkSgHPZGhfrsavafrX/rgsua/kcr7JGvz/AlZlgYoWz2Tn7lTpH9/qK7cUkmU+yb2ryfF89Qu/CoPq30bZ7PchsjzPbY1U/13JdPn4VwCPleD2bdW+NjVu9CwtHebTJMbsnl6lt9s4B9W/t/FLjambY0URs7nNv2z25Xk/vPa46T2Smr3NSe/56z2OeI/OcVFV/n1xu+z5fe+xcb/T7ZuYenfdK7s9ePq9q+bx3/tvuK8CnJDuzwpnsnOfiXi+W5+C98/VWrtfbdun1DtnHQJPH+b25oyr1+urePHcdn9v80DuGs2cuM6+3nswqvd66N0fee6+q9n27v9kr937fkq/nvXEgl237XNVe27Vf2769clXuy7b07fDcckxvlT0PHHKmSYZHyEnK1kRV41PNzfbn7U53uexINohV1fzVv9e2883farry33pyu73Gs+S2tvtQj5/bqf/OTxONtg2PkuP/bHAsGd6q6jXbjuU8xuu4z3V6x/jotVPbru22cNQbP6p6FwOUClq9QNUmsW6FrtEdJjPc7Y1LKZ+PvQCcy56p0cXwAM/ABBMrnM3OvQ+gPKJvKtmLtHN9yz3Z31SvlXce7/Ugud1Rj1PLjfqneuxe35aPXwXwSDlez2bd7bjUGxu3emP7aAKxyfG+J8ffVjWWjnJrjau99dr5YHsOycw9Or+k3HbP3t0w23lvu++99/pG287nrq1f57re+3xt0jT/vaq9N7eV593Rea/0nuszJZ8Db0F2ZoUz2TnPxb1eLM/Be+frrVyvt+3S6+9m1uM15XF+b+6oSr0bk1Rt+9/8eetvc52qeq1ss8rM660ne/JRluhdJLrdl9z33l0qR9vO1/PeOJDLni13zITnl2N6q+x54JAzTTI8Qm9SblTtwqjtv91quPLN6lG1N0Gz8evJZUbNYTXOedeCUdWbwrV8NsOjbcOj5Pg/GxzL3qRLVi1XZo7xvNPFkbo1oXHkddmqxpHRhZklw93euJTy+dgLwLnsvVXPrU/7As/MBBMrPCI7H+mbqmfJuyT0+qZmtr+pN79r29m/9HqQXGavx9nelfNWtcfKfwd4pByvZ7Nub7waqfE0x7JbWSvfUxrJD+/uVcvBexl9+7vkPuQdbEZymyN7+7GtdmFmyZ/1HDnXtHNp2XsutzJz75338hx5b8nnwFuSnVnhTHbOc3GvF8tz8N75eivX6227jG7wcGs9XlMe5/fmjqqePG73avvBo1H/u329zLzeejJL7L1XNTvP1x57dtv5vOyNA7nsvVWPMdof4LnkmN4qex445EyTDI9Szcxe2KkJxO2FUdkM7dl+TVKv2l0Hmmz8enKZW83YqAluVfvX3ozOZvjWtuGsHP9ng2MzcyFl/bxNihw5xnuflBtVPcbshFKpix32xp2q9gnEWxMlGe5ujUtb+XzsBeBcdrbq96gLNur5vPW7ADwDE0ys8KjsfCsbbPum7DH2+qZyq1eoHqX1S7ntXg+Sy9zqcWrbeeeDbVVPsr3DQC4L8Eg5Xs9m3VtjY9rm4cpdt2TG3VPvhe3l1ny/rNQ5JB8jf5f8+azc5p72AeR6rN7vkFk7fz5S6+x9IKEeqx63nUub0Tlyb5m9816eI2er5fN6T0I+B96a7MwKZ7Jznot7vVieg/fO11u53t7d7+ocPZpX7O0TryuP83tzR9VIvdeS/fu2Wv+beu8/bV8vM6+3ntyXW+9V1bxU7y6fbX+2eWZ22/l63hsHctkjVdutvv3I3CNwfTmmt8qeBw450yTDI7W7t1STUw1gVf3/XuNV/9ZqpiFq264G8Na2a3vb7ffkMvmG70itl/uQ+9/29ei24V45/s8Gx1THcoWodnxX1X/nZEP999FjvNZpY0P72s8Kc6PHOGJv7JnZt5Kv23xd78nnY+93yWX36sg+ADwbE0ys8Mjs3PLErb4pe4yZ3qS37d4HNHLb+fPeMrP9RVsv9yH3P3MVwCPleD2bdW+NjWmb02aWPzr27WXWPdsxPMfvo/vQbNc5sl5pz1OeC5qcBL1l9B7EaPvNdv9z2czc+bxt5Tlyr/a2A/CWZGdWOJOd81zc663yHDx7nr1nvVquzenV/9Z/w1Ye5/fmjpljq47Z7RxzVa2XPW0aPcbM660ns8Stx99qr8PRY+XFmaNtH3k957K3CiDH9FbZ88AhZ5pkAK4vx//Z4AgA75UJJlaQnQGuJcdrWfd9207C1kQzAOvJzqwgO/NK8jiXO87ZXpxZd68FeAs5prfKngcO0SQDvLYc/wVHAK7OBBMryM4A15Ljtaz76Wzv9jm6281W3QFoe3GmO9YAfBqyMyvIzrySPM7ljo9VX1+9/t6dLZvKDfUV7S0T1LfoAbyFHNNbZc8Dh2iSAV5bjv+CIwBXZ4KJFWRngGvJ8VrW/TS+853vfHShZd3xZu8CzfpZLbNdB4BPQ3ZmBdmZV5LHudzxweeff/5Rf18XXd66QDPX+eqrr3IRgE8ix/RW2fPAIZpkgNeW47/gCMDVmWBiBdkZ4FpyvJZ1P42aRN1Oqu5doFl30dneHafKHXIAPh3ZmRVkZ15JHudyxwd5F8y9CzTr3/LDWr7SHHhLOaa3yp4HDtEkA7y2HP8FRwCuzgQTK8jOANeS47Ws++n86Ec/6l6gWXfD+dWvfvXXGi3Tu4gTgDVkZ1aQnXkleZzLHf9X9fzZ79cFmp999tl/ZYL6YFYuU9W7iBPgU8kxvVX2PHCIJhngteX4LzgCcHUmmFhBdga4lhyvZd1PpyZT8045t2p0Jx0A1pGdWUF25pXkcS53fKz3gaxb9Zvf/CY3A/BJ5ZjeKnseOESTDPDacvwXHAG4OhNMrCA7A1xLjtey7qdVd8Csu+HMXKRZd9T8wx/+kJsAYDHZmRVkZ15JHudyxzd99dVXX3/nO9/5RgbIqrvof/nll7k6wCeXY3qr7HngEE0ywGvL8V9wBODqTDCxguwMcC05Xsu6b6Mu0qy737SvMt9W/ZuvMQd4O7IzK8jOvJI8zuWOsbrwsvr/+lrzbSaoD2q5gz7wnuSY3ip7HjhEkwzw2nL8FxwBuDoTTKwgOwNcS47Xsi4AfEx2ZgXZmVeSx7ncAXB9Oaa3yp4HDtEkA7y2HP8FRwCuzgQTK8jOANeS47WsCwAfk51ZQXbmleRxLncAXF+O6a2y54FDNMkAry3Hf8ERgKszwcQKsjPAteR4LesCwMdkZ1aQnXkleZzLHQDXl2N6q+x54BBNMsBry/FfcATg6kwwsYLsDHAtOV7LugDwMdmZFWRnXkke53IHwPXlmN4qex44RJMM8Npy/BccAbg6E0ysIDsDXEuO17IuAHxMdmYF2ZlXkse53AFwfTmmt8qeBw7RJAO8thz/BUcArs4EEyvIzgDXkuO1rAsAH5OdWUF25pXkcS53AFxfjumtsueBQzTJAK8tx3/BEYCrM8HECrIzwLXkeC3rAsDHZGdWkJ15JXmcyx0A15djeqvseeAQTTLAa8vxX3AE4OpMMLGC7AxwLTley7oA8DHZmRVkZ15JHudyB8D15ZjeKnseOESTDPDacvwXHAG4OhNMrCA7A1xLjteyLgB8THZmBdmZV5LHudwBcH05prfKngcO0SQDvLYc/wVHAK7OBBMryM4A15LjtawLAB+TnVlBduaV5HEudwBcX47prbLngUM0yQCvLcd/wRGAqzPBxAqyM8C15Hgt6wLAx2RnVpCdeSV5nMsdANeXY3qr7HngEE0ywGvL8V9wBODqTDCxguwMcC05Xsu6APAx2ZkVZGdeSR7ncgfA9eWY3ip7HjhEkwzw2nL8FxwBuDoTTKwgOwNcS47Xsi4AfEx2ZgXZmVeSx7ncAXB9Oaa3yp4HDtEkA7y2HP8FRwCuzgQTK8jOANeS47WsCwAfk51ZQXbmleRxLncAXF+O6a2y54FDNMkAry3Hf8ERgKszwcQKsjPAteR4LesCwMdkZ1aQnXkleZzLHQDXl2N6q+x54BBNMsBry/FfcATg6kwwsYLsDHAtOV7LugDwMdmZFWRnXkke53IHwPXlmN4qex44RJMM8Npy/BccAbg6E0ysIDsDXEuO17IuAHxMdmYF2ZlXkse53AFwfTmmt8qeBw7RJAO8thz/BUcArs4EEyvIzgDXkuO1rAsAH5OdWUF25pXkcS53AFxfjumtsueBQzTJAK8tx3/BEYCrM8HECrIzwLXkeC3rAsDHZGdWkJ15JXmcyx0A15djeqvseeAQTTLAa8vxX3AE4OpMMLGC7AxwLTley7oA8DHZmRVkZ15JHudyB8D15ZjeKnseOESTDPDacvwXHAG4OhNMrCA7A1xLjteyLgB8THZmBdmZV5LHudwBcH05prfKngcO0SQDvLYc/wVHAK7OBBMryM4A15LjtawLAB+TnVlBduaV5HEudwBcX47prbLngUM0yQCvLcd/wRGAqzPBxAqyM8C15Hgt6wLAx2RnVpCdeSV5nMsdANeXY3qr7HngEE0ywGvL8V9wBODqTDCxguwMcC05Xsu6APAx2ZkVZGdeSR7ncgfA9eWY3ip7HjhEkwzw2nL8FxwBuDoTTKwgOwNcS47Xsi4AfEx2ZgXZmVeSx7ncAXB9Oaa3yp4HDtEkA7y2HP8FRwCuzgQTK8jOANeS47WsCwAfk51ZQXbmleRxLncAXF+O6a2y54FDNMkAry3Hf8ERgKszwcQKsjPAteR4LesCwMdkZ1aQnXkleZzLHQDXl2N6q+x54BBNMsBry/FfcATg6kwwsYLsDHAtOV7LugDwMdmZFWRnXkke53IHwPXlmN4qex44RJMM8Npy/BccAbg6E0ysIDsDXEuO17IuAHxMdmYF2ZlXkse53AFwfTmmt8qeBw7RJAO8thz/BUcArs4EEyvIzgDXkuO1rAsAH5OdWUF25pXkcS53AFxfjumt/n/27iBnduNK0/AOehe1g15CL6FX0EvosdbQWkFrbuAahRpZBU/KkEduwRNrYKDlGpRGEtp3UAIsFG7JanwCQjr56ZzgYWZG/snk+wAB6f5JBoPMYPAcBjPTYx5gF4Jk4Icfvv322x8++uijn8qXX37piwAvy8d/EsfH+fTTTy/GHo1FTuMR4xMA7MMEE1Y4Y+7seZJiFwA4Ch+vyXUBALhE7owVyJ3Jnc/E+zl5BwAcn4/po3jMA+xyxiAZcJ448fATzsTHfxLHx+HhTABYgwkmrHDG3NnzJCaYAByJj9fkugAAXCJ3xgrkzuTOZ+L9nLwDAI7Px/RRPOYBdjljkAw4T5x4+Aln4uM/iePj8HAmAKzBBBNWOGPu7HkSE0wAjsTHa3JdAAAukTtjBXJncucz8X5O3gEAx+dj+ige8wC7nDFIxvF8+PDhx2RG5euvv/aXb/bdd9/9VP+qbQDPysd/EsfH+eKLLy7GHo1FjoczAWA/JpiwwjPmzt9///1PcYTiinvzPGnFNgBgFR+vyXUBALhE7owVyJ3XbAPPyfs5eQcAHJ+P6aN4zAPs8oxBMuDev3/Pg0nAIj7+kzg+Fx7OBID9mGDCCs+YO8dv59AEEADgZz5ek+sCAHCJ3BkrkDvjTLyfk3cAwPH5mD6KxzzALs8YJAMuPpzEg0nAffn4T+L4XHg4EwD2Y4IJKzxj7hzjBCaYAOCSj9fkugAAXCJ3xgrkzjgT7+fkHQBwfD6mj+IxD7DLMwbJgFOyxINJwBo+/pM4PhcezgSA/ZhgwgrPmDt/9tlnTDABQMHHa3JdAAAukTtjBXJnnIn3c/IOADg+H9NH8ZgH2OUZg2TAHe3BJP1Ewvfff+9/Bp6Sj//3TByf8VxQm+7pu++++7GswsOZALAfE0xY4Rlz548//vhQE0yKmZ4tNgTwuny8vmeu++HDh7vngarz3vnqPdy7Tc+6nwBwRuTOWIHc+Xbkzsfh/fzeeYeoPyiGvqfV81rXUJ+/d5uecT8BPD8f00fxmAfY5RmDZLwGBVF6iEiJjkpMft69e/fDF198Mb0ZO9aL35qp8sknn1y8pnoGBVjxta+//vrHv4+2xDbEB5yq9aLZMnrt888/v6g/JnpZfTM6LmqfPs036lQ9+psHkdruaJOWB/by8f/axFF9c5zzOk/9XBjnfeemgs6ZeL7Ffj/OD9WnenWOVOeHKGnNzk+1UedMpz2DllXbxra9jLZ0z3kdj2o/Bx7OBID9mGDCCvfKnT1PinGT/l/xwfv37321n8T4IYtDRol5kmSv7c2TvM5smRgHVXGYipb96quvQk3bRrwZ8yTFZVkc6HEWgPPx8bqT61ZjxywXvCa3FI318VucvGj7Gt869W7l0NqvmENru9nYKdXYfct+juPqdaqozr3XAwDAfZA7YwVy51/WmS1D7vwavJ938w6p+oz6g96r2TzbHrNcJp4T185rDdqOzkn15dF2/Vf/Vh/OHjBVrpLlRNfsp2g7Y97c69R+6rXZuAEA4mP6KB7zALvcK0gGhixJmRUtlwV8vlxVYuCnpCK+NpKjLOCMiZOCv+q1rWXUdq87Kwr4OrScr+tF+zNuhse/kzjhGj7+dxPHSAnPnnPebwA4nV9xnXG+ZQmVl/jQt48JWem0R3Sud/dRRUnn7AF08f3Jlq+OBQCgxgQTVrg1d96bJ6lkN6I9fqiK5wbZa1ldszzJ68yWGR8Y081urzsryn86D/roWPi6XhR/jbo8BwRwPj5ed3JdHxdF44qPKVnp5pZaJptorUp13yzyvHFMOHba7Q9y+ute1PbOfuq4de5xjRLvdQEAHoPcGSuQO/+yzmwZcufX4P28m3dIPO6jzyjO7vT9bux8zbzWVqzv54PaoQcvt7YT+514DpMVbauzn9q+9+VZ6c7ZAzgnH9NH8ZgH2OXWIBmIOsFXVTwQ8ter4klOfE1JSJWIzBKn7OEnX0aJU+fBr1i2bqZfc9M6/s2PBdDh4383cRT1wexTbZ0yOx88KdO/q3PZy0jw9oxHWmem+xC2F21/ljh6EsvDmQBwH0wwYYVbcmfFA7O4ZPaa50keP1TFcwN/zWOMUWZ5ktdZLdOdTMi2mbk1T1IBcD4+XndyXR9jNZ7tyXm3csu942MsWb44+Jiuf3fHzpFD72lbZz/3TI7GercmgwEA90PujBXInX9ZZ7XMnvjLt5npxn8q5M734f28m3dIPO5jLmnPh7i8z7tHzWvpAeNu7D8eSt7Ttq391Pb3nEejdB/8BHA+PqaP4jEPsMstQTLgPCBTMKRkwb/JTt+y58uq+Kf1VbRsXEZB2HhNxW/aemAVA7Lxs036b3wwzJOiLMHxZRQgj7oVdKqdoy16KCwLBmc3r7MET+1UPSM4VP1xOT+GWcIHbPHxv5s4StZv1e/Vb8c5On6CwZdTqR7Q9MQsJnZ6SHN8C0h1rmmcGOvotXh+6r/ZTYrqpwyyGxTjnI9jm9ri45XK7Lz0czibbPNjl41PAIBLTDBhhVty5+zBnpEnjVhfsYRioGxZz6eyPEnxyZ48Kd7wHxNOW3lSFtf4MjFP0v938qTZjX/fT5WtPMknBbJ2A3h9Pl53cl3P0bJcdIw9Gv+yMbvKc8XHp+y+merPvuHGv2km8rzR2z3qH3mr160ceVwXPIfWulkOneWvgx/HsQ2/TmXHb3ZNAADcF7kzViB3znNQX4bc+TV4P+/mHeLvV5zTijmC3r/qAcjsp8JlNq8V+3w1fzceosx4rD+bi8u+dMX7oM4ltUNt1j77fs76vf7u54nKmL+LxetVoc8DyPiYPorHPMAutwTJgPOgRsHPjAdC2adfPGHZejDJ26Aykq1KZxu+zCgK3KqgUMGkL189AOafhpoFvv7gWmwLsJeP/93EMUt69G+/mTHo7560VX22Ot+qSa5q+Vl7PCmszrnsfJuNJ9nPkFQJsh+PrF5PjLPxCQBwiQkmrHBL7uyxwdb13GOETp5UxVWDt0FFOUgWfwydbfgyoygHq/KkLI6s4jzPGbM2DFnctrUOgNfl43Un1/XxV0XjVTVGiT+4qHErk90jml0Psl+DqO4ped44StXuLG9VUdurHNofgKhy6Oy6kF3HhuzBg637iQCA+yB3xgrkzvk2fJlRyJ2Pzft5N+8QP/4qs2+SV3/w91nzXJnsPZ714Sw/qPqln3cqe+biRlE+kW1Df/M58yo/yPKg6hyRbPmq3QDOy8f0UTzmAXa5JUgGIgUvMZiZfUvkMG40K5hUMJcFV56wbCVjHlSpzAJO6WzDl1GZfVpn8Jv0nbpn34YwZAEkiROu4eN/N3H0PjhLGiNP3LJ1/JxQyW6sRJ6sqczO/e6Y5RNQnfPME+SqHX4ssuX8OGdjCADgEhNMWOHa3Nm/raCKOaIxATPypOz67/HSVowSlx2leshn6GzDlxllK5/p5Eker3Xyr+zbQrJ2A3h9Pl53cl3P0arxKcoeusz4+NQZ0zpjpXjeqFJN1A4+0a+S5eeDj8nVQ6h+DLdyefEHDzrXSgDA7cidsQK5c74NX2aUe8SDHqd14kyPTat2Y877eTfvED/+KtkcUeQPXVbv2TXzWj7HVrXF432V2Tni/VNFfXTG+2eW23gOoTJ7MHPwc7GTrwA4Fx/TR/GYB9jl2iAZcFlwVQVue3iQlCUekbeh+iR/1NmGL1Mt5zxQztrjyVUnEMxu/neCa8D5+N9NHD3p6Z7vfi5l/d2XUZlNEoknhJ2bN76NjBI8tUdF5/NWO8QnxqqxwtucHcNuXQCAnzHBhBWuzZ2zuL1zs3iLx0tbuYC3YWt56Wwj278svnOduv3bFbJcyvmEXlU3gNfn43Un1/UcrTOxLZ4fV3njyC01eTmbwBx8rKzGQc8bVapfcBh8X++RQ/u9wa1J18j3oXN8AAC3IXfGCuTO+TrZ/pE7H5/3827eIdcc/268fY95rewLleQeecRW3+/0e3+As9PvB9+HTs4H4Dx8TB/FYx5gl2uDZCDjN6P1707AN+MB2NaDSXFZlSp4jDrb8GVUOvvm62UBpAeB3RvQ13zyCXA+/ncSxyxx3yN+Ai9LHv28qb6RI/IbENkn6Zx/ErBzTnd4EpuNKeLnvvbbdesCAPyMCSascEvu7DGHSjfmr3i8tJUL+PY7MUV3G153FtM4rzu7me+xUndizj/8VrUbwGvz8bqT6/q4053g8/U642CHj5XVeOZ5YyeH9jZ3rgtxeRV/ANQ/oFy1N+P72snpAQC3IXfGCuTO9Ta87k7M6HWTOz8X7+fdvEO8P3Tms8XXuxfPKaq+7/2tE7d7m7f6fqffe/+t2pvxfb11nAHwWnxMH8VjHmCXW4JkwHkgpKIHrxTUXPupEw/AtoIr337nYavONnwZlQ5fL0tuPOH0m9sVDx6zuoEtPv53Ekfv152Jn8iTN+f1d/q2nw+dRNbbsZUQbhmfRvSxMBtTpLN936+qLgDAz5hgwgq35M7+IRKVe+dJW/GSbz+LO1x3G153Z5+8bhXXiZUy/u0JVbsBvDYfrzu5ro873fzL1+uOV5WRW3bHM88bq+UiX6czIancf7afXmf3+A179wEAcBtyZ6xA7lxvw+vu7JPXreKujUW7sSZq3s+7eYf4+9p933y9W2lO+pZ5rWq5yNfZ6vudL4jxOrvHT/y86uwDgPPwMX0Uj3mAXW4JkgGnByH92zNjUaCkAGdlgOTb7Ohsw5fpPozm62XJzTVtllu+kQAYfPzvJI7e93Teq/91i48TPib4edP55J1PAnmdmb3Jm5JU3bBQe7L9qEo2pkhn+75fVV0AgJ8xwYQVbsmddVN5Fjcot1B8kcUCFY+XtnIB32ZHdxtxmexb0TNed9YmP2adD96J1519wwKA1+fjdSfX9Ryt88Ci+Hpb4/nILZXfaV3/0G5VqnH4mrzR19lqs2ztp//Ci/bL7wfMSly3ez0BAFyP3BkrkDvX24jLdGMdrztrkx8zcufH8X7ezTvE39etBxYHX2+L+oNi/0fOazlfp8Pb43w/ND54flEV/9BZ9xcTAJyDj+mjeMwD7HJLkAxkFOR1biprGQV2W98S6clBFQwOvp2OzjZ8mSq5cr5e1qat1yted7dNQOTjfydx9EmcW4snb963s3PSeZu8zownhLN1vP49pWp/Z/u+3aouAMDPmGDCCrfmzt08STeXdcN8b560lQv4djq62+gs47zurE1br1c6dQN4fT5ed3LdTo6W8fVmeZseyvSJxG6pxthr8kZfp7Ovvp++jr9+awEArEXujBXInettdJZxXnfWpq3XK526Mef9vJt3yLXH3tfzmHzQw57Zt9F2S5VTeMxfbT/ydTq8Pc5fv6V0z0cA5+Bj+ige8wC73BokAxUFY/oK9M4NZ30ipfoklycHVTA4eN0dnW34Mt1AzdfL2rT1esXr7rYJiHz87ySOPolza/Hkzft2dk46b5PXmfGEMFtHf5vdDMq+NdSXr9rf2b7vV1UXAOBnTDBhhXvlznvyJMUK3TxpKxfwuju62+gs47zurE1br1c6dQN4fT5ed3LdTo6W8fWyvE0PDvhyXjy39G90qcZY/3WLbPvOc83Ovnr7fR1//dYCAFiL3BkrkDvX2+gs47zurE1br1c6dWPO+3k375Brj72v5zG5rJzX8p8/z7bvPE/o8DY7f/2W0j0fAZyDj+mjeMwD7HKvIBmo6JM5ukm8lUTphnP2le2eHFTB4HBNMNXZhi9zbd3ZevF1lS6vm58cwDV8/O8kjj6Jo/NX/fHa4ue+9+3snHTeJtWxxRNCX6f6GRWt58tG3paq/Vvbl25dAICfMcGEFe6dO3fzJL3msZJ4vJTlGZHX29HdRmcZ53Vnbdp6vdKpG8Dr8/G6k+t2crRMZz1fRkX3cWY/ne7jWTXG+nKdvNFzzeqBhsj3wa9P/rq2EXP/vQUAsBa5M1Ygd6630VnGed1Zm7Zer3Tqxpz3827eIdce+631ZvNas5jf84Mqp/DlOnF7zBPUto64Dc1BOt8/5VWeT3TL7LgAOB8f00fxmAfY5d5BMrBFAY4HbqMouXKeHFTB4BCXvTa5ybbhy1xbd7ZefF2lSz+Fde26wODjfydx9HM469e38PMmOyedt0l1bPGJI5edY7OJs8HbUrXft5+1uVsXAOBnTDBhhdW5s/Kk6qdu9UsDzuOlrXjM6+zobqOzjPO6s5vzfiy6N8u97u7+AngtPl53ct1OjpbZWk/jl49LndzOx7NqjPXlOnV7rultzvh+On+90w4AwNshd8YK5M71NjrLOK+b3Pm5eD/v5h1y7bHfWi+b1+rE+p4fVLG8L9ep2/OEjrh8dr5cs48A0OFj+ige8wC7rA6SgYr/5JJK9s2PnhxUweAQl82SlExnG75MFghmOuv5V8Xrp646PABWAfby8b+TOPr5m31q7RZ+3mTnpPPzoZOIbSWE/vMM2RiV+eKLL1rt9+1nbfb9quoCAPyMCSas8KjcWR8Eidd+lSyv8XgpyzMir7Oju43OMq5TdydWynj81N1fAK/Fx+tOrnvtuLO1XjYuZd/s5HxiNRsrxcfUTt7obfI2Z3w/nefQnXYAAN4OuTNWIHeut9FZxnXq9hitE9eJx4Pd/cXPvJ938w659thvref9oTt/p4eb43pVLO/9ptPfvE0dcfms3/vceqcdANDhY/ooHvMAuzwqSAYy/gCTij+Y6IlHFQwOXl9HZxu+TBYIZjrreVCqB986PPDs7i8Q+fjfSRyzb/3oTCx1+XmTnZNuRULor2vM2pL9ZETVfq8/a7PvV1UXAOBnTDBhhUfmzn79V/FvvvB4KcszIq+vo7uNzjKuU7fHSnpIqUMTD9fsL4DX4uN1J9f1cSfL0TJb6/m4nn2rU8brzcZK8TG1kzd6m7zNGW+P6z5MCgB4DuTOWIHcud5GZxnXqdtjNHLnx/F+3s075Npjv7XeNf1hz7yWn3f3yCMycfms33cfJgWAvXxMH8VjHmCXRwbJeG0K3BSAKcjr/Ozv4MG/B3GeeGwFV3HZboDX2YYvkwWCmc56/pBq5yZ99nCcCrCXj//dxNEfDs7Om4rGCH8QO/LzplP3ioTQX+88OO2TUSrVQ51ef9Zm36/OsQCAs2OCCSvckjtfkydtxQkeL2V5RuTxSUd3G6vq9jiokycpxvT2dNsE4LX4eN3JdbfG3srWej6e6Rsmt/g4qZKNleLLdvJGb5O3OeP76bIxeJb7R1puz3USAHA7cmesQO5cb2NV3R7XkTs/jvfzbt4h1x77rfX8nOjMa3kfUqlyCl/Wz7mMt6kjLp/1e/+Fv+4v34na7A9yA8DgY/ooHvMAu9wSJAODB/H6dE0nqPGkIgvIfJmt4GqrvoxvIws4fZksEMx01vMHLTvHzz8RNAqwl4//3cQxS3w6354ZH0bWw9lZYujnTfVwY7QiIfSfZNu6qaGx0B9aHfuZ8e1nbfb9ysYnAMAlJpiwwrW5s3/zwFacL54fqHic5fGStuPLRF5fh28jy2VkVd2eZ6psHT/yJACDj9edXLeTo2W21vMP8WU/uRlpPPcPM8/GMx9TO3mj55re5ozvZ2ZvHi2+v1qn+1AnAOB65M5Ygdw5z29lVd3kzm/H+3k375Brj/3Wev7ebsXj6it+/qlkfU1W5RGu0xafj+t8S2jcX/2388E5AOfiY/ooHvMAu1wbJAPOb752HtTyG83ZA0xZcpU9zDX4sh2e3GQ3sbUv96i7G0DOjp8f61G2bu4DGR//u4mjeL/VOVz1W/EHOlWyxK173kSeEHY+XbuVEHqdKtX+aXsxoeus59vPjoW3IRufAACXmGDCCtfmzh67b00EiccI2QfUssmXWZzgy3Z0Y7KVdXvOOPsg2zjWWSwG4Hx8vO7kuj7+zsbVyNfz3M7HPJUqZ9UYN3LtbDzzusXr77Tbc82sXhf3M7uHJ9n1aWvC06+Vs3tiAID7IXfGCuTOdX67sm5y57fh/bybd4gf+048Lr6e8zhfpTqXNGc3m9fKeP2ddvu52hGXr77AJZtznD1D4B8KU9l6eBXA+fiYPorHPMAu1wbJgPMEIQY1+qSKkoDxE0UK3Dz4Uak+0eLLKcFSHSp+g9eX7fC2V4nZPequEqcsgFQgrOOn9uh17Wu8Qe/fvFDVDcz4+N9NHKXqt0qUdK7rvNd/9W9PvlT8/B26503kCWF1HkfeJpfduBmfpNO+qZ3ajk9QZQ9za50xFg6+/SyJvWa/AODsmGDCCtfmztmHzVQUB2R5kscHKtVNaP+gzOo8qYrJVtat4+L1Kx7T8lmepOLHXMsDOB8frzu57rX5l4/dntspR/QxW0X3fEburGuC/h0nR/V3v382xr+4DR9Tq+tG5Pvqbc7E/cwefhj84Qpvt6572fg9SvXgKgDgvsidsQK5c53frqyb3PlteD/v5h3ifbgTj4u/z87f1/Hebs1rZfNh2byW5xGd2N33tcPbUfHz29ud5Vqj6N98Yz8A52P6KB7zALtcGyQDmfgJm71lFlh50OYlmr1W8eSmuvl+j7qrxEmyB92qomB3T91Axcf/buI4xG+M3FN0zlef1vO+3fnkmieEnUTWx5aM1zsrY/JMfAJtlHie+vazNvv2q/EJAPAzJpiwwi2587XxksosT/KfqvISzV6reExW5Rsr65Y9edL4hoRu3QBel4/XnVz32vyrk9v5uLdVRh3Zg46jVHV32u37mrXZ+X7O6OEIb2+nzL7pBgBwX+TOWIHcuc5BV9Yt5M6P5/28m3eIx9adeFz8vcx4rD8rOufGXF32oKNK7Bted6fdvq8d1fad2u71d0qczwOAyMf0UTzmAXa5JUgGMtmn+mdFwc/WTePsa8ZjiWavVTy5qdoTl5l9Q0Dkdc8CSNl6wFXbHZ9C2ls3kPHxv5s4RvpkWTf56Zzz3re3lpeVCaHXnRWdmzGR0zHJxq14nvr2szb7tjvHAgDOjgkmrHBr7vwKeVKVb6yse+jkSfGBnj11A3hNPl53cl3PvzrfAiOd3E46Dxzo9Tiezcb6wcfUreuH+L5WbY58P7eozq39HSXe7wIAPAa5M1Ygd65z0JV1D+TOj+X9vJt3iMfW1ZeZOH9PKx7vZ8XntfT/Wf+JfcPrXZFHSLX9iv/a5KyoPh7MBFDxMX0Uj3mAXW4NkoGKHkwaP2XsgZySIP19z6fhFZSOrx3X+irjJ78j/TuWDrU1rlMFknGZbtu97j3raVkdw6pdnpTNPhkIVHz87yaOGfVJ9VX1xZFs6fzX/+t83dP/O+dkNLY9SuenCNSeuM7MaFMc0/T/s7FM45ZeG8fDxwDfftZm36/OsQCAs2OCCSvcK3fu5kndm/LyqDypinlW1u3Gz9jtyZM638IO4PX4eN3JdT3/ynK0TCe3GzS+axmN9+Obacb4r79n47/+NsY+LTfGwMHHVB8XM9fsq+9nx2i7lh/XqrjPypc77QUA3B+5M1Ygd67z25V1O3Lnx/B+3s075JrYWvb0Iz2A6OfR1ryW+s5sXutReURcvmqrG23XOjHfGvusY9FpL4Bz8zF9FI95gF3uFSQDeDxPnLrBKRD5+N9NHAEAeFZMMGEFcufj8DxJE3AAzsfHa3JdAAAukTtjBXLn4yB3vp33c/IOADg+H9NH8ZgH2IUgGTguPYwZEyc+7YNr+PhP4ggAODommLACufNxeJ7ET1UB5+TjNbkuAACXyJ2xArnzcZA73877OXkHAByfj+mjeMwD7EKQDLw9/eyCf61851swx9exq+j/gWv4+E/iCAA4OiaYsAK58+NdmydpefIkAD5ek+sCAHCJ3BkrkDs/Hrnz2/F+Tt4BAMfnY/ooHvMAuxAkA88hJkEqSqCqT6np7+/evbtY/ssvv/TFgBYf/0kcAQBHxwQTViB3fhueJ6m8f//eF/uRfknAl//88899MQAn4eM1uS4AAJfInbECufPb8FyY3PkxvJ+TdwDA8fmYPorHPMAuBMnAc/j2229/kTjpAU0lT3pNRfQQpi+nT7Tpk3HANXz8J3EEABwdE0xYgdz5bWjSyPOfKk8a3xBCngRAfLwm1wUA4BK5M1Ygd34b5M5vw/s5eQcAHJ+P6aN4zAPsQpAMPA99Ms2Tp06pvmET6PDxn8QRAHB0TDBhBXLnt3NtnjQmnwCck4/X5LoAAFwid8YK5M5vh9z58byfk3cAwPH5mD6KxzzALgTJwHPJPrVWFS339ddfexXALj7+kzgCAI6OCSasQO78tpT3kCcB2MPHa3JdAAAukTtjBXLnt0Xu/Fjez8k7AOD4fEwfxWMeYBeCZOD56OcD9JDmp59++otkSUV/J2HCvfj4T+IIADg6JpiwArnz29vKk969e0eeBOAnPl6T6wIAcIncGSuQO789cufH8X5O3gEAx+dj+ige8wC7ECQDz0+JlH5WQP8F7s3HfxJHAMDRMcGEFcidn8/Ikz58+OAvAcAvxmtyXQAALpE7YwVy5+dD7ryO93PyDgA4Ph/TR/GYB9iFIBkAzs3HfxJHAMDRMcGEFcidAeBYfLwm1wUA4BK5M1Ygd8aZeD8n7wCA4/MxfRSPeYBdCJIB4Nx8/CdxBAAcHRNMWIHcGQCOxcdrcl0AAC6RO2MFcmecifdz8g4AOD4f00fxmAfYhSAZAM7Nx38SRwDA0THBhBXInQHgWHy8JtcFAOASuTNWIHfGmXg/J+8AgOPzMX0Uj3mAXQiSAeDcfPwncQQAHB0TTFiB3BkAjsXHa3JdAAAukTtjBXJnnIn3c/IOADg+H9NH8ZgH2IUgGQDOzcd/EkcAwNExwYQVyJ0B4Fh8vCbXBQDgErkzViB3xpl4PyfvAIDj8zF9FI95gF0IkgHg3Hz8J3EEABwdE0xYgdwZAI7Fx2tyXQAALpE7YwVyZ5yJ93PyDgA4Ph/TR/GYB9iFIBkAzs3HfxJHAMDRMcGEFcidAeBYfLwm1wUA4BK5M1Ygd8aZeD8n7wCA4/MxfRSPeYBdCJIB4Nx8/CdxBAAcHRNMWIHcGQCOxcdrcl0AAC6RO2MFcmecifdz8g4AOD4f00fxmAfYhSAZAM7Nx38SRwDA0THBhBXInQHgWHy8JtcFAOASuTNWIHfGmXg/J+8AgOPzMX0Uj3mAXQiSAeDcfPwncQQAHB0TTFiB3BkAjsXHa3JdAAAukTtjBXJnnIn3c/IOADg+H9NH8ZgH2IUgGQDOzcd/EkcAwNExwYQVyJ0B4Fh8vCbXBQDgErkzViB3xpl4PyfvAIDj8zF9FI95gF0IkgHg3Hz8J3EEABwdE0xYgdwZAI7Fx2tyXQAALpE7YwVyZ5yJ93PyDgA4Ph/TR/GYB9iFIBkAzs3HfxJHAMDRMcGEFcidAeBYfLwm1wUA4BK5M1Ygd8aZeD8n7wCA4/MxfRSPeYBdCJIB4Nx8/CdxBAAcHRNMWIHcGQCOxcdrcl0AAC6RO2MFcmecifdz8g4AOD4f00fxmAfYhSAZAM7Nx38SRwDA0THBhBXInQHgWHy8JtcFAOASuTNWIHfGmXg/J+8AgOPzMX0Uj3mAXQiSAeDcfPwncQQAHB0TTFiB3BkAjsXHa3JdAAAukTtjBXJnnIn3c/IOADg+H9NH8ZgH2IUgGQDOzcd/EkcAwNExwYQVyJ0B4Fh8vCbXBQDgErkzViB3xpl4PyfvAIDj8zF9FI95gF0IkgHg3Hz8J3EEABwdE0xYgdwZAI7Fx2tyXQAALpE7YwVyZ5yJ93PyDgA4Ph/TR/GYB9iFIBkAzs3HfxJHAMDRMcGEFcidAeBYfLwm1wUA4BK5M1Ygd8aZeD8n7wCA4/MxfRSPeYBdCJIB4Nx8/CdxBAAcHRNMWIHcGQCOxcdrcl0AAC6RO2MFcmecifdz8g4AOD4f00fxmAfYhSAZAM7Nx38SRwDA0THBhBXInQHgWHy8JtcFAOASuTNWIHfGmXg/J+8AgOPzMX0Uj3mAXQiSAeDcfPwncQQAHB0TTFiB3BkAjsXHa3JdAAAukTtjBXJnnIn3c/IOADg+H9NH8ZgH2IUgGQDOzcd/EkcAwNExwYQVyJ0B4Fh8vCbXBQDgErkzViB3xpl4PyfvAIDj8zF9FI95gF0IkgHg3Hz8J3EEABwdE0xYgdwZAI7Fx2tyXQAALpE7YwVyZ5yJ93PyDgA4Ph/TR/GYB9iFIBkAzs3HfxJHAMDRMcGEFcidAeBYfLwm1wUA4BK5M1Ygd8aZeD8n7wCA4/MxfRSPeYBdCJIB4Nx8/CdxBAAcHRNMWIHcGQCOxcdrcl0AAC6RO2MFcmecifdz8g4AOD4f00fxmAfYhSAZAM7Nx38SRwDA0THBhBXInQHgWHy8JtcFAOASuTNWIHfGmXg/J+8AgOPzMX0Uj3mAXQiSAeDcfPwncQQAHB0TTFiB3BkAjsXHa3JdAAAukTtjBXJnnIn3c/IOADg+H9NH8ZgH2IUgGQDOzcd/EkcAwNExwYQVyJ0B4Fh8vCbXBQDgErkzViB3xpl4PyfvAIDj8zF9FI95gF0IkoEffvjw4cMPX3755U/l22+/9UWAl+XjP4kjXsXXX399MbZrrAdwDkwwYYUz5s6eJ+naCgBH4eP1ylzXc4+39v333//w1Vdf/dgW/Vf3ub777jtf7HC0H9y/uw+u8QCE3BkrkDtzXT0T7+er844tsR8+Q14CAEfkY/ooHvMAu5wxSAacbuZ+9NFHPxUCVpyJj/9vmTgC9/Tpp59ejO1M3AHnwQQTVjhj7ux5kq6tAHAUPl6vzHU993hLuqf18ccfX7TnVcZw7Rv37+6DazwAIXfGCuTOXFfPxPv56rxji+cAAID9fEwfxWMeYJczBsmA88SJm7s4Ex//3zJxBO7JJ0h5OBM4DyaYsMIZc2fPk5hgAnAkPl6vzHU993irb6nUtzT5hOwrjeErHs70a12nfPLJJz8ez88///zHY37EX2nw/X6F/gFgP3JnrEDuzHX1TLyfr847tnjcikuet6m8f//eF2vhvAdel4/po3jMA+xyxiAZx6OfY1KQo7LihqcHUPe4uQschY//b5k4AvfkiTYPZwLnwQQTVnjW3HnkSSseBPI8iRvNAI7Ex+uVue6z5B56aDC2Y4zdKl988YUvfjh7Hs7UdbFzffRr3bXl3bt3b/a+R/Eeqv6/4vvNNR44J3JnrEDuzHX1TLyfr847tniMegZ6bqAT/4rnbSrKobbWy2gs4bwHXpOP6aN4zAPs8qxBMhDFxGZ24/Va8calyooHQIFn5eP/WyaOwD15ov0ME2UAHoMJJqzwjLlzvBG84iaw50krJrEAYBUfr1fmus+Qe/i3ZuqnzV9t3N7zcGb3+ugPU9xa9BDsNZO79xKP0awf+n5vHScAr4ncGSuQO5M7n4n389V5xxaPTc9A32bfiX/F87ZRrv0gG/E08Jp8TB/FYx5gl2cMkgEXbyzObrwC2M/H/7dMHIF78kR7KzEH8DqYYMIKz5g7f/XVV9wEBoCCj9crc91nyD38wUVNUr4a38fqHuGeBzD8IcXx/mVF111tUyVOAnup2vUIn3322cV+VHy/t44TgNdE7owVyJ1xJt7PV+cdWzwuPQN9g30n/hXP22K55qHquD5jC/A6fEwfxWMeYJdnDJIBF28svuUNTuAV+fj/lokjcE+eaG8l5gBeBxNMWOEZc+f4YAg3gQHgko/XK3PdZ8g9/MHF9+/f+yKH5/tY3SOM3yK6dX30hxRVuvTLO9VDmtdM7t6DvjF1tGHWD32/t44TgNdE7owVyJ1xJt7PV+cdW84W3+lba+M+z+Jf8bwtFj3kudfZjjdwFj6mj+IxD7DLMwbJgPvkk09+Cm6qG68AruPj/1smjsA9eaK9lZgDeB1MMGGFZ8yd47cDcBMYAC75eL0y132G3MMfXHyLNqzm+1jdI9zzAIY/pKiylx7SjA9FquiD5o+mdnT7gO/31nEC8JrInbECuTPOxPv56rxjy9niO49pZ/GvxLxN40J8/kBF37K7x9mON3AWPqaP4jEPsMszBsl4HbopOH7uJxYFN1ufIFcANUoMbnSDNb4W69EnZOJr2v4wPs2u4OiLL764CNBm63WX0d+0b7r5qm2ojH3Vunupfn3LgdqqdutT/75N0f7HdgF7+fjfTRy978V+rr6qvu/ng/r0NeeDjHNsnMej6BzR36/t/2pP/GmyWK6tsxr7VGZjn9abjTMZH5u6bfb3b0avawxS++OxH+/rbJ8i37/YF/Tv0V9U52zftazes9gX1A/Uxkh/35OYA3gdTDBhhXvmzlWs0MmT4jU8Xud0UzleZ72e6rU9eZLXmS3j13Cto32LceGI33zZDm1v5EmqkzwJQMXH626uG2n8WJl7aKzSmObjpLan7WbjWxTHOv8GR62/NYYPMS+O+Z7aNK5P3Vz+2vG3s57aEvdR/x7i+vEBDL8+et36d6xT5Rrx51LHdjtGTKB+FY+93k/93fuai9dhb4P3gdiffL+1zUjbjW0afcGPH4BjI3fGCuTOv6wzW8bjPHLnY/J+fm3eIWMOxsueebVZfKf3V/XFmHNv/dHo0zofs1i26nOZ2A/j+aNtjDaPOuO5tJUD+X6pnnh8tO9xfX3gyteZmR3vmfFex/N9vB97znktN9tfvT7mavUeaX9ndY8+Mto1coBrf5VB9WVzi/G9BJ6Rj+mjeMwD7HLPIBkYRpISg5Ks6BMpWi5LVHzZqsRgRxf5+Jou9uI3J+Nrs/Wiahnta7zpmxUFc1q/Q8fCP6kTi7YV2xc/md+98QtEPv53E8eYxKiMPq4A3/utF533XTp/Z+eE1ztLLKKR1Pm3W3jR60pAOslHd+xTndnY54lg55s2tA9ef+cYxP3W/2fUvq3xLbZ1K5Hyto5k0fvSeM1p2a32aF/GcfV6szoBvCYmmLDCPXLnbqwwy5P8+lYVvymcvRZ/9nWUWZ7kdWbLjDivusbHcs88Sa/Ftvu2AZyPj9fdXFdW5x6de0mjzPJn3+6sZGO42t+5Lqlof5Wfb/E2dXXW85xyNu7PSuTXMX+9a289OvbdNusaVz2kmW23KrNr/Hht63qronZv5f8AjoHcGSuQO/+yzmwZcufX4P18b94h6l+z92wUvVdb8bgvL50+ptwkO48qasfW3NooW20Wb5+oz/s2tJyfS7Pi503czjg+mtuK63Tm5Ya4Xnbeu86c5Cid+U7Pj8ax3upTei3G850+MstL3dY4FEunfwCP5mP6KB7zALvcI0gGok7C5CXe0B58marEYEfBQ3xNQYk/7BRfGzyQi69Vy2g/OzfrY/Eg0GWBZlVGG+PfOoEf4Hz87yaOHqir/2Y3KarSCeSvGU9UfDxxexLHWKrJEOk8lOpFbYh1+hhWPTQZ+fugMmun6PjE5bP3Inuofaso2ZqNc54oatnqPfZ69iRz45rix8brBPC6mGDCCrfmztfGCh7X+PWtKp4b+Gue34wyy5O8zmqZe+dJOgbd2G3ENb48gPPx8bqb667OPXSfyseoraIxNXsYzrc7Kz6Ga6JvbztUtiYrvU1dft3IeE45e7BgViK/jvnre3g9fg0f9lzXYskmLrP2V2V2jddre/qET+gCOCZyZ6xA7vzLOqtlyJ2Pz/v5qrwje+8ycbm9fSw7j1znIb6sbH25h9epZb1vqszOyaz4ORO3M87TLAb29Spxney8j6q5sFlRu2bHLcuPuscn5nV+/KuylQuKt6lTZn0aeAs+po/iMQ+wy61BMhBlF1wFfbqo6gbi+Ar9LBD0AEN1qXiwogBhvKbiDyH5slVgO0uc4mvVMqo77of+rX3Tfmr9LJCZBWbZQ6Q6Jgp0qmPnD8LN6gcqPv53E0fv4/HTZeq741wdX5nvyY3KLODOHg6M54TOSf03u1kz+xZZfzBRRePE+Hr+UW/V5uwbNLPzd3xqd7S1GhdU4qfffJnZJ+P8Yc5RZsdVfKz2cTQ79uMYxf2pjlGVwPt2s+2M4slvNpaPPjbeM+33WE7t8nW8TgCviwkmrHBL7pxd866NFcbPAXmepPr25ElZTqYyy5OyfCNbJsaF2k7Mk/wbCap6h2xyaW+eNIsNAbwuH6+7ua7nEWOc8txjjE17co8sdxz1q84xhnt9YzueH45rQnYNifVl14XsOjDGbC2rtmq9bDmvK/J2dPk2MmpPXCZes+KxiMv49TGuI34dq7a9Re+N15NNpGaTvyqjj+m4j33JlvN8W/V1+0Dsl77f8Vrq93SyulX8WAI4HnJnrEDunOe42TLkzsfn/bybdyhOzGJ+jwnjnEcs1RyQ1xX7/6i7OjfGMjNZW7ROzCH0/9k5Oqvbl8/m/UYdMf719nj86/lT3E5sj489qjeL5Z23rZLtTza2Zef97IFIb7e2E/PUUX9Vt96v2A98HPLjq+LHNMr2c+QWek11xjbGwviDZ+Jj+ige8wC73BIkA84vpLOAIbsZqYu984QlJjyZuGysX8FFFTB0tuHLxG1kD2uJB0UqfhN18MAzu+k+ZAGzyizwAyo+/ncSR/E+O4oC6CxpqT6hly0rvqySgEr2zSPZeCKegGi9qg3i+5mdZ56gzJKILOlWMjL4uOE3h6I4sRf3f3asxPcp7n/2icTqPZXspk91Y0Bja1wutr16vySbwKyOS9XPVKoJUgCvhwkmrHBL7uzXyiyeGLJrcSc/mdUpcdkYi+zJk7Jt+DKjaB+q67VPAKlU1+ksdqtyKvIkAJGP151cNxufqrEsy4VGqcY0zwWr+nUtyCa2Yu7oPN+q2iB7cywfX7XfFc83u/xYZnwfs+ujxGW2rgHZdewa3Xqy97W6Duvvnt/O7rX68Zn1gay9KtpedZ31+xVb91MAPD9yZ6xA7pxvw5cZhdz52Lyfd/MOj6tm7614nFfFYV7nWLaqO8sLqn6e9ceq70q2fNUOzyHGuae/V+uIrzdbVuLy3t897s7GExeX9/oiH6tmy+45btW4Us3p+bkf25W9l9l8WzX/l31YrRqHVK+PWVUbgLfgY/ooHvMAu9wSJAORLqR+wc0u/JEHfdkDRR5YbAVDfiHvrNPZhi8zShZURB60ZA8gZQHLVr1Z0DIL5oCKj/+dxFE86VGpAv5Br/lkVPec2ArKfYKjShC83dXD1UN2k8eTU2/r1vnr394ZJ7b8tWo/JO6zf9rM2xjF+n3c8CR/6z2VbFIy277XPVs28vcsG6Oj7D1TqRJYAK+HCSascEvuHK9HukZtXfs894ixQrWMX9OdXxdVtq6pnW34MqNsXXc713fPMVW24izyJACDj9edXNfHpixfjbJcSCUbA7NJtq08V/XHHHp2r83zrawNg0/KZffjoizHqsZjP4ZdnfV8H7Nrh8Rltq4B2XXsGt7+6kObfk9klvOLty+LCQY/PrM+4PWOuqv+NXj7Z9sA8PzInbECuXO+DV9mlK1rqccYWVvInd+O9/Nu3uFx2+xDWN1d7pEAAIAASURBVIP3hSxX8fdUZauPeW6Q9THxODDbvvOHUKs+5vs2Wzby9bb2NS7v9fvcnMrWedRprz8L0Wmnn5/Ve5KNK7M5vWysUJm9l97+Ks/xflQ9mBl53dUxBB7Nx/RRPOYBdrklSAYiDwAUpFUX/0gX5lkQ4vVWAcgQlx3t2NLZhi+jMvu0+tAJsD047dSbBYkELbiGj/+dxFE86VHZetBRvL9ngbz6t84dBfPaTuec8Ac6q/PB27yVHIjq1hhQ3QyK9XVuGskY+7JxMia5szEsPvytYx8TtmqSz8cyT7p8wq2qx3nilU0w+Xioko2Jkb+vKtkxc94eldm1BsBrYYIJK1ybO3vcvjdPqpb1a3oV+wx+Xey0o7MN379qOecPKWXxni+TxY3u2vYAeD0+Xm/luqtzj2smM8XHwipH83wra8OgOrS8xkeVTi7v+1mt4/cKujrr+T5m9+8kLrN1DfBrXbXtGb/PMWub/q48eBz7zv0D7zvVOn58Zn0g2++qzZFvo9uPATwncmesQO6cb8P3r1rOeSxI7vxcvJ938g7xh+86MZX6ofrabE7rmvfU+282t+N9LHsQOpM9DJi133OBajnn683iX4nLZ8fGvwQmWybqLKs2KYbWe65ltubExB9azM578fdOpcoXBz9mKltjnC/vsly68/6J55nd9YCVfEwfxWMeYJdrg2Qg4xfe2aczujyw2LpR6G3YWl462/BlVKob0ZGvlwVnHgh1gnDxm7NZ3cAWH/87iaN48qjSOd+zpP9eOvX6+db59NYWPxdvHfs8GckmXjyp1b/jhFCWQItPpMR99/Gqm2CLJ4vZQ6W+bd9+xpP+zo0l8faobCXmAF4HE0xY4Zbc2T/8cGusIH7d3soF/LrYuRnc3YbXfU2elF3jPW7L8rSM/3pB1W4Ar83H661c13OP7tjRyT08f1PZcx3otMvzLW/Drbz+akz2sburs163DXGZ6ngNfj2qtp1Rn/H7ASqdb6Dcw49N9d768amWk2y/O232bXTiCQDPi9wZK5A719vwusmdj8/7eSfvkOzDPVsP1XV4nffqY/7QYjX/lPG5xKx/eh/u9kVfbxb/Slw+24bGG4/vZ3P217S5w9+Tqm5frjOn5/OPnfcyLq/i47K3I5sfrPi6nTEXWM3H9FE85gF2uSVIBpwHQSq3Jk9+Uc6Ctsi3vxWISWcbvoxKZ798vSyA8gSo02bxYDirG9ji438ncRS/Ib+n/11zLnV4vZks6b31AU1PZlRuGft8ci9LoOPE4UiW44OvVfITx2lfxo/NnvdU/Bg47zOdRNHXycbnirenO7YCOD4mmLDCLbmz34hWuSVWkE6eEfn2s/jCdbfhdWcfLHFet4rz/LJ7Lff4oWo3gNfm4/VWrutjxz1zDx/zsgnPGZ8gzHj7vQ238vqr4+Njd1dnvW4b4jJb1wB/b0a9WRnfdqPiD4+Mor/f+9j7sanq9+NTLSe+3538XK59iBnAcyJ3xgrkzvU2vG5y5+Pzft7JOyT7EhOVWx/Q9PpW9bHOeTF4P8u+BdLr7z6g5+tt9f24fNXffX5u9sGruFxV3zX8Panq7i4X+ftR5VTR1nH2OjsPfEZ79wFYzcf0UTzmAXa5JUgGnAcsoyhwUbCloLITCEYeWGwFCb7tKmCKOtvwZbo3LX29LKjwNnd5sJPVDWzx8b+TOIr3v+y8qWwF8hklqxpjfEIkls65pDGomkRRHap/74OaW2OfHnrcU6d/q0qWiMYHQuPrcd+y8TbW6wnSLe+pxHVV/H31+jtjlt+Q29OmrfYAeF1MMGGFW3LnTqyQXbdnOnlG5NvubK+7Da+7w+vO1vOHkbrXcj/eVbsBvDYfr7dyXc8p75l7+Lik8U31d4uPh9m9Ls+3vA0zqk/L63oUf3I7Fm9DdXw83+7y45/xfazaEJfZugZk16Nri47RntxfOsfej2n13vrxqZYT3++t4zRcux6A50TujBXInetteN0dXne2nsdpsxgg8uNdtRs17+edvGPwL+4ZRX9XXLjnAcjB6+ro9DF/vdvHxOvP+pnnAt199/W22hWXz9ox+LxU9kCpbO1XZe98Z1W3H1uf88vsyRkGb4+v43Vqec9pZyWu618qA7wFH9NH8ZgH2OWWIBnI+EU0K7qwKrC8JqlR/TO+rY7ONnyZKhByvl72UOc1bRavu9smIPLxv5s4+rmenTeVrUB+0CSFf0PsnlKpPpUYi85VJTJV25x/e0RWRp2dyZp4jLJvVYk3XGKiGpNG/5Sljxme4N7ynsrWhJHXXyW0kfeVPW3aag+A18UEE1a4NXfuxAq35ElbuYBvq6O7jc4yzuvO2rT1eqVTN4DX5+P1Vq7ruYfnUzM+5nju4bnQrcXrz7aRLeOUm1aTwlulys18uS4//hnfx04btq5L2TVjb9Ex3NNfRPm456zdUr23fnyq5cT3uzORK77e1vEF8NzInbECuXO9jc4yzuvO2rT1eqVTN+a8n3fyjkHzX51YfHz5UUdcb2Uf68xxDV5/1i7PBWZxbLR3vbh81o4h+5KXrO6t/Yr0fvtDn91S1e3HtsqPoj05w7B1nP31Wwvw1nxMH8VjHmCXW4NkIKOLsm7qeeCSFV2wZ0Hl3sDC6+/obMOXqQIh5+tlbdp6veJ1d9sERD7+dxNHD+Cz86bigboH8qK/+Sc+95YZJVe6gdPZhpbRp3KzbyeJlJB2x74xeVPV6T8xHpdT26vX4no+ueLvmW/bE8M976lsva++/U79W3XO3LIugGNjggkr3CN33hMr7M2TtnIBr7+ju43OMs7rztq09XqlUzeA1+fj9Vaue0v+sLWu50K3Fq8/20a2zHDrByFVqnzOl+vyY5jxfey0Yeu6lF0ztM6saLsqesDS8+ott0zKjlK9t358quXE97s6ls7X2zq+AJ4buTNWIHeut9FZxnndWZu2Xq906sac9/NO3hEpNlT/7TykqfNh66HkuPwz9DHx+rNvRvRcYBbHRnvXi8tvHR+fo1O7PfaPr8/qu+WDWbO6/dh2Yvo9OcOwdZz99VsL8NZ8TB/FYx5gl3sEyUBlBJWdm47+ENGwN7CIy2bfNpfpbMOXqQIh5+tlbYqvq3R16ga2+PjfTRw9gM/Om4oH6h7I+89pjKL1tB0trzJLhFS6tL3OzR6dY77NSnfsq8YS/3bP+C2X8dPDft7HccGT3JjgZ9u95T0Vv4Hg7+s19Xtfmd1oc/7grbcHwOtiggkr3DN33pMnVd807blAdm2PvN6O7jY6yzivO2vT1uuVTt0AXp+P11u5rucee/IHH3N8Xc+FlKtoe9eW7JtqfBvehshzN5Ux2avrk9b1bXj9VT7n9Xb58c9c0wbVO/PIa4au/9l9B/1N+6K8X+3xCXc/NtV768enWk58v6tj6Xy9reML4LmRO2MFcud6G51lnNedtWnr9Uqnbsx5P+/kHRXF390vFPFYfYjLPEMfE68/a1c33nV714vLZ+1wXr/HzFv7JR6jx+X1AKjarBLnHjvHTHw5b1/G27N1zMSPg6/jr9+a7wJvzcf0UTzmAXa5Z5AMzCio0E3GWWCpIMTtDSzist0LeGcbvsy1dWfrxddVurKfdwD28vG/mzh6AJ+dNxWdB3FdD+R9jNC//Se4ncaYe5wPSmq1L9lklUp1k2dG+6exr6pTr2XicYjHVw+SztaNdY9JHT8+2Xh7y3sqcV0Vf1+vqd+/zaWzzrDVHgCviwkmrLAydx55UhUrZNe/Tp4ReZ0d3W10lnFed9Ymf737IZlO3QBen4/XW7luzLNUsrG34mOO5x6eC3XHyj18G96GIbuXpH33BwKd118dH6+7y6+BmWvasHWsH3nN8PaPfdi6vm3dQxm8/mo58f2ujqXz9baOL4DnRu6MFcid6210lnFed9Ymf30rthg6dWPO+3kn7+hQbK45HM1HVR/uyd7nuMw9+5ifc7M403n9Wbu68a7bu15cPmuH8y9RUYkPxm7tV/bhLB3LrXZ2jpn4ctkY6PbkDIMfZ88d/fVOO4Bn5mP6KB7zALusDJKBGb/preLfACd7A4u4rH9rXKWzDV+mCoRcZ734ukoWUGc8gFIB9vLxv5s4ev/LHhKseCIXA3k/Z1Q635aYrXerbNJKpXuOZvxhQxUlZ5k4TsaxIyZz2UOrMREax86/jdSTJ/FjWH2jccX3yz+96X0mG2vdNesM3p5OkgngNTDBhBUelTtneVKW1/h1O8szIq+zo7uNzjKuU7fHjN1ruf/0VHd/AbwWH6+3ct2VuYfXnY15t/JteBsG/+ap7BqT8fWq4+PHIss9M75exvex04atY+3Xo2rb9+AfRO1++NPXq95bPz7VcuL7XR1L5+ttHV8Az43cGSuQO9fb6CzjOnWTO78d7+edvGMvzbP4A34q2bzZVl/JeB/LzqM456TS7WPi82xZu66tf+96cfmsHRmPseN61d8Hn5dT8XmzjL8nWd3iy3Viet+frWMmfpxdN1cEjsLH9FE85gF2eVSQDDg93OQJQ3ZB3xtYbNWX6WzDl6kCIddZz4Oa7GGrjAc73f0FIh//u4mjB/BZ367M+q2fMyqdhyE9wfN6r5Xd5OmeoxU/51WyCStP3MQ/qZcdm/jejAcs40OhWXItfuyzB+Yran9cd7Q38j6TjbXObxB1J6/8OKl0kkwAr4EJJqzwyNw5y5P8mu/X7a1YzOvr6G6js4zr1O0xUzbxkMniNwDn4+P1Vq7r+Ur3w2o+nql47uHLVDnZLbz93obBx9buBy39AcEqn/P6q3ZEfnxUMr6PVRviMtn1Jepu+x58O53rmv8Khkp1TP34VMuJ73c31/b1uv0HwHMid8YK5M71NjrLuE7dHn91Ygwhd76d9/NO3nENnytSyeKwrb6S6fQxjzOzX2ar+BeWZO32PjyLY6O968Xls/3MaEzxXGjsf/xbVp8ft24e6OtldYu/d1V+FHndW8dM/Dg7r7NqL3AUPqaP4jEPsMsjg2Schyc/FT3M45/28SBgb2ARl80ChExnG75MN7DorOcPWWaBqcsehFIB9vLxv5s4erCtkj1g6Pyc8GTE683OmYwnR1vnQ6etgyce2Rgh3TqzZC574NMnYXTs4sOK1cOT8RiP4xtvVM3GmLg9le4++UOU2fvm7211HCPvL9W3jDpP+FX8+gLgdTHBhBXukTt3r6vZzx75dcyvkdm1N/LrYkd3G3EZj+0qnbp9oqjzoJTHT6MAOB8fr7dyXR+XuuNZJ/fIxiZf5laeb1X1b11fMtmHIat8zvPnTv3edpWML1e1IS6TXV8if9+rbd+Db6dz/9T3WaU6pr5stZz4fm8dp8HXq94DAMdA7owVyJ3rbcRlurFmp25y57fj/byTd0Tdvi4e62V94Zr3s9PHfP6nmpvK+FxY9vDwNTmE7F0vLp/tZ8WP0fhZ+fi3rD5/z2Zzc0M2rmV1i7erE5t7m7aOmfhxdt4OlU6uAzwrH9NH8ZgH2OUeQTKgC6weMBwBloKyzkU3CzA8EPULehWADH7x7/BtZMGLL7PVjqGznt/k7gS1HjyNAuzl4383ccz6YOfTcj5x5cmInzOdh/H8HBrFxyG1eTykqHo7Px8g/gB1TB712qhTY6Bvs+IJaZUAxaRH7Y9t8WMXxbr9WySzB0EHv5GTjYcZ/5RylmB7n+nW7deJ6lhFfny76wF4DUwwYYVrc+dr8yS/lnnc4jHTVg7h18UO30aWy8iquv2bITqxlk8Y7GkTgNfi4/VWrpvdo+rkED5eV+t5rtX9psIxFmp5jXF+32zwfCtrg/jE2iyvHLJ9rCb9vR1beV923FUy3brjMmPitOLXo2rb9+DbmeXmUh2bLN+W7vER3+/sOpzx9WbbAPD8yJ2xArlzfV1dVTe589vxft7JO/R+xZi8iu2cv2dZPnHN+9npY1lcWuUlkc9NVbG55yhVLuN8va1jGZfP9nPG5wn931l9Hp93Hsr2dVSqeVJ/7zqxudffOdZ+nDM+R9hpi2g57Z/yS71/Wf8AHs3H9FE85gF2uTZIBpxfdKubtJHfmM6CEg8stgIFX7bDt5EFDFkA2eF1Z8FZFtTOjl/1IJoKsJeP/1uJ4+AB/Dgv/OZH5OeRiidw2bfCzhIqvebnzyg+0eEPhnZu8viNDZW4j50EzGXHrhITbtUd99X3L4rJkrdxZu/xl85YLn4sZ+NclNU/e998+VFm1w4Ar4UJJqxwbe7sNzCzm+fOYxYV53nG1rXOl+3wbVRxzsq6Pc6bxQ/kSQAiH687ua7nEls5oy8/SjYeX5NrKff0cbBax/PMrA3iba7yN9G++3Vsaz0fi6/N3zK+j9n9O/G6quXEr0fVtu9hz71Tvff+sMnWen58qslv8f2ursPO15sdWwDPj9wZK5A719fVlXV7zFjFC+Lx2t424Wfezzt5h7+nKrN5Ncl+iTKLw7zeDm9P1cc81tzKlfSax79Zm8XP/9k5GvncV5WjDHE71X5Wsrn8WLL6/NiqzN5rP8Zb63n9nXHTt9E51v7+ZLwtOlZbdfucYbWfwKP5mD6KxzzALtcGyYDLgnkF/7qwenCmIDJbPgsatK4vpyBAF/RRIl+2wwOGKji8R91ZcCbZzWgdj3j8VFdMNj3orOoGZnz830ocBw/gR1Ki//p5r//X3zxxqT6lmi3nn5jS+RDPAZ1DniDo9fjwZzYZprqzbx/RtrQNb4v+HWXJg7ar9nqd+ne2/OzczR5oHcXH1sjfn9i2Ldl4lB0j/Ttbtpos7I6HLjsGet9iPxvvV+wT/t759QLA62KCCStcmztXeY/HNlLFCtX125dbnSdV1+6VdWeTbSNPGrGJ50nZOgDOx8frTq7rY5PKPXOPbHxSTuUTUPq3cjCfzKxyaPEcsGpDdl3yNoz7dnG/svWyDwxmk5Y+cTuO4dg/Le8PImZ8H6v7d35vYEwMjuL3FuKy1bbvwfNntUv7EHNtvQ9xP7WMf0uSjpX3GcliCPW5sd9xHd/v6jrsfL3qPQBwDOTOWIHcub6urqw7izPJndfzft7NOzz2HXFhFuPpffP5YJVsWV+mo9vHqjjfzyHR3zyX0bp+Lg8ev2d1ZjxOVtHfxrntc1pxO9V+zmTbm9VXzUnGPGrMn8a2KW/w46fz1Y9f972LPKfq/CKivz8VX27U7++D2q12eH+aPVQOPJKP6aN4zAPscm2QDDgFBFlwOIqCCF2U/UIbX/egYvAAxEs0e63iwUt1Y/EedVeBkfZ9az9jUYDSrRuY8fG/kziKB/BKHjyh1L+rfq2xIEseJbuxMtbJgvsxQeVtyraV3eQZRe1V/b4fWT2RT7DEsjX2VXVGWXtmk3Li48MonURrNh6NY+R/H2WWPHmb9oxZs2OcHR/tp7ezm9ADOD4mmLDCLbnz7Dq2FSvMvnHMr3Veotlrle61e2Xds7gkKyMW6dQN4LX5eN3NdWdjdpZ7KMf08bjKPTSm+bKjjHy3uh5s5Y6eD1dtkGpc1d+rfRT/+yieB3pbfBv+N+2XH5eM11vdv8seNIglHhu/HlXbvodsQnsUHRd/bbzn2QcWR4kfjlT9/nos8Xro+929Vvp61XsA4BjInbECuXN9XV1ZN7nz2/B+3s07FN9VfXnkBbP3s5rn8eU6un1M/ANcvl7VZq1TfamH+Dk6y2WiWZys4rFq3M5sP2e8rVv1eQ4zio5JdrzGuVk9c6H1hj3v3eDtmb0vg+9zRe9Hlk+qbM0t6lhUYzjwaD6mj+IxD7DLLUEykNm6AZqVWdIks4epVKLZaxUPXjxYG+IyMfiZ8bpngVE3eRqf/ttTN1Dx8b+TOIoH8OqPs4Qylq1JJZndiIklBuyzcygmc9m3eG6VreRx9om5qnSOg2THQmPtFl9HxT+hVtGxzLZbFe1L9q0pkY9ZnX2Iuu0Zyatfj7oJPYDjY4IJK9yaO3vs1CnVN2MNWzFNNHut4tfuKt9YWffQiQNiXLinbgCvycfrbq4rnTFHZeQevvxW7rH3mqDxbSuX8zpnbZhNmnmJeXB1f87H2dlDqF5G/d7+jC9T3b/bujcRj41fj6pt38vWtXsUv1/gfWwUPwbVcirxffL99vew4uv59gEcC7kzViB3rq+rK+seZrHAKOTO9+P9fE/eoT5bzWfNymxexZft2NvH9uQSKp1cxnOHWS7jqocYVTxWjdvZ2s9K9UDorD7fv6rEb/+d5TSDv3e+vxkfYzvH2ts/s3duUUX7PXtOBHg0H9NH8ZgH2OXWIBnIKGBQcLgVnOliPnvYKaqCEG0j8tc7usGLt73D695aT8GHEkW1QcuOfdb/KziZ3UCufrIBmPHxv5s4VgG8ztUq8FYSprFhdqMkUp3VOKK/64FID9j1b50Lcb3s5oyWy34mzovW1b76djJKMLVs1eZYZ3fsk+ybRLcehBRPmHy87NB2/HjGom3o/d5KrsXHrGqsncm+ETPuX6yz6qMAXh8TTFjhHrmzrpedPEnxSTdWqG6K+3XfX+/wa3eVy6ysO9I6nTzJfzaqUzeA1+PjdTfXHVbnHhq/NX7NctI99832tkE5rn+gzbed1eE/uadSTRB7m2b1+7JZjunLzHLK6gFRf+jRr0cqq2nfqvsmKlWOrf2N/aX6EGn1jUbjYWLx/e5eK3292XsA4PmRO2MFcuf6urqy7ojc+XG8n1+Td6gPzx4wVNH7WMWIka/XcU0fG7lEFm+P9uq1bqzo9WR5yEyV1/j4ELfT2c+K5yWd+rJfHxylmjMcOWOM7TXuDf7edY63t71zrP396diaW1RRn+5sH3g0H9NH8ZgH2OUeQTIwo4uqioIKXfB1Mda/Ow86VUadZ+dBV/U19sCMj//dxLETwI9z9dZzXmJdWwnoXqpP9Y4Ho3Uu3bodJU2xTo2B9zgOb0ltH++BP+z6FsYxfpb2AHgeTDBhhXvnzuM6NvKke8QK47p4djoGMU7t3JwG8Hp8vO7muplH5B6P2EZl5MSrriMxl1xR/5ZxbG+5xq6y8n0fx/3e9QJ4HeTOWIHc+Th0DMidb+P9/Ja8I8bMei9UjhLLxXzilnPzVqMdt8ztrea50Vser0eK+/zM7w8gPqaP4jEPsMu9g2QAj+PfpneEAB3Px8f/buLYeTgTAIC3wAQTViB3Pg6fYCJOBc7Jx+turgsAwFmQO2MFcufjIHe+nfdz8g4AOD4f00fxmAfYhSAZeHvjUzLjk3/6mu/OJ2XiTyDpK82Ba/j4300ceTgTAPCsmGDCCuTObyPmSfoZpb15kgqAc/LxupvrAgBwFuTOWIHc+W2QO78N7+fkHQBwfD6mj+IxD7ALQTLw9pQk6eHKmAS9e/dumjzpZ5fj8nqgE7iGj//dxNEfztQ3uQIA8AyYYMIK5M6Pp3zok08+uSlP0qQUgHPy8bqb6wIAcBbkzliB3PnxyJ3fjvdz8g4AOD4f00fxmAfYhSAZeA6eCI3kyemny5Uk+bL8pDmu5eN/N3H0hzP1bwAAngETTFiB3Plt6Js/PPfJJpk+fPiQ5kl8uztwXj5ed3NdAADOgtwZK5A7vw1y57fh/Zy8AwCOz8f0UTzmAXYhSAaeh3+yLSZQSpayhElFD3YC1/Lxv5s48nAmAOBZMcGEFcid306VB8U8yX+JgPgUgI/X3VwXAICzIHfGCuTOb4fc+fG8n5N3AMDx+Zg+isc8wC4EycDz0LdfKknyxGhW+Dlz3MrH/27iyMOZAIBnxQQTViB3fjvVrwfMCj/JBsDH626uCwDAWZA7YwVy57dD7vx43s/JOwDg+HxMH8VjHmAXgmTg+ejnB6pv0YwJ0/v3731VYDcf/7uJIw9nAgCeFRNMWIHc+e0p/+nkScqnAMDH626uCwDAWZA7YwVy57dH7vw43s/JOwDg+HxMH8VjHmAXgmTgeX377bc/JlF66C2WDx8++KLA1Xz87yaO6p+xX+rfAAA8AyaYsAK58/MgTwLQ4eN1N9cFAOAsyJ2xArnz8yB3Xs/7OXkHAByfj+mjeMwD7EKQDADn5uM/iSMA4OiYYMIK5M4AcCw+XpPrAgBwidwZK5A740y8n5N3AMDx+Zg+isc8wC4EyQBwbj7+kzgCAI6OCSasQO4MAMfi4zW5LgAAl8idsQK5M87E+zl5BwAcn4/po3jMA+xCkAwA5+bjP4kjAODomGDCCuTOAHAsPl6T6wIAcIncGSuQO+NMvJ+TdwDA8fmYPorHPMAuBMkAcG4+/pM4AgCOjgkmrEDuDADH4uM1uS4AAJfInbECuTPOxPs5eQcAHJ+P6aN4zAPsQpAMAOfm4z+JIwDg6JhgwgrkzgBwLD5ek+sCAHCJ3BkrkDvjTLyfk3cAwPH5mD6KxzzALgTJAHBuPv6TOAIAjo4JJqxA7gwAx+LjNbkuAACXyJ2xArkzzsT7OXkHAByfj+mjeMwD7EKQDADn5uM/iSMA4OiYYMIK5M4AcCw+XpPrAgBwidwZK/zxj3/8n96nyJ3xqryfk3cAwPH5mK7yq1/96v95zAPswgQTAJybj/8kjgCAo2OCCSuQOwPAsfh4Ta4LAMAlcmes8Je//OW/eZ9S+cMf/uBdEDg87+fkHQBwbH/7299+Maar/OY3v/mtxzzALkwwAcC5+fhP4ggAODommLACuTMAHIuP1+S6AABcInfGCt98880/eJ8a5e9//7t3Q+DQvI+PAgA4pn//93//xZiu8i//8i//22MeYBcmmADg3Hz8J3EEABwdE0xYgdwZAI7Fx2tyXQAALpE7Y5Vf//rX/9f7lcr79++9GwKH5n2cvAMAjk3f9O1jOvEx7oIJJgA4Nx//SRwBAEfHBBNWIHcGgGPx8ZpcFwCAS+TOWOX3v//9//J+pfK73/3OuyFwaN7HyTsA4Lj+4z/+4xfj+Sh/+tOf/ofHO8AuTDABwLn5+E/iCAA4OiaYsAK5MwAci4/X5LoAAFwid8Yq//Zv//ZfvV+RQ+MVef8eBQBwLH//+99/+Md//MdfjOcq+kZwj3WA3ZhgAoBz8/GfxBEAcHRMMGEFcmcAOBYfr8l1AQC4RO6MlaqfNlf513/9V++OwCF53x4FAHAcf/vb337453/+51+M5aMQG+MumGACgHPz8Z/EEQBwdEwwYQVyZwA4Fh+vyXUBALhE7oyV/vznP/9371ux6CGI9+/f//gTosBReb8eBQDw3P7zP//zh6+//vqH3/3ud78Yw2P51a9+9f/++te//hePc4DdmGACgHPz8V8FAIAjY4IJK5A7A8Cx+HhNrgsAwCVyZ6z229/+9p33r6roYc0//OEPFMqhivfjUXw5CoVCoTxP8TF7Vv70pz/9D49vgKswwQQA5+bjvwoAAEfGBBNWIHcGgGPx8ZpcFwCAS+TOWO2bb775B33jlPcxCoVCoVAolGcvPJiJu2KCCQDOzcd/FQAAjowJJqxA7gwAx+LjNbkuAACXyJ3xCHpA85/+6Z/+j/czCoVCoVAolGctv//97/+XxzTATZhgAoBz8/FfBQCAI2OCCSuQOwPAsfh4Ta4LAMAlcmc8yl//+tf/wgOaFAqFQqFQnr38+te//r9/+ctf/pvHMsDNmGACgHPz8V8FAIAjY4IJK5A7A8Cx+HhNrgsAwCVyZzzan//85//+m9/85rfe5ygUCoVCoVDesuhDJH/84x//pz5Q4vELcBdMMAHAufn4rwIAwJExwYQVyJ0B4Fh8vCbXBQDgErkz3oq+kUr9TA9q8rAmhUKhUCiUtyiKQfRA5jfffPMPHqsAd8cEEwCcm4//KgAAHBkTTFiB3BkAjsXHa3JdAAAukTsDAAAAwAMwwQQA5+bjPxNWAICjY4IJK5A7A8Cx+HhNrgsAwCVyZwAAAAB4ACaYAODcfPxnwgoAcHRMMGEFcmcAOBYfr8l1AQC4RO4MAAAAAA/ABBMAnJuP/0xYAQCOjgkmrEDuDADH4uM1uS4AAJfInQEAAADgAZhgAoBz8/GfCSsAwNExwYQVyJ0B4Fh8vCbXBQDgErkzAAAAADwAE0wAcG4+/jNhBQA4OiaYsAK5MwAci4/X5LoAAFwidwYAAACAB2CCCQDOzcd/JqwAAEfHBBNWIHcGgGPx8ZpcFwCAS+TOAAAAAPAATDABwLn5+M+EFQDg6JhgwgrkzgBwLD5ek+sCAHCJ3BkAAAAAHoAJJgA4Nx//mbACABwdE0xYgdwZAI7Fx2tyXQAALpE7AwAAAMADMMEEAOfm4z8TVpe+++67H7799tufyvfff++LIPjw4cPF8dK/AeDRmGDCCs+aOys2iddexS4AgOty3U7+5zlPtgxyXKMA4LmQOwMAAADAAzzrBBMA4DF8/O9MWJ3Jp59++sNHH330U9HkG2pffvnlxfHSvwHg0ZhgwgrPmjsrNonXXsUuAIDrct1O/uc5T7YMLumBVj+2Kl999ZUvCgB4IHJnAAAAAHiAZ51gOrqvv/76x5uOo3zxxRe+CHB4sY+rzL4BQeeAL5+Vzz///MeJjvfv3zPB8SA+/ncmrM5E/ZKJtz6fqOThTABvgQkmrHBr7uzx8Cx23oOHM3+26hgDz0J92nPoGV+2Kjp3FLdrPHmlb7738bqT6+p4bOV/nvNkyzw7vc+6d6l7MNrnjz/++GKf9G/9Xa9ruVv6he7vxLpjifmi92/upQLAeuTOAAAAAPAAt04wIec3anVTEXg1flN9NiHhExx7ymeffXbzZABqPv53JqzOxPvurJ/jl9c/Hs4E8BaYYMIKt+bOq2IKHs782apjDDwLP99VZnzZbtGDeXooTw/VHZmP151ctzOOeM6TLfOs1Fbfx27Retfs6yeffPKLukaJ+aL37zNfzwDgUcidAQAAAOABbp1gQs5v1HJDEa/Ib6rPbtJfe/Pfix7U5CHN+/LxvzNh9Qpin5zRg8Ea00eh/8359Y+HMwG8BSaYsMKtubPHw7PYeQ/FJjFWUezySO/evWvFVI+w6hgDz8IfXts673zZa4oe1DzqT0/7eN3JdTvjiP72Vjni999//1Pb9txr1Hp64Nbf32uK6lF9HbomxXVjf9Jxi8fO+/ee/QMAXIfcGQAAAAAe4NYJJuT84RRuKOIV+Q36bNJi8AkOfXOC/jZ+Pi3+BOHsWxVUdDOfB77ux8f/zoTVK4g/24b78esf5yqAt8AEE1a4NXf2eHgWOx9J3Ke39qrHGBj84bWt886X1TmiDzyOhwr1/yMP95+19qIHsY92Tvl43cl1n30ciX2ge69RD1LGB+m9qJ7RJ/TgpP671SdUX+cBTT+es58q9/7d3T8AwPXInQEAAADgAW6dYELOH07hhiJekd+cn01a+A35rQe2dJNf9ekbGaoJAb2G2/n435mwOjp9O0fsS7gfv/5tnesAsAITTFjh1tzZ4+FZ7HwU/iDNo1TfUveKxxiI/JzbOu/2LCs6t/RNh34uxTL7qXOt33lg71F8vO7kur7vzzaOxHyre6+xejBTD0puvV96Xcv5uiqqd4sfz++++84X+Yn37+7+AQCuR+4MAAAAAA9w6wQTcv5wCjcU8Yr8xvxs0sJvyO95YGv281uzb11Aj4//nQmro9OEYuxHuB+//u051wHgXphgwgq35s4eD89i56Pw6/5q8aGxzCseYyDyh9eqc2HYs6zTg5bZQ3368GT1gJ3GBL2uPL16iPqRfLzu5LrPPo7E9nXuNWYPVuo92rtfWj774OzWPRk/nrOHQb1/d/YPAHAbcmcAAAAAeIBbJ5iQ80mq1TcUx7cMqugniDRppf+/983wsR3Vr+3cYxujzlvreTRNRqjdeshL77f+q3/PbjTvMd7PVUZfGe9jNbky4zflZ+31G/LXPLBVPaA5++YObPPxvzNh1RXPkWv7WXSv884nqI5GxyEe12uOwSp+/dtzrus6MPbnlvd3y+hHGv/GNm416rx3W1cbxzte1289T4fV1/dRf+wrq7aF42GCCSvcmjt7PHyP6889xFxy7zVAP4m8OqZS+zTWf/LJJ5vbevQxvldsumVsJ27jVqPOozly7DJi3VtiF60T+3h1Lgx7ls3omFQPaGb93HMBnZNvma/7eN3JdR8xjsS8Z28fiA9Ibt1rVN3+3mkszd67Dq3nY7HKbB/2HE/v31v7d6t4/Yv3x2b7c42xHe6lrr9ujvdzFX8f73X9kdH2le0HMuTOAAAAAPAAt04wIZfdkF5BN7F8QsyLbtyqPZ0bXX7TdNDNptl2dHN2zw0ptVsP2vlNXf1bD03Fm/d+LLObVN62bJmM7+/WerrpmU0MetHrW3W5MenobdL7p/3Tjb940zUu0+lfWlf1zNo+jn+Xrz/bZ9+vPQ9sRdkDmp2f0kLNx//OhJVU56b6svpR9q0aKvq7bmZ3dc879YNZH/T2zkrkfXdsI5vo2jsx4mPX7PzLxgcvqm/PWLyCH+etc139RePb1vur17v9Jq6nMWPQ+tnk8ig6fp1r5aB2ax3v63qftN/xvfD3LuPt6dq7ntql4+Lt9qJl9vbpcX3346z3T3+P13edS3GZrb4iWl/HctZ2bfstHwLAc2CCCSvcmjv7tWAWt+zh4+lWbqCxPYupR4ljdnZd9Gv9rNxiXK+8zlndq45xdO/Yxd+/eD3U+rPt6Phk71Em5pt+HdXfPN/0Y5nx9nT5trfoGM36wii3xC5+nK+9N+HuHbt4f1GZ2bNsRX3HYzsV9Rnnx2gUHU8t3+2v9+LjdSfX9b6fvc++n9kykV73emPR8VV/q+qZrRuLn0/+oUSVahtd6qteZ8y5pNtelTjmef/2/bmXR95LnY1dOi/25O/3Hq86y2T2rnfv62a0+l6q6u/eS+30lWG0u7o2jPbreOy9rgF7kTsDAAAAwAPcOsGEnN+o6tzw2Wt2gy8rurGzdcPfb2aJbhRWN4u8dG6iaRlfLyvj5q4fy+ymX2eZjO/vbL09x2EU1d+5Oae6s8kOL9r+qM+3M6P3fU/b1ZZOu3292fHzYx1vwO+V9f09N7Rxycf/zoSVZOddNXGXFZ/AydzzvPP2zkrkfTf2c38tm6CsqI2+3awf60a8b2dW9j78em9+nGfn+jXvryY+svc3isuP8VHvjdeVFdW/NfkxJmh83ayM/uLvYcbX7dqzXvcaHMvsPYy6dVfX961+m00uz8rsYWe8PiaYsMKtubNfC2ax8x7dh1m2HsrMiq7THp/4+D0r19j6MIX2r8prVx3j4ZrYZSu38vdvXCe71z3V34ldZsd0lPh+x78rPsr4+l1xnaq/Dnv7rEo3Jr81dpn1Lx3zvW3vxFzeX1Rm9iw7k/WhrF+MD9ZV54n+ruPi48oqPl53ct3OONLtC/q717dVsjGjW4efT/4++OvX8vZoO7PXZyX2e+/f92pvtPe85F7qL/kxnK235ziMkp0DmWxcykp1bdvqX9fcS+1cj2djZFU6fQS4FrkzAAAAADzArRNMyPkNrq0bPnv5jbBRdHNHD4xoe9mNHv1tdoPLbyjqppLXo5tN1c2vrfr9uIyim/ratn8SWZMqvk5206+zTMb3t1pvdjNRx0L1eF2jbD0cMqs7q1fb828qmPUvPzZZybYfb15WfJ3q+InvR2fiacbb3HnQDzkf/zsTVuJ9K5t4Gue2v19xncrs3LjmvPP2zkrk24ht9gkStaurs+7sGIzi4+Yot55j1/LjXLUju77EfZq9v7rOzcRlVYcfa203u+aMMhtPZhNAo1/G/Rpjqe9rxtvT5e2o+HGIRe3Wca32bWtCsqp7HGuvV8fY+0o1HsyO+Sh+7EbRtmdxCV4XE0xY4dbc2a9r1bi3V+dhFo2F1Vipv8+uAZ4X+Pg9K13dB7q2HnpYdYwlu56PshWbzmKX7P3z6+pbxC5xuaxPidfX1albZg+ojtilOiZb770f41HG+eD1qi3e96ttqJ9Wxzxux/+msvVN7t5fVGb2LLslO2bVMZDOg9arHzjy8bqT6/p5nO1jpy/4eRSLjkvWz+LrsR94m6oSz6ds+1k7r5H1w1h3t70qMV/0emfjwzU691Kz90Svz64/vr9ZrjvGW6971D8777NzT2Xkzd5mHdNOH+0sk/H9qNZbdd0U1e37PUpWr7an98WXq/ixyUq2fe1vdTykuq6N67y3O5bV4yXOi9wZAAAAAB7g1gkm5PwmzuyGz17+YJ6Kbu5kD9Jln/KdtcVvAo0b6aojezDD91OlulmU3RjW9vwGp3+ji7c/u8nl7ciWyfj+Vuv5N6SN4+E3T/Xv7GZvduwGb0N1rOP77sekmozzG49jXe8rand2g1A3Gmd8+er4ie9n9cBWlx/nrbai5uN/Z8JK/LyL/TL7yTr1D++7s/Fo5Xnny8543439XNv2unxMq/j+Zd/w49tWyc73bKz3tj6K94vqXM/GnOz9rZatrjUSl4sTJjrm2fiXHefqffT9U8n6u7YTr6Fxef074+3o8vZUvB3aXtZHYttjm30fh+w80PrZsd57fZfsmPuEtWTtVsnOGbw+Jpiwwq25s4/z1bi3V+dhlmws1bXUx1L9O4srqrHU69xLbc/iuFF0Hc+us5VVx1iydmaxi1/v4rIZf//isVc92fXUr3ez63QWR2XHNMbq/v5nfUq83q5O3Vl8kcVykj2kM8sPszx5PLjjy8X30o971b+y8y2LXbS+16lSxc/i/UVlZs+yHd43Zm0dOue56vHjcw8+Xndy3c444u9xtozXo2OXLad+ln3Lf5bv+PtfnT/idVY5yLX8nKv6gh+H7BgMe/Zvr+yeZDbGSnYdnLXF9zGOpdnY7++NSnX8Vo5XnX6c8f2t1svO+3tcN8Xvp6hk50x8L7vvaXbMs/dS7c6usdW5VvVBfy9Fx9SPc1UvcCtyZwAAAAB4gFsnmJDzG1zVDZ9r+A2r2USM+M1NlYrf+FHJJhEivxFV7asvt1Wv7+co2U0/P97ZMhnf32y9bFKoumk6eL3Zt/hJdsMvu5k4VJ+Wr9rjx1B9JbvxPGj//Qa733yMvB3Z8Rv8mFRt7ooPq46C6/j435mwEj/vVKoJp6H7vq0878TrnvF6ff/8PMsesnTZ/vl4mI3d1YMRovV9gmLr2yZW8H5RvW8+1sz2Tfw4z/bNj1unfm/PPdqt8dYngFSq66T3tS6vP5Ode96XI/Unb3u1vE8ubsUl/l7O6s/asRU/qD1xna324DUxwYQVbs2dfZzPxr1reMyQXWd827PrqHidKtlY6st0qB7lNX5NjUXtneVFFd/Pex1j8evRLAYQv95Vy2fHerb84O2pYlBfropxZG/s4st1derOct/sAZYhi6+r99/j1a3Ywt/LWf3XxC7entkDOFl/mdmzbIfnG7P+5PT+aXk/PrHoWGfH9Vo+Xndy3c444u9ZtozvW3WODl6n+o3z9786f8Tfq9my1/DjVF1XfLnsWA179m8vvye5lSN4W1Qqvo8q2QOUUef9Fm/31niyZ7zyNmTLZLxvVev5ub51XfO2V8vvvZe699rm7dC6W/dS/WHYrD1+vBUHzd5LveaxUlYvcCtyZwAAAAB4gFsnmJDzGy7VDZ9r+A2fzs1wv5lT3VTKbihWN9mG7KZYxm+EVW2IfJ2qPX68s2Uyvr/Zen5DdusGrvhDMNX77+2ubmZHfmNWJesD/r5s3UwcfL2q7eLtyI7f4Mc6a/Me/r6o4Do+/ncmrMT7r8rsgcjBx6Os3/j7e8/zTrzdM953vb2+3WpSJfLJ5uzc9+1WExPO15tNCK3w/9m7m5x7rrNu1DNgFsyAITCEjOAdwtumwQhgBNChZYkookXQ6RiRjnNQOqFhCdxJ3LGFaThSosghPtzhVFz++V5Vq2p/+NlPXZd0K/H/qY9Vq9Zetb527SwX3We90pT1+1468y0TW29DWm9XMVN+coFhl99dudyT5aNiVDZzu1kz++V9GaVhLSelRhPK2S6ZmTDKeqAiP1sl0703GbnIz9hMmnhfTDDxCLf2nfMZ3dV7Z+Tzqavjs67ee+6WqvfrWVB1cfemq7I+ZsWWOme1FbMNsI4630yfZeRRedwt7NjLw5n7UnK7iq12ziL7hV07PNshM8fNZ+hW2nO7WTPHzuvr2mYp2y6j53+2Q7a+kLjIfSq68nW27ZL7jdLelZctR7adkekc3b89dX1ZL62j/jbKgyOyvp7p687UI5kPuU0uFp757JUqw1X26/h5zJL3fyv/8zpmPkNH5OdtlJZMR3ddiyPXd1Smo+unpiyjo7TnsSv2ym+OvVV0su6Zqa/yeTVK+145HpnZ75HPzey7d+MpKdNc0T03877ccyw107BXRkqdu66v9q3r3stDOEPfGQAA4AlunWCilwMu3aDMPdQgzZmB/tFgXg4ozg4gr/epyMGiHGCbWdBScrC3ohv0y4mbbpvO0f0qr2cG5crM9eYg68zAXA74VXSDynnPjwzEZ77n/VxkOrbyL8tWl+aj8vyz94Zvy/p/ZsKqZBnbKitrWRb2yv29P3cl070l09uV86OTDvmmicyDXIi4l8a1rG+7CYdHynIx81k/c3+38iS3m0lD5lv33M66cbZezbq+O3bJdM86ul+Vz70yWjJPuuvtyupMuyQn1Cq6z1bm3aj90lnvO9ue4f0wwcQj3Np3nmlTnJH1dfecyXPPLhjbsz5mxUi34G+JqqPrWX2P9OR13iuP0z3bLnn/KkZfiFjL/br7nm3O2XZhtm27Y5dM96yZY69Vu2WmfMy0Q7u2y4wcO6joylfmXbdNp65vve8oX/K+76X/yLYzMo9H6ZxV15Nt7HVs9elmZH0909edqUcyH7pt8lq6tvRRef+38j+vo/s83CLzYJSWTEeXV4sj13eLs2Op2W9f5DXO9j3W+1TksyXzo2LGbH2V19dt0zmzX17bSKa7k/k988zsxlK7z2Re28zCz0XWZXnNeezZhZ/waPrOAAAAT3DrBBO9HHB51IDirEzPaFA2B7hG26VcPJEDc7kIY3Zwq5s4yWOXTHe3TSfzZXa/GZnuTm4zs1im5Lf3u/uUeTIzWLnIfBkNQGf6t/Iv09Ol+agj52cs6/+ZCauS5WS2nsuJgnuUhUWWiZHZ7UqW3a6c5TVtfd7yLSrdhGNOwsy8jXNtve/sfbmXLBf3vL852T2y3qaiu2cp87w7fpaFUd2YsnyM7sne+UfO7rcn86RLd24zW1a7ybHuPuU2s8/JkvdrZgKW98MEE49wa98566Wu3jsj6+Kuvs7nc8U9FmjmMUe681c6Z5+lsx6Vx2flNXfy/lXMLNbI/br7nvkx+yWHXGDSHbtkumfNHPuMfFNo1w7Nbe49NpHbHJH3q5P3fbTd4si2M3Kh9b3uX7Xx6n5le//WNGd9PdPXzfvQ3ees07pt8jgV3WKwI/L+b+V/nn+rj3pGfpZGacl0dHm1OHJ9z5D3uatTSl7j7EL43C/zJvP43vVVXl+3TefsfjMy3Z3cZraPmPndla98/o3ueSfvV37muvtigSZvgb4zAADAE9w6wUQvB6q6AZ9HqAGxddTAeaUlB6BGg0u53exkWe6XA3OZH6Pzd9b7dccue+cfyXTN7reoAcDM8zpmHreiM7NNJxf6dAO0mSdHBvvqOtb7ju5Xpn8r/zI9o2Mekec/co18I+v/mQmrkuW8K4ed3O9oWbj1c1dmtytZdrtynoPsWwvUckKzm6DLa5md3Fms9+0Wfz5Spv3o/a1FInl/a1KjjpNfBBhZb7O13Voumu32mykLnZyk6Y5dZrbp5IL9o6r8rvO70lv5nRNTXVsmy3O3zUheb+ZnLuCcfQPNIt8WlsfnfTPBxCPc2nc++xzZU8fZq4uzrbLE8tPBswsbUh5vJNsHuWDhXh6Vx1u6tsuRtmnev9F2Kffr2nzZdprtL2XauzJVzqS7zBx7y2zbpWuH5rV124zk9Wb5ynuy1SfoZPnt7leeo2LLkW1nZP6duX9b6vN0a9t2Levrmb5u3oe8zyXzodsmv6S8RLVRq8yeWRyf938r//M6jpT1GZkHo7RkOrq8Why5vnta1ycVt46lzj7jcr/Mm8zj0fk76/26Y5ez/aVM1+x+i1ufmzPbdPL4Xfnauydbsvx24zjdAvT6tyozXZ0Pz6DvDAAA8AS3TjDRmxnwuVUNZtXgTR07J132YjSgd3YQam+/zI/R+TuZ9jx22Tv/SKZrb78aKKsJnzzfTKRugnRWprsrX3nsW2K06C6328q/zLMjZaBzS/7xbVn/z0xYlSyHs/f06H73/NwtZrcred5ROc96eLTIISdAugH4zKNb45ky7Xv3t/KpJi0qn7uJiq0YWW/TLVQY2Tt+pm9UFlJO0nTHLjPbdLKM7qnJ4CqHOfG9F92z5uj9Xst0Z352+XZL5PF530ww8Qi39p336r2zsr7s6uuSdXZGtWWqzTX7dsWSxxjpzr0sDD2zQGnkUXm8tm6bZttgLzp5/2YX9OV+3fH3/j6Sxx6VqbPHX+8zc71VTs60Xbp2SZbFbpuRvN9ZvjLfbo08/ugcW45sOyPzbzRWcFT1CepzlXl8a5qzvp7p687UI5kP3TYlj5VRZbr6Ql2fsJP3f/TZLHnubqHYLTIPRmnJdIzyqhy5vltcYSw1P0t57LJ3/pFM195+93xuznypciTT3ZWvo+nbiu743VjmOur8Va/eu30EW/SdAQAAnuDWCSZ6MwM+t6iBr6ODiOsYDeidHZjb2y//Pjp/Jydg8tglj99t08n7tLVfbns00i2DzpmW3LcbrLwl8viL3G4r//IeHSkDncy/Cs7J+n9mwqpkOZy9p0f2y22PxsjsdiXL7qic55tRurdlzL4JMM95azxT3rOt+1t5dMvkx8h6m1H91dk7/t7fR2brq5ltOlleRqr85bZHosvLI/c7ZVrybd35Vs5bY/TZ5X0ywcQj3Np3znrvXvVSPme6+npR9fRMP7K2qW1HXzZZ5H4jW3V6tQVq0dDeuWY8Ko8X+dw7Gp0j928t9+uOv/f3kTx2t4Cy63POmt3v1rZL1y7JX6HothnJtGT5urV8ZOTxS96bii1Htp0x83bSI2oxeObrOkb9pVlZX8/0dTM93X3Ie91tU+pzMlp0mjGzYD3v/1Z9kdexte0Zs8fP7UZ5VY5c3xm1MC7HGI/EqLwfuca1vf1u+bztHXt2m85s+S+57dFIWUaOfBkz2yJd+crz3xLd8UvVezPlsK6tysDs4m04S98ZAADgCW6dYKKXg0+jAZkzcjJhiRq0rvPUwE2dfx054DYa0MvttgbY1vb2y793i5ZGct889uw2nbxP3X41ITQaNKvzVtQ9yTzPbVMOKB4pI7kILPftJspuiTz+Irfr8m+R92hUBmfl52CURvZl/T8zYVWynM/e05n9HvW5W8xuV7Lsjsp5LrzsymR+dkd1YZ7z1nimvA/d/a06anSNdd/veX+7+zCyd/y9v49k2RjtO7NNZ2a/mojqJoXr3yqP6u0cmd85GdjlZd6X7n6PZBnIffPYt8bos8v7ZIKJR7i175z13r3qpTP9itpndsHQ1tvWctst9Tysun3rnPU8uiVfHpXHj2ybnrl/Jffrjr/395GZY89sMzKz35m2S76hPtsWJds33TYje+Wru+e3RB6/HM33I9vOyMXd+eWaGcuvwOSx1lF5febYKevrmb7u3n0uea+7bdLyBti81owq46Nrz/u/VV9kGrtF1rfIfBp9lnK7rbw6cn1H5RjSEm95LDXLy+j8nb1jz27TybLV7feo52aWkSPluhZFZjpSnv+W6I6/tvyKyFZduD7W1sJtuIW+MwAAwBPcOsFELweU9gZkZuUgVEUN4owGbhezA3o5MDcr98uBuRwEHZ2/k9ebxy575x/JdHX75eRNRZ1v780uuU/Ke3nkjRAz5SvPv5feM/IcXf4t8h4dKQOdHLy89XhXlvX/zIRVyXI4ew9m9nvU524xu13JsnuknOfgeU5OjK4nj9Pl0Vs1c39zm4q65q28LbnPSB531t7x8++j+5eyvu+OXWa26eztV+UwFzfUf9d9yDK6NvNmkbyX3f0e2SvnM+eHERNMPMKtfees9/aee7PyOXOkvqznQC1W2FsckHX0IrebVXV85sc6lj7u1nOqk8e8Vx6P2qZ7x899OvkTp7P3L+9715+cOX8njz3ad2abzt5+Z9suM+2SmW1G8jOS9z+PPXsvj5i9N4sj2+7Jslox2x4uy08b5zGWWN4Sd+SYe7K+nunrztQjea+7bUbq+qp+21sg3x0z7/9WGcuFaBX3ytvuM1rn68zk5+LI9R2Rx63YWgS7yDHDUX1x5BrX9vbLcjY6f2evvip75x/JdHX7dZ/1ezw3Z7/42Ml0d+Urj72X3nup+rHSl2NGe+mFe9B3BgAAeIJbJ5jozQz4nJGLLGswcWtyYpEDbqMBvdxudhBqb7/Mj9H5O+v9umOXvfOP7O3XDfptvTlm0U1apO7tlrMyP7vylcfOa7uHI+fIvD5SBlI3sO5nfs7L+n9mwqpkOZy9p3v7dZ+73KYz87lbzG5XsuxulfNcTLae7Mnrqvp8JCcy6r9fxd79LTmRN3t9630qRtbbdPXjyN7xj5SFta7O6sxsk2aeJfnG1tm0573s8jK3mb2XJctBlpXZfIOOCSYe4da+89nnyJ6sL7v6ela1V7IdskTX78xtjloWa+UzYYmji7Uekcfds3amT1hyv5H1NrP3b+a+5/m7e9jp2g6dmW1Stom7/brzz5SBbJdk22J2m5FMU5avTPeRN7rNyvteseXItntyPKpbENx51GLsGVlfz/R1M615n0uWo26bWaOf2u7KT97/7nO/6OquI231LXn9FaP7N5OfiyPXd0SWXWOp/2vv/CN7+3Vl757PzZltOpmfXfnKY+e1PUPlXz5PlhgtgoZb6DsDAAA8wa0TTPRmBnzOyAHb2YHV3G80oLc3wDayt1/mx+ygXDdxk8cuef7ZwaqcBMxj58BwxcwiwG6/zsw2nbzernzNfEv+Vpn+rXNkmkdlcE/lf9632Ukheln/z0xYlfxcz97Tvf26z889P3dldruSZXernOckxHoBZg6ub72lI/Oo+4y/VZn2vL/dItqZOjvztmJkvU03qTmyt1+WhZl0l8yTUdpntkkz5T7PP1tn5ptiunKY5++26XT3c6aswCwTTDzCrX3nfI5stSmOOFsXj1Qdnf3Hiu65l9uctSxEyD5MXleXhrVH5HHmb8Uj26az9y+P3+13Nj+yDTBK+8w2qXubX8oFwl27rJPpzrZFyTb57JhKNzZRx1rLe1Jxb0fPcWTbLXlPuutfq8905f/WZ7qOOVsmz8r6eqavO/O5yfZ1t80R3ThHRS4gzPvffe7X8loqZhY6b6k0ZVq3vniYadjKq6PXNyvTMPu5z2dhV6eUPP7WNa7t7ZflbDbdXX2Vxy55/q3P9Fp+rvPYeR8r7vnczG3yczKSi3S78pX3fGvc5tHymVYxO54OR+g7AwAAPMGtE0z0cgCtG/A5Iwdl9ianSje49ewBxXyb3NmFId2xu+1G17c2M1h5Nt3dxEUnB7Rn7meX7q585aDj7CDuEZmOzL+1LCMz9yiNJiy+z8HS9yDr/5kJq5L13Ow93dvv0Z+7MrtdybK7Vc5LpmOZKFgP8lc53pL19uybPd6CvfvbXduMPG7FyOx2ab3PTL06OzGSk1ejNGX9NjNxOpMvWYZn0t1NunZ5kvezO38nP+cVWVZKbrP3+YOFCSYe4da+c9bH96rTsi7u6uujuufATD19D3U9+cxdRz1XRwtIHpHHuZjw0W3T2fs3c98zP7p72Jltu8xsk7Lv3u2X6R7d77XZMpv5NtsWzUWdo+PnNvcog2uZ/ootR7Yd6dpto/7J3k+XV9mqfJtp595D1tczfd0sf909zDZ4t81R3b3N4+Y23ed+LeuvilvHhvLau3SuzeTn4uj1zcq6YWbsLdNS0X3my5FrXNvbL9Mw+/zp7lFXj+Z2o+tb68YkM91Z7mbT3dUdnbyfM2OC3ZcDu/KVabj183KrLCOzX1aAI/SdAQAAnuDWCSZ6OcDVDfickQNJMwOKOZBTMRpwy21zgG0k90vdINjMYHw3KdSlKSdKZhae5IBbd+ychJgZUOwGKis6mYaZdOe1VnTlKwdxR5MnnTpHxd432zMdmX9rWUZGZXCkm2yrMDB5u6z/ZyasStZzs/c098tJgkd/7kput/XZyLK7Vc5LTkTU9WT6Zgb4s/6bmXAo9bmtumTm+fAIeX+zXHR1057R53/0HMntZq336erVLJsz9U/39sdRmrKszdzDLCfdsXOBy8yzJu9jRZcnJe/N3mek5BtJKrKslHxObr2VZ63KTO27fP64HhNMPMKtfees52fqyxn5bM36up5F1d6qerHq0a12z1o+C7p6Ouvye6r6u86Zz5mtcz0ij7Ntd0vbdJT3621m2hdl776X7Dt226S83iU6md97/cdRmy7lcbuyl7K8VnRt7m5sYi/dpWtzdenKdleXhk6lq9poez/vnfe9YsuRbTvZ/t269tLdh4q6p7P9mXvK+nqmr5vlr6tH8jpzm/rv2qbKw0zbe7F37rz/M5/prt19JE1rWafMpGHvmtbOXN+M/PzOlMX8LFeMyv2Ra1zb2+/R9VV+vmfqq26BfaY7nyP3fm5mH3Em3bNlN8vgKA2dys/K5+4e1fUtf6/zdtt0cjxhto0AR+g7AwAAPMGtE0z0cqC2G/A5Iwfu9gagusGnitHihjx+DrCN5H6dHNgcpWGRg21bacrBs73FPjm4NTp2HrdiawCtBuy6ge/u2CUHLCvdW8cfvTlyVL7yvuyVl5Jp2hpEzXR017jItHQDw53K09q2G1zeyy/mZP0/M2FVsp6bvae5X5abR3/uSn6OttKeZXd0zLX18auuy7p463oWOVFSn4G9SYH6e35WZhb43VPe38zbboJpa3Ksts/nx95+ud2s9T5dvXom7aOy2cm826uzs1yNjp3H3arXS5Xx/IxUjJ6t+byua94qq1m2l8iyUrpJupnPT6bp7AQ0r8sEE49wa9/5TJtiRrad8hmWdeJeP6xUPZ7Pgq5Nsf57xdZz8RZ13My/Tm5zjzzu+o5dXiy2nv+j/XK7GXv3vXTP0a17tJX2TpatvedttklGx87FP3ttl8rXLK9b+2W69xa75PZL5JfMSpfnM22XbO+O8jLve8WWI9uuVZpH192VtcX6Htc9qWN8n1+Uyfp6pq87U49kWc5tsk/WlZXU3dtsU3fb7OXvaBypyv3evotRn6yOu3eMmfxc5PVtlbUjMg17z8FRP2uUnjz+1jWu5X55v0vm+ygNi9Hntqv7M7/rfnZpWIzKUl7vo5+befy9scFRukd5mfdlr19e9vIy+8Az4zvlTFrgKH1nAACAJ7h1goleDtSOBnyOykG20UBoDpx2+3Vy0CcH2EZyv04ORC3pysGo+u91enNQu0tTN3k4GrCq/Zdtc5/u2DNpLnncTHe36KRkGkaDiuvj56DlqHzl4OCS/pH1OfbSXfLYXf4tsoyMjlvluY5Tf68ynOlZov69G1zmuKz/ZyasStZzo3uacr+u3OT9vvfnLic4cuB8Lctul96UE8rrz+xokriT11P/3dUPpdKfaZ0d8L+nvL/dPcjPdaW7S2dd65IHtU9e36g+W29TMSvT1MmyU9HVRVWXLfc96+xRmrLO3qrnsoxtHTsX3VeMJojX96+71q78ZborRvd0PdGZ5aArKyXbMBWjfClZBitmPre8LyaYeIRb+875HLtX3ZT1cD7DchFDRdWVXT296J4BXb8zn3FH2jlnLAvG6hnSeVQeZ15U/nT5t9c2HS24y+PP2Lvvi8yTim6xy7rtks/oUX5nH7+2645duuf5EqlbGDU67rpNNFtuu7bRqL+xTnfmy6h85bVutelK167r0l3yvldsmd22PluVL5WW/FyvY+9LOFW3VLmv693a7lmyvp7p6+ZnprvP2d7MbY6U4VJ5lfVFV5/WdnncUZ9oLT+rS1TZrHvetfFLlcO6lkzbElvXtJjJz0WW71G9dlTer4rumit/1/VIpr2ik9ttXeNa7td5dH2V242OvV7gmPt0x8403/u5mdvVvl061sfPum1UvrIcVozypXSLP7t05zZ1/lFdX7rP7agfD7fQdwYAAHiCWyeY6HUDf2djPbjUTaxV1ABTDdDU4E8O7tUAUvf2htqn/raeJMh9u4GtTu7XqUGsHAjLtOTfuzekjNLU5XkN1tVx6295/BoYzH26Y3cTJTWgVserPK//XQ8K1t/qPuV+9e91LXXO9eBbN9i2bF9pzAWKdQ05ULj1rf9ugqrSW/9e6a/Ic6zPNRp8LLl9l3+LvI+3xJLH3EfW/zMTViU/P6OFVSn368pNfn6W+36vz103WVblvbZdtl9k2e3Sm0Z1dcWRwfRuIqZiSWPVH1sTqDOTZfeW97crF7nNEqP7W1H53u1XeVF5sL6/uc2sPG6nm3hZ75Npr227Z/BIlrfluHXtFVlfd8/JTuZnRf3b6LhL/Z/7Lc+PvK/ricB1LM/3TGPd5/y30Wer0tHl+bodU+nJ4y3RTYzx/plg4hFu7TuP6qmjkc+o7Bvk38vo3FWXVh1abYbleZB1f0XVt51sey3HrPMt/ZZHGPVRRtd5NDIPuzZIxajtsrRNc7+lbXqPtsvMfS+jtsuSlkx7/f9sg46OXbrystd2yfSkrg2ypG05bt7rJY157KXtkosjc/8lRm2Xrs01Kt91bzMdy7Hr3leZ6a5hia22S973ii257S0xWly1tvf3Z8v6eqavm/elu8/52c5tRu3XJR+rDKzbsN22WWYXXd+vjlFR5X1kNPa0jtq/jtOdYx2V3tm+5kx+LrryfTbW59n6TI7qlKoHun7cug+yyH23rnEt9xsZ3Y8lLfn3I/VVluWKKgd13PpbHn/Js71j5zZL3Ou5OSrPtf1oLPXIs21rLLXSuDWWWv/W1YV5bevjVn4sbbHM8yXq37rjwq30nQEAAJ7g1gkmeqMBlzORg1xHjr2eROsGdirWg1Gzg3cp9xvZWqCZsSxgymOPFuVtDX5nLANamZfd9Y4mhkaxpC8H/bbOMxpUzFjSnQPWdR1b8jpnYmbQL/fJ61rL+3g2akB2L10ck/X/zIRVyXK1Vw4XuV836XTkc7cM4pfZz93W4smK9bVk2d0q52uj9G+9GaFT5xsdaxRHJsvuLe/vqFzMPgsqljIymlSrWN+X/Nus9T5bEzWjRQ4Z67I5e+ys37diecZnGe0cOe66/u8W3YzOU+nJbboYpXvrs1Xpye1nYt0O4lpMMPEIt/adz9RjXeRzJOv4/Ptitp7O2KpL89wZW3X7Izwqj8uR9tjSDtvKn1vbLnnsLs2Lo22XI8fean9nLO3CvE+dTMNWzLRdumuY/UwsiyUz3Vvlu9qtuf1MjNrOiy5ftuS2Z6LKftdnewVZX8/0dfO+dfc5+zzdNkfGvzK28jvPnbGlPt9H6rIuKn9G43KdmfxcdOX7bOR5ui9ojuL7Gksd7Vdlaba+GtWzW8eeLRNHxlLL7HErjj43y61jqVvtm5LXORN7Y6mzac6ovNw6LtxC3xkAAOAJbp1gondmAGcUOfhUurdNrKP+loP6o4HhRwwobi0+qnRsvemt/n3rG+hbZhZv1N+X9OV9Gl3vzEBoDZTlYqjRoFt3ntp361vX60WJOaCY97pT+8wMjNY2dbyZQb/ct7uuxd592YrlzRJb5Yrzsv6fmbAq+fmZKYdldr9Hf+62JqnXacqym8cZ6SZ/qiyfUXnRvbmhi8qzI5Nl93bk/o4mz5fo7u/ovq3vS/5t1nqf9bOxU+movB7Vq3kfjhy7rqW7xnWs36iUZXSkjjt69i5R6c76f/Q57NT9zvQskRP7ud3MZ6v7XHVR15llh2sxwcQj3Np3znrvbORzJPsG+fe1qof3ngVLZL09UvXt6Lk1U7ff06PyuDyybZp/m3Hkvpdql4zejFpR17b0t44ee6/tsvRnF3mfRmb6sLNtl9E13NJ2mWlzZ9t4FHXsLDudvDcVW3Lb2ahrr3ycSdNblvX1TF8373NXj+V97bYpy0K2vXK8RJ17dKy1PP86ZlS5zuvci6o/ZtKW8jxbx+jK99nozrP1vKrIuqo8cyx1b79b6qut8bSZ8YY63uhLsaN0P/K5udgbS916to3GKtZmFzQfGUtdnsd5jC6WMrl1/+BW+s4AAABPcOsEE70aNKlBn3vEaGCn/r0GoWrwZ/nJlvr/tXBhtE+pQaDlZ7Tq+OsJheUtGXvnTmf3K7V9XUf9bzfYtB5QrEGpGXWsur4awKr963/rv3PyJO/TXrqXvFuOW4N8ddwcSExLemqAceY8la4lTypS/dt6sG5m0nSxXPNSbuo66v/PXEda593edWUZmQmeI+v/mQmrkp+f7vPbObpffu6Wz/NWGamyWH/f+9zVuevvtd3687xOU5bd7jidJQ1HrnVGHaerh/bq/mc5en+Xe5DXs1evbd3fzPdZ633yebFleR4v9XZ3H9Z1dl3jnvUzvrZf6uruPmcZ3bPk3fq4FVv3av1ZWa5zT20z+3yvyOvaUte85E8dZ2kDVRy5d7xfJph4hFv7zllfn42s57LNkX/vVL1cdeby/F1itn+TujZVpeVI3X4Pj8rjtWybfl9tlzP3fVH360h/MxcrdSo9SxlY9zPv2XbJ/mvXvlhk22Umf+o8R9ouR9T5l/Rk26U710je9738y2334khaXkHW1zN93SyfWX5L9nm6bVJtt9SR63p3NF61Z10XVdT/r3Mcse5zLGUzy+fR50Gayc9FV77Pxug862u+yljqbH1Vx6rry+dbls28T3vpfsRzs7PU+0u6Uv3bOk8qTbOWz/z6M3zrZ6SuZylT6zph6/kJj6DvDAAA8AS3TjDBo60HFGvQlO9+S70biIVZWf/PTFgB82pCZV1n701CXcX6+V5vo4F7MsHEI+g7cxW5gOXswpP3Zt12qf/P25f1tb4uV6G++q58tuWiU7gqfWcAAIAnMMHEsy3fsJ759m8tOlwPnB35VvOrqTyZHRhc/yxQ/XQO3CLrfxNWsG95y8mMWoy5fpa91wX1y/N95vpq2/VPz828kQuOMMHEI+g788qOtF3qjV3rtstM3/0VHW27rPOk8oi3L+trfV1elfqqd3YsdfaXmeAK9J0BAACewAQTz5ITPPWWrL1JnvXAWcXsgNurqOupxZXra9x7o1rts95+5udxYUvW/yasYKyeXUfq4HrOrev597igvr44sV5oWf9/73ld+6zz0Ru5uDcTTDyCvjOvptoht7Zd3uPbrXNsoq53b2yivkiy3md2oSvfr6yv9XV5NVlfzYylvvf6qhao3jqW6peZ4Bv6zgAAAE9ggolnyZ+P2RpUrEGz9U/wLNu+R3mdFaNFKjkou7UtzMr634QVjHX18Oitj1U/rxctbm37yvIt1xWj53ttm8+9yqNuW7iFCSYeQd+ZV5RfeKwYLWLJL1xUvMc3ruUinaNtl/f4ZZv3KutrfV1ejfqql9dZMXq2dX14Y6nwDX1nAACAJzDBxDPVN5NzQKwGFWugrKIG0rpBs5m3cL2qbtFqXe+SJzVBVoOG+caTive4yIfny/rfhNX7VHXNI2Pm59Xeg5oEy0ULS3281NuVH6Pn3XvVPbvz+d4t+Kio/IJ7M8HEI+g784pm2y7dQpf6t/eqW7SabZf63y7v3uvYxHuU9bW+Lq9IffVd3aLVipmx1L03SMPV6DsDAAA8gQkmnqkW73SDhXsx+vbze9ENtO7Fe17kw3Nl/W/C6n3KOuTeURMgV1GTPHn9e1HPvve8gDV/AnU2rlRueC4TTDyCvjOvqhap5DN4L977m61Hi1b3ovKS15H1tb4ur+jsWOp7r6/y59tnYvTWUbgyfWcAAIAnMMHEs9Ug2Ogb3Rm10OO9DyYu6m0l3Te6u6jFnO95kQ/PlfW/Cav3KeuRe8fVFtlVHdy9HbOLeuvUVd4OeeT5frUyw3OZYOIR9J15ZfWWse7tmF1UG+e9vm1t7ejYhLbL68n6Wl+XV6W+6o3e/NxFjaVe4dkGR+k7AwAAPIEJJr4vy8BiTfwsA2k1yFj/vwbMrrKQJdVbQuvb35UPy1vIatFm/XctVPUNb+4t638TVu/T8vNej4qr1tl13XX9VUcvC+yr7q7/rrr8igvp6zlVz6t6llc+LBOI9f/rmV9vHoVHM8HEI+g78x5stV3q37Vd/rftsoxNaLu8tqyv9XV5dUt91Y2lXrm+MpYK5+k7AwAAPIEJJoBry/rfhBUAr84EE4+g7wzwWrK+1tcFgG/TdwYAAHgCE0wA15b1vwkrAF6dCSYeQd8Z4LVkfa2vCwDfpu8MAADwBCaYAK4t638TVgC8OhNMPIK+M8BryfpaXxcAvk3fGQAA4AlMMAFcW9b/JqwAeHUmmHgEfWeA15L1tb4uAHybvjMAAMATmGACuLas/01YAfDqTDDxCPrOAK8l62t9XQD4Nn1nAACAJzDBBHBtWf+bsALg1Zlg4hH0nQFeS9bX+roA8G36zgAAAE9gggng2rL+N2EFwKszwcQj6DsDvJasr/V1AeDb9J0BAACe4OOPP/5Bdrwq/uffs58GwDuU9b8JKwBeXfVl8tlW8cknn/x59odglr4zwGvJ+lpfFwC+Td8ZAADgCaqTlR2vih/96EfZTwPgHcr634QVAK/upz/96XeebSaYuJW+M8BryfpaXxcAvk3fGQAA4Ek++OCD/8zOV8WXX36ZfTUA3pms+01YAfDKfv/73/9hsVw+2yqyHwRH6TsDvI6sq/V1AeAb+s4AAABP9OGHH/5Ndr4q/DwbwPuXdb8JKwBe2aeffvqd51pFLarLfhAcpe8M8DqyrtbXBYBv6DsDAAA80ccff/yD7IAt8etf/zr7bAC8I1nvm7AC4FX99re/Hb75oxbVZT8IjtJ3BngdWU/r6wLA/9J3BgAAeLIvvvjiT7IDtkR10KqjBsD7lPW+CSsAXlEtjBtNLlV8/vnnf5r9IDhK3xngdWQ9XQEAV6fvDAAA8D35yU9+8lfZCVuiOmr1Ewe///3vsx8HwIvLOr8CAF7Fl19++YeflM5n2Tq8+YN70ncGeA1ZR1cAwFXpOwMAAHzP6g0gP/zhD/89O2PrqImmn/70p3/owNWEkxBCiNePrOsrchshhBDirUX1Sbbe9rHEBx988J+/+MUv/iz7P3CWvrMQQrxGZN1ckdsIIYQQ7z30nQEAAN6Q/+mk/SA7ZEIIIYQQQgjxqvHzn//8/2S/B26l7yyEEEIIIYR4T6HvDAAA8CTVActOmRBCCCGEEEK8Wphc4pH0nYUQQgghhBDvIfSdAQAAnqw6YvUTBtlBE0IIIYQQQoi3HvWT0/Vmw+znwL3pOwshhBBCCCFeNfSdAQAAvke/+MUv/uzDDz/8m+ysCSGEEEIIIcRbjZ/85Cd/9cUXX/xJ9m/gUfSdhRBCCCGEEK8W+s4AAABvxOeff/6nNdHkbSBCCCGEEEKItxbVT6n+Sr3tw8QS3yd9ZyGEEEIIIcRbDX1nAACAF/HJJ5/8ecVHH330l0IIIYQQQgjxfURNKFW/JPsr8FboOwshhBBCCCG+79B3BgAAAAAAAAAAAAAAAAAAAAAAAAAAAAAAAAAAAAAAAAAAAAAAAAAAAAAAAAAAAAAAAAAAAAAAAAAAAAAAAAAAAAAAAAAAAAAAAAAAAAAAAAAAAAAAAAAAAAAAAAAAAAAAAAAAAAAAAAAAAAAAAAAAAAAAAAAAAAAAAAAAAAAAAAAAAAAAAAAAAAAAAAAAAAAAAAAAAAAAAAAAAAAAAAAAAAAAAAAAAAAAAAAAAAAAAAAAAAAAAAAAAAAAAAAAAAAAAAAAAAAAAAAAAAAAAAAAAAAAAAAAAAAAAAAAAAAAAAAAAAAAAAAAAAAAAAAAAAAAAAAAAAAAAAAAAAAAAAAAAAAAAAAAAAAAAAAAAAAAAAAAAAAAAAAAAAAAAAAAAAAAAAAAAAAAAAAAAAAAAAAAAAAAAAAAAAAAAAAAAAAAAAAAAAAAAAAAAAAAAAAAAAAAAAAAAAAAAAAAAAAAAAAAAAAAAAAAAAAAAAAAAAAAAAAAAAAAAAAAAAAAAAAAAAAAAAAAAAAAAAAAAAAAAAAAAAAAAAAAAAAAAAAAAAAAAAAAAAAAAAAAAAAAAAAAAAAAAAAAAAAAAAAAAAAAAAAAAAAAAAAAAAAAAAAAAAAAAAAAAAAAAAAAAAAAAAAAAAAAAAAAAAAAAAAAAAAAAAAAAAAAAAAAAAAAAAAAAAAAAAAAAAAAAAAAAAAAAAAAAAAAAAAAAAAAAAAAAAAAAAAAAAAAAAAAAAAAAAAAAAAAAAAAAAAAAAAAAAAAAAAAAAAAAAAAAAAAAAAAAAAAAAAAAAAAAAAAAAAAAAAAAAAAAAAAAAAAAAAAAAAAAAAAAAAAAAAAAAAAAAAAAAAAAAAAAAAAAAAAAAAAAAAAAAAAAAAAAAAAAAAAAAAAAAAAAAAAAAAAAAAAAAAAAAAAAAAAAAAAAAAAAAAAAAAAAAAAAAAAAAAAAAAAAAAAAAAAAAAAAAAAAAAAAAAAAAAAAAAAAAAAAAAAAAAAAAAAAAAAAAAAAAAAAAAAAAAAAAAAAAAAAAAAAAAAAAAAAAAAAAAAAAAAAAAAAAAAAAAAAAAAAAAAAAAAAAAAAAAAAAAAAAAAAAAAAAAAAAAAAAAAAAAAAAAAAAAAAAAAAAAAAAAAAAAAAAAAAAAAAAAAAAAAAAAAAAAAAAAAAAAAAAAAAAAAAAAAAAAAAAAAAAAAAAAAAAAAAAAAAAAAAAAAAAAAAAAAAAAAAAAAAAAAAAAAAAAAAAAAAAAAAAAAAAAAAAAAAAAAAAAAAAAAAAAAAAAAAAAAAAAAAAAAAAAAAAAAAAAAAAAAAAAAAAAAAAAAAAAAAAAAAAAAAAAAAAAAAAAAAAAAAAAAAAAAAAAAAAAAAAAAAAAAAAAAAAAAAAAAAAAAAAAAAAAAAAAAAAAAAAAAAAAAAAAAAAAAAAAAAAAAAAAAAAAAAAAAAAAAAAAAAAAAAAAAAAAAAAAAAAAAAAAAAAAAAAAAAAAAAAAAAAAAAAAAAAAAAAAAAAAAAAAAAAAAAAAAAAAAAAAAAAAAAAAAAAAAAAAAAAAAAAAAAAAAAAAAAAAAAAAAAAAAAAAAAAAAAAAAAAAAAAAAAAAAAAAAAAAAAAAAAAAAAAAAAAAAAAAAAAAAAAAAAAAAAAAAAAAAAAAAAAAAAAAAAAAAAAAAAAAAAAAAAAAAAAAAAAAAAAAAAAAAAAAAAAAAAAAAAAAAAAAAAAAAAAAAAAAAAAAAAAAAAAAAAAAAAAAAAAAAAAAAAAAAAAAAAAAAAAAAAIDvyeeff/6nn3zyyZ//7Gc/+78fffTRXwohhBBCPDqq7VGR7RJgTLtdCCGEEM8O7XYAAAAAgIN+8Ytf/FlN6v7DP/zD//t3f/d3XwshhBBCfF/xwQcf/OeHH374N7XwLNsscHXa7UIIIYR4K6HdDgAAAACwob7p/sMf/vDfc3BVCCGEEOItRE321mK0bMPA1Wi3CyGEEOIth3Y7AAAAAMD/74svvviTGjTNgVQhhBBCiLcW9Uaen//85/8n2zNwBdrtQgghhHiV0G4HAAAAAC6vJnj9DKIQQgghXi1M9HI12u1CCCGEeMXQbgcAAAAALskErxBCCCFeOT7++OMfZPsG3iPtdiGEEEK8cmi3AwAAAACXM/uTiP/8z//89aeffiqEEEII8ZT4+OOPv/7pT3/69Y9+9KPvtEvW8cMf/vDfa9FatnHgvdFuF0IIIcRbDO12AAAAAIDG559//qc5ULqOf/qnf/r6s88++/p3v/vd1wAA34ff//73f5j03Zrs/clPfvJX2c6B90S7HQB467TbAQAAAABWtt6+U996r0FVAIC34Le//e3mRK+38PCeabcDAK9Cux0AAAAAuLytt+/UBC8AwFvz61//+jvtllX75QfZ3oH3QLsdAHg12u0AAAAAwKX97Gc/+785OFpR32z35h0A4K2qxWjZfqmoNwtmewfeA+12AOAVabcDAAAAAJf10Ucf/WUOjlZ8+umnOZYKAPBmfPnll99pv1R88MEH/5ntHXgPtNsBgFek3Q4AAAAAXNY//uM//j85OFpRPzsEAPCW1RsDsw1T8cknn/x5tnng1Wm3AwCvSrsdAAAAALik0STv7373uxxHBQB4U0Y/kfg///6DbPPAq9NuBwBelXY7AAAAAHBJOSi6BADAW1c/55xtmIr6+eds88Cry3Ku3Q4AvArtdgAAAADgknJQ1CQvAPAqTPJyJVnOtdsBgFeh3Q4AAAAAXFIOiprkBQBehUleriTLuXY7APAqtNsBAAAAgEvKQVGTvADAqzDJy5VkOdduBwBehXY7AAAAAHBJOShqkhcAeBUmebmSLOfa7QDAq9BuBwAAAAAuKQdFTfIC791f/MVffCuA12WSlyvJcq7dDvzqV7/6Vrv2P/7jP3KTy5AX8LZptwMAAAAAl5SDoiZ54byaEKxJwHsG92dxJrwfJnm5kizn2u1w3iPa7RVfffVVnuqhLEj8hryAt027HQAAAAC4pBwUNckL59UEYC78uzW4P3kM74dJXq4ky7l2O5z3iHZ7RS0QfCYLEr8hL+Bt024HAAAAAC4pB0VN8sJ5j5jk5f5+/OMffytGfvOb3/xxm88++yz/DLwBJnm5kizn2u1w3iPa7RXPXpy5bq9evc1qcSa8bdrtAAAAAMAl5aCoSV447xGTvHx/fvnLX/7xPpjchbfJJC9XkuVcux3Oe0S7veLZizP5hsWZ8LZptwMAAAAAl5SDoiZ54byc5DUh+Nr+9V//1b2EN84kL1eS5Vy7Hc7Tbn9/LM6Et027HQAAAAC4pBwUNckL55nkfV/+9m//1r2EN84kL1eS5Vy7Hc7Tbn9/LM6Et027HQAAAAC4pBwUNckL533fk7z//d///YdJyYr6/6/gN7/5zR/T/JZU/t3rXr7ifYFXYZKXK8lyrt0O533f7fZOtRWrbfwerNu/X331Vf75tKXv0LWp77U4U7sdHkO7HQAAAAC4pBwUNckL5z17krcmOusc6zc8Zvz93//915999lnu+kc1wfnjH//4W3FU/fz3ev//+q//yk3+qNLyL//yL39IV6a1oq7l3/7t36YmQ2u7Lt11jsyTta3rXf4t01fHW++zlaeV9rovtV2mo+Kv//qv/5AHW/kEzDHJy5VkOdduh/Oe2W7PNuuyAHNpM1bbMNuLtV39bW+xZrblt9qoZaudurRRf/nLXx5eUFnpWK6zu56KM+3fSu9y3Dxenaf+tqQ1F2fW3/bU8et6K22ZH+t07+UrsE+7HQAAAAC4pBwUNckL5z1zkrcmCHPicCtqsnH0dsqcQD0yaVqToXmubjK3/q2bVB3FVnoXebxSk6t5rOVviyN/G8Xo3laaMz+3YnQcYI5JXq4ky7l2O5z3zHZ7nmt5K2N+GaiLalduLdDMBYlb19F9gWkrKn0zX5iq9veR9u/MoslyNI8yL6qvsKX2mTn+EvWFNOA87XYAAAAA4JJyUNQkL5yXE69bk6O32FqYWZOTo0nX+ls3wVoTjevtjkw85mLIbhJ0a8HiVnor6vgjuTizWyi6xNqRv42iu7d5/2ej3sbT3Rdgn0leriTLuXY7nJfttq5tdy95rvoi1JFFgVsLNHNB4ug6ts6397etdmq2x3Pf/LfZ41a7fqv/kH+r/kTl6/rfun7JovpTeYyZ2Es3MKbdDgAAAABcUg6KmuSF83LidTQ5eouaDOwmCWuCcf3GyuUn+nLbbpIyJ3VrcnNWTrp2P/mXiy9rIrS2W08yV3pHE9XdmzhLTgbXIsf1NVT+L7GWx+8cvZeZh0vUPai/Ldda/z/zo+LIgljgGyZ5uZIs59rtcN7Rtt4t8lzrRYH1FslqAy8L/qqtWP+WbcVR+zzboN11dH2CanvmW+rrvzOtSxo73bbVHl/eDLoYHXer/ZtfHquoY6z7D9VHqLxb8jMXW3b9njL6QtfSbl/yZfRmzfo34DjtdgAAAADgknJQ1CQvnJeTjt3k6K26t2bmxOpaTthWdG97yQWDo7fzrOXEZvdmzkzv1pt/SvfzhaOJ21ycucTW2zZLbt85ei+7tHQLVRd5/IrRIlRgzCQvV5LlXLsdzsu22F5b7xZ5rpm2YrahK7o2f7b1u+vIdupo0eIiF3NW+z1Vmz0XQ47a7Ivumrr2b/dltK28qr5FpqVidJ3dws+t43c/277VnwF62u0AAAAAwCXloKhJXjgvJ167ydFbrd8OWVH/vScXO3YTu/mGntEbctZy4rabkM1Fn/V2mz3dhGw3cZsTzaM0pNync+Re5qT48mbQPTlBvXUOoGeSlyvJcq7dDucdaevdKs9VMdPWznZ/187Ndmh3HdkX6NrVqc5dbe2KOmbuk9c0WgiZcmFklw/Zx5g5drarR/vll8sqZtrtmc/dvQC2abcDAAAAAJeUg6ImeeG8nKTsJkfvod7UsvzkXr6pspPp6t4smROVo59OXMuJ3lz0WQsx13/v3rozkpPRXV52izNz4riT+3Qyz7rzL2bSOrJevHokf4D/ZZKXK8lyrt0O52Vb7x6RbeFFd66ZNy/OtKVz0WDXDs0vS91jYWEec2aBY5m5puxjzBy7+3JXtzgz78XMF90W2feY6YcB39BuBwAAAAAuKQdFTfLCeTnZt7xp5myMJniPynTVf3dyInRr0nhmMWee98hE8Mwbc3KCtNI/Y71PRSfTPsqzkumYeTvoIs9zr3sOV2GSlyvJcq7dDudlG+weMWrH5bm6dnOnW3CYZhZn5hvyK460y1OXriMLFfd+IjyPPfPlq5JfmOr6D7lN96W1kbyPR9r8gHY7AAAAAHBROShqkhfOywm7W6ObXN2zfqvmEvnzgaPj5oLI7mcGF7ltd8xctHhk8jMnmrtJ7Dz+7CTzep+KTt7L7voWOcE8O4Fc8jwzbwYCvmGSlyvJcq7dDudlG+weMbs4s1s0OJJfnspzZJu5a7Pm2yqXqLZzLoyckeec/YLUItvw62vKL4BVzJrJ561z78l87PIaGNNuBwAAAAAuKQdFTfLCeTkheGvsTfjVZGJtU2+AyYnbrRgdN9+C0y2IXORPGXYLEm+Z/MxJ34qUxx9dV9o7bsl7uXXsPN4tsXUe4LtM8nIlWc612+G8bOvVQsX8gtPRGL09Ms91pL2X7d06z1r998yx88ta66gvGlV/or4k1LXpU56zWwS5Ja9pneY8dvez5yOZz1268tpviVFeAz3tdgAAAADgknJQ1CQvnJcTgrfGaMKvJn67nyecjdFxS/7UX/c2nfq39TbdxGfJBaM5mbwlF4pWpJzYnX3r5N5xS97LUZ7lBPKtMToP0DPJy5VkOdduh/Nm23r3cMu5sr2b7elsi46OXW3rbOePorbb+snufIP+qC8wkunYWpx55NiZz92+ea23RHd8YEy7HQAAAAC4pBwUNckL5+WE4Ghy9BY1UZo/o72OWhBZE4UVNfFZachJ3a101QLH9bbdT5vnwtDRosh8u2ZOJu/Ja0t5XbPH3ztumb2XOYF8a4zOA/RM8nIlWc612+G82bbePdxyrr32brZF945db8asxZXZTu+ituna+Xk9RxcpZl/iXosz9xaN5hfMbo08PrBNux0AAAAAuKQcFDXJC+flROXe5OhR9cabbmFm/Uzh1k8QHk3X+hzdT5uvJ3Nr29FPOO5NJm+p68nrTGePv3fcMptnOYG8pONsbN1H4LtM8nIlWc612+G82bbePdxyrr32bv332WPXYsXaPt92n5Fv0cxzHl2kmNd0r8WZmc/dvt21ZXt8NrpfGADGtNsBAAAAgEvKQVGTvHBeTggemRydkW+DqZiZFDyarlrsOTpHvnGmth3J49Qk5qycmK1IObE7e/y945bZPJtJJ/A4Jnm5kizn2u1w3mxb7x5uOddeezfbokeOvVZftqqFit1Czfoy1lr2B7pFkFvymtZprnTk+WdlPnfpymNnfgKPo90OAAAAAFxSDoqa5IXzckLw7OToSE5k1uTpjPp58yPpykne9U+b588Qbk1o3pIfmYbuWjM/ttKytt6nonMk7Xm82XQAtzPJy5VkOdduh/OOtPVulefqFg2O5M+P5xvrs81863WM3tSfXwhb/6170/6WvTZ8nntWfjGsy+e8tjw38Dja7QAAAADAJeWgqEleOC8nXm+dHE05kVlv0tzTTbDOpGs9EbyecB39e+ezzz771nlrkeisXATavaEz82N2cnW9T0XnyL3MNwzVdQPPYZKXK8lyrt0O5x1p690qz7XXhl589dVXu+3Wey/OLPlmzIrsd2T/IhdvjnRvxswFp3ns2TZ+7tctzsz+wz3yC5ij3Q4AAAAAXFIOiprkhfNy4vXek305mTizCDDTNJuuXBxZE645Ubt3nG5COSdfR/ItQd21ZhpnJ24zTZ3Mt61rzW27t3yO1M9HzqYb+C6TvFxJlnPtdjgv229bbb1b5bkqqg24J7/o1LUx9xZnVtu7tqnFlbnAcku2s/O4+ZbK9Zv2t+Q1dQtVj771v2Q/paJbnDlz/pG6ZzP3DehptwMAAAAAl5SDoiZ54byceJ2ZSDwiJyr33kRZk5T5BpnRRGXKhZU1mZuTtLXNnpy4nZkUzknm0aRp5vfsZOl6n4pOHnuUhtK9nXRmwWWld9m+9u/eDgpsM8nLlWQ5126H87Ktd+92+1qeq2KvHV+y7d99WSnbzXkdeYz8e6fatvlFqWxn52LI2n7vS1j195kvm3ULKPeOnddZMerz5LXN9E/yemfuH/Bt2u0AAAAAwCXloKhJXjgvJ15nJj+PyONXjCYq15OauXCwYsb657rr/68nMkeTnSkXeVZ0k7CLmmDO9I62z/yYze9MTycnurfSUTItdQ1b23cLZ2fTD3zDJC9XkuVcux3Oy7bbI9thea4ltr6Yk1+Kquja/dlmzevIhY4VudAydefuvpSVCy2rv9ClsdS/r/sWFaMvP3VffOreGrrIL4MtMeqvdHmy1W7v0rN174CedjsAAAAAcEk5KGqSF87LidecHL1VvrFlPTm4/MxeTabmospugWRNVlb66pgj9RaZ3G+JrQnMNHqTTZ2/JpSXn1rsJlZHk7blbH7nOTo1CZvb1aRspXuJ3D4nbSvq2uvaluusNOZEdsXMG4GA7zLJy5VkOdduh/OyHXnPyDeo57nWbd5qq2ebuGs7j342fG9xZsk3RVbUv9Uxq/9Q/YH631E7Ndu9izz3cty6vuor1N+X43Zp2OpPjPoFy7Er6v+v+z25zyjdpUtP9k9G+VFtfu12OE67HQAAAAC4pBwUNckL5+XEazc5eqs8x1as316Tb6pZYmvSsluguMTRCcmcLJ2JStvWeTIvZvM7zzMyyrPRfrUItpvA3YtlAS1wnEleriTLuXY7nJftyHvG3uLM+vuRtvHWWxpzgWTXHq525l67dhRbb8Msdf7uC0pbUdvvvb2zztktUh1FLTTNvNjr5xw5/hKV9q0vtwFj2u0AAAAAwCXloKhJXjgvJ167ydF7qOPuTYLWZOR6wV/3U4LLdlu6ScutCeIt9YabvXQvUW8N2pP5vfX2nbU818jeRPZIpmsrKi+3JryBbSZ5uZIs59rtcN6R9trRmFmcWWYWaO61u3NB4qj/Ue3NWsA42xav7WbbqaN+RhfZR9kzk0fVXyn5xbK9fk6pPsdsntR5ZvID6Gm3AwAAAACXlIOiJnnhvOXn75bIidl7qknNOkdNEtZkaP00X01A1gTm6Lw1mbj89HltV/vvvbUmr6nilrfFVLqXY1baK92V/vr/S3pmJ2wzbbP75fVsqTyrbSq/Kn8rKv/2Fo9WWpafcVyuc32Pan+Tu3A7k7xcSZZz7XY4L9uR94xsk9a/rRf5rdvq1a5e2plLm77+u750lMfpLH2CJUb9gEW1P+vY1T6tc64XJi5t3bPt1Dp3Hbvaysux123nvbSN1H61f+XLXr9nnRezX9zK/sn6HPXfde6ZewFs024HAAAAAC4pB0VN8gIAr8IkL1eS5Vy7HV5DLs7c+3IUwHuk3Q4AAAAAXFIOiprkBQBehUleriTLuXY7vIZcnFn/DXA12u0AAAAAwCXloKhJXgDgVZjk5UqynGu3w2uwOBNAux0AAAAAuKgcFDXJCwC8CpO8XEmWc+12eA0WZwJotwMAAAAAF5WDoiZ5AYBXYZKXK8lyrt0Or8HiTADtdgAAAADgonJQ1CQvAPAqTPJyJVnOtdvhNVicCaDdDgAAAABcVA6KmuQFAF6FSV6uJMu5dju8BoszAbTbAQAAAICLykFRk7wAwKswycuVZDnXbofXYHEmgHY7AAAAAHBROShqkhcAeBUmebmSLOfa7fAavvrqq69/9atf/THqvwGuRrsdAAAAALikHBQ1yQsAvAqTvFxJlnPtdgDgVWi3AwAAAACXlIOiJnkBgFdhkpcryXKu3Q4AvArtdgAAAADgknJQ1CQvAPAqTPJyJVnOtdsBgFeh3Q4AAAAAXFIOiprkBQBehUleriTLuXY7APAqtNsBAAAAgEvKQVGTvADAqzDJy5VkOdduBwBehXY7AAAAAHBJOShqkhcAeBUmebmSLOfa7QDAq9BuBwAAAAAuKQdFTfICAK/CJC9XkuVcux0AeBXa7QAAAADAJeWgqEleAOBVmOTlSrKca7cDAK9Cux0AAAAAuKQcFDXJCwC8CpO8XEmWc+12AOBVaLcDAAAAAJeUg6ImeQGAV2GSlyvJcq7dDgC8Cu12AAAAAOCSclDUJC8A8CpM8nIlWc612wGAV6HdDgAAAABcUg6KmuQFAF6FSV6uJMu5djsA8Cq02wEAAACAS8pBUZO8AMCrMMnLlWQ5124HAF6FdjsAAAAAcEk5KGqSFwB4FSZ5uZIs59rtAMCr0G4HAAAAAC4pB0VN8gIAr8IkL1eS5Vy7HQB4FdrtAAAAAMAl5aCoSV4A4FWY5OVKspxrtwMAr0K7HQAAAAC4pBwUNckLALwKk7xcSZZz7XYA4FVotwMAAAAAl5SDokIIIYQQrx4meXmPspwLIYQQQrx6aLcDAAAAwP/H3h3k2G5l54IeTc2ghlBDqOHkGCpH8DQCGYZbTuB1bMgtlzoG1DBQcucpO3JDHTUEQymr3kqBKd7/7s2zeOLGjSD39wEb0o3Y3IfkWTxc5NrBw63lTVFN0zRN07SrN0Ve7ijjXNM0TdM07epN3g4AAAAA3FreFNU0TdM0Tbt6U+TljjLONU3TNE3Trt7k7QAAAADAreVNUU3TNE3TtKs3RV7uKONc0zRN0zTt6k3eDgAAAADcWt4U1TRN0zRNu3pT5OWOMs41TdM0TdOu3uTtAAAAAMCt5U3RrcEdZZyLdYBr+/Of//zR57oiL3eVcS6X4c4yzsU6wLXJ2wEAAACAJeVNUYUv7izjXKwDXJsiLyvJOJfLcGcZ52Id4Nrk7QAAAADAkvKmqMIXd5ZxLtYBrk2Rl5VknMtluLOMc7EOcG3ydgAAAABgSXlTVOGLO8s4F+sA16bIy0oyzuUy3FnGuVgHuDZ5OwAAAACwpLwpqvDFnWWci3WAa1PkZSUZ53IZ7izjXKwDXJu8HQAAAABYUt4UVfjizjLOxTrAtSnyspKMc7kMd5ZxLtYBrk3eDgAAAAAsKW+KKnxxZxnnYh3g2hR5WUnGuVyGO8s4F+sA1yZvBwAAAACWlDdFFb64s4xzsQ5wbYq8rCTjXC7DnWWci3WAa5O3AwAAAABLypuiCl/cWca5WAe4NkVeVpJxLpfhzjLOxTrAtcnbAQAAAIAl5U1RhS/uLONcrANcmyIvK8k4l8twZxnnYh3g2uTtAAAAAMCS8qbomcLXn/70pw8avHcZ591Y//777z+I9fo3AG9PkZeVZJyfyWWu6ptvvvkgB/vpp5+yy9Nec2xeLuO8G+vydoD3Sd4OAAAAACwpb4qeKXz94Q9/+KDBe5dx3o31b7/99oNYr3/TV5Mdfvzxx7+1X375Jbv8zdb3u+++++t+zlYF9m2cn3/+ORcHFqPIy0oyzs/kMldVk+v2OVid/z+V1xybl8s478a6vP1l5O3Aa5G3AwAAAABLypuiZwpfJmdyNRnn3VhX5H2ZM5Mfsm+nffnll79+9dVXfy0AHxWQgftR5GUlGedncpmryrzgKIc46zXH5uUyzruxLm9/mTPHRfbtNHk7rEveDgAAAAAsKW+Knil8ZaHlLVRBZ3syx1HhCErGeTfWFXlfJgu3R8dq9n2mVcH3hx9+yKGBG1LkZSUZ52dymavKvOAohzirvtb8tcbm5TLOu7Eub3+ZM8dc9n2mydthHfJ2AAAAAGBJeVP0TOHrPahi0VbYUXjjkYzzbqwr8r5MFm5fu8i7tRrLVyjCvSnyspKM8zO5DB/L/O4oP+Hzyzjvxnq+r/L2czIXPzousu9Lmrwd7k/eDgAAAAAsKW+Knil8vQf74pvCG49knHdjXZH3ZbJwe6bIO9vX9dTcGue777779euvv/71j3/840dF3q3V1yYC96TIy0oyzs/kMnws87uj/ITPL+O8G+v5vs5yScYyFz86LrLvbF/L24EibwcAAAAAlpQ3Rc8Uvt6DfUFoVgyCTcZ5N9YVeV8mC7efosg7UsXcL7/88qMi76PXBK5LkZeVZJyfyWX4WOZ3coX3JeO8G+v5vp7JJfk4Fz86LrLvmX0tb4f1yNsBAAAAgCXlTdEzha/3YP/UjTPFINaUcd6NdUXel8nC7VHBNfue3df1ZJ5Robc+K3766afsDlycIi8ryTg/k8vwsczvjvITPr+M826s5/t6NpdcXebiR8dF9j27r+XtsBZ5OwAAAACwpLwperbwtW8j9USMWZ8ffvjh16+++urXL7744m+FmPr/KvJk3739ePsizrbc1nwlGinj/Eysny08/vzzz3/tV3G5j/FqVYTc4rWKko9sY21tXySt5bfX2U9W3l7jqKA6Uq9Vx+Y333zz1zFqzPr6wTqecl2Pju+9LNwerVP2PRp3Zlborc8b4F4UeVlJxvnZXOaZHLmz3L7PmfN2Z7nMNSpPOVI5wPbVyXmNUT/b5yA1Xjc/4fPLOD8T62dzSXn77zIXP1qn7Hs07oy8HdYhbwcAAAAAlpQ3Rc8UvrKAMpIFmzIrwGSrZbOoVLLfrNXysJdx3o31s0XeKpBmPM5aFVEfjVdF0f0yNX6pJ8rkeKP2aPxNFW1z2Wz74zKL1zP5OfDaRd4y+5x5NKkDuBZFXlaScX4ml8lzeVdnuTzXdnWWy7zgKIeovGh07s9Wk9dK5ndHY/P5ZZx3Yz3f10e5pLz9Q2eOuezbXfckb4c1yNsBAAAAgCXlTdEzha8snoxkwabUUzBy2VkbFYGzz6yNlmVtGefdWD9T5K2Cf8Zip82eRlWyyFuxXQXe/RN3HrWj8UunwLu17dga/WwkPwc+R5G3VKE31/0l4wHvjyIvK8k4P5PLdM/Ze6P8YyTzka48R49kXjDLIc7mRTVhLvO72di8jYzzbqzn+3qU+8nbP9Y95kr2PdrXj8jb4f7k7QAAAADAkvKm6JnCVxZPRrJgsy+AbV+5VsWqKvrUV7KNnpiRBaH6d7X6ysIce/tdtRoX9jLOu7HeLfJmv2o1GblidYvjisuK9SzQ1r9nT4fJIm8dJ9vTb2q5mmBQY27HUr1ejl/9Z0YF3nqNGqfGrGLp9pWJ2++zmP0ei7wlJ4Mf7QfgehR5WUnG+ZlcpnvO3sv8Y7Zcnru79svMlsuxZzlEPhVwnx9VHlP5TOU7+7wgTB73LAAAVNxJREFUrztmY/M2Ms67sZ75+CyXzH7V5O39Y65k39m+7pK3w73J2wEAAACAJeVN0TOFr33hpNpIFmy2NnsaSBWTcpkq0oxk4eulxSDuL+O8G+tZvJ3FWk4MOCp8Vqxn/9m4Getbq0LsrDA8+urEKtSO5OSE+vf2FYhpVBCudrSteUx/ziLvaH2B+1DkZSUZ52dyme45ey9zidlyee7u6pyfc+xRDjHKk2Y5T8mJakdj83YyzruxLm//3SgPrna0rZ1jbpN9Z/uka7S+wH3I2wEAAACAJeVN0TOFr07hJAs21WYTMzdViNr3nz0xIwtfLy0GcX8Z591Y7xR5R0XVo2JmyQLkrFCasb61WYF3k0+fGa13jbHvU0/umRV4N7k/jta95OfA0X7JvqN1PmO074D7UORlJRnnZ3KZ7jk7dZbLSWtdnfNz5gWjHCInW3Zyhxx3NjZvJ+O8G+uZp47iQd4+XveSx8bRfsm+o3U+Y7TvgPuQtwMAAAAAS8qbomcKX53CSRZsOgWk0hk7izcvLQZxfxnn3VjPouYo1iquKyarcFu/r68WfKSWyeNjJGO9Wk1EeCQnOo+eQrv/ysNZn5SF4Wrvtchbcl2rIA/cgyIvK8k4P5PLdM/ZqbNcnme7OstlXpA5ROZS1R5Ngis50W40Nm8r47wb6/L2D8nbgfdC3g4AAAAALClvip4pfGXhZCQLNlVQ6sixR0WhLHx9imIQ95Zx3o31TpH3WRnrIxnrs2Mi5XKjQmweo4+ebLvJ5UZjb7Lv0bpn30+xr/fjPXp94FoUeVlJxvmZXKZ7zk6d5fI829VZLvOCPIdnrjN74n7KiXajsXlbGefdWJe3fyyXG429yb5H6559P8W+3o/36PWBa5G3AwAAAABLypuiZwpfWTgZyYJN56kkJZcbFWWygPUpikHcW8Z5N9bfY5G3I5cbTVjoHGsjuU8UeYG3oMjLSjLOu7lMTkQ8OmenznJ5nu3qfB165gV5Dq9ri846jnz55ZeHY/O2Ms47sV4yR/0UueRmP+4sZjP/nvVLuZy8/fHrA9cibwcAAAAAlpQ3Rc8UvrJwMpIFm25xpbNcFrA+RTGIe8s478Z6FjQ7sVbxuX1VYsVzTkCYtZGM9dnXKKZcbjR+/r4mcHTkVy9eqcjb+bpT4BoUeVlJxnk3l8l84OicnTrL5Xm2K8/5I9knc4hncrTNo7F5WxnnnVgvz8SEvP13Z46L7NvZ14/kNsrb4T7k7QAAAADAkvKm6JnCVxZORrJgc1Tc2esslwWsT1EM4t4yzruxfqbIWwXEjN8zbSRj/aigupfLjcZ/9PuZHPtonXJ/jI7nTfY92tcduZ5nthF4/xR5WUnGeTeXyXPh0Tk7dZZ79jyb5/yR7JM5xJkcLT0am7eVcd6J9XImJuTtH8v9cXRcZN+jfd2R63lmG4H3T94OAAAAACwpb4qeKXx1CidZsPnpp5+yy1AuNyoKZfHmpcUg7i/jvBvr3SJvfbVmPR0nj419q6/QrPjeWv5+JGP9qKC6l8uNxn/0+5nO2JvcztHxvMm+s33dVU9B2o83+opI4LoUeVlJxnk3l8lzdjePKJ3l9n2qdeXTCUcyL8gcopujjeTY9XRB3o+M806sl25MyNvHcjvzmNvLvrN93SVvh3uTtwMAAAAAS8qbomcKX50CTxZsunK5UVEoi0wvLQZxfxnn3VjvFHmzmLi1b775Zhi/m+w/s++jyNv31VdffTDe119/nV2AC1PkZSUZ591cJs/Z3TyidJbb96nW1Vku84LMITo52kyOfWZZXl/GeSfWSycm5O3zZfO4ONof2Xe0r8+Qt8O9ydsBAAAAgCXlTdEzha9OgScLNl253KgolEWmlxaDuL+M826sd4q8+fSnetJOfVXiI/tljo6RfZ9ni7yj5bqvn+rpUt1lO8fzJvuO9nXXL7/88tE6VjEeuA9FXlaScd7NZTr5wEg98b6zXJ5ruzrLZV6QOUQnR5vJsc8sy+vLOO/EeunEhLx9vmweF3nM7WXf0b7ukrfD/cnbAQAAAIAl5U3RM4WvLJ6MZMHmqLiz11kuC1gvKQaxhozzbqw/KvLm5IVqnWLiaLmZfZ9RsXYkj5HRclWM3vcZHWsjuU+O1r1zPG+yb+7rM3Lb6qsrq/AL3IciLyvJOO/mMpkPdL8qOCd0jfKIsu9TraObA2VekDlEbttsHUdygt5Lcg4+vYzzTqyXzFHzfR3Fnrz9d4+Oub3sm/v6jNw2eTvcj7wdAAAAAFhS3hQ9U/jqFHiyYHNU3NnrLJcFrJcUg1hDxnk31rOgmbGWsVitU0wcfaXizL7PqFg7kus1Wi6PtU5xumQB9Wjd8zVGx/Mm++a+7qqvQcz189WIcD+KvKwk47yby4yeSNeR+c8ojyg5dicHyomfs3XKvCBziMx1uhNP6ymJ+frP5hy8jozzTqyXjNt8XzNmqnViVt7+seyb+7pL3g5rkLcDAAAAAEvKm6JnCl9ZQBnJgs1RcWcvlxvJAtazxSDWkXHejfWzRd4qgHbkE5tmsV72fUbF2pFcr9Fy33zzzQd9vvrqq+zykdGEhqN1z+P56HMg++a+7hgVeKt1vq4SuBZFXlaScX4ml6mn0HXO2XuZp4zyiJLn7qPz/CaXma1T9suxRzlJ53z/3XfffbTcMzkHryfjvBvr8vYPjY6Ro3V/dMztZd/c1x3ydliHvB0AAAAAWFLeFD1T+MoCykgWbI6KO3u53EgWsLpPymFdGefdWD9b5K32qKA4mhRQrb4ycST7deR6jYq8+RWNna8QrEJwrs/ROuXxfPQ5kH1zXx+p9Z4VeGt/A/ejyMtKMs7P5DJ5fn30xL3RUwJHeUTJc++jc3fmHlsbyfUe5RCZlzx6/coXRhPtHi3H55Vx3o11efuH8vh4tE6dY26TfXNfH5G3w3rk7QAAAADAkvKm6JnCVxZRRrJgc1Tc2cvlRrKAVe1RoZm1ZZx3Y/1RkbdkLI76lCxE5pOsZsXIHL8jj5FRkbfkBIV6gtCs0Dsroh6tUx7PR58D2Xe2Hze1nvXVqEfr5WsR4b4UeVlJxvmZXCafuFfn29m5vs7TmZ9sy4zkxLXKK2Zj1+Sy0djVRjIvGOUQo4mks2uCWq/RVzxXe5Rz8HllnHdjXd7+u6P8eKZzzG2y72w/buTtsDZ5OwAAAACwpLwpeqbwlYWUkSzYHBV39nK5mVyHKlZVUWhrsJdx3o31TpE3Y7ZaFRerAFkq9mu5fUG1JkrkZIkqsNaEgnwST47d0S3y5vZVq/Wsdat12dZ9P5khi6pHXwmZ++bocyD71nrUz6rVOtQ6bf/O4vSoKfDCvSnyspKM8zO5zOirjevcXefkyjnq93XO3+clea6f5RE14SonrdW/Kweq8bcJWXUe3/qNzuMjmRfMcojR69f61zbVto3ysHyi4Ci/4+1knHdjPfPa0fuacVVN3v6b3DezY65kX3k7cETeDgAAAAAsKW+Knil8ZTFlJAs2R8WdvVxuJvtlg72M826sZxF0VOStwn9ODDhqW/Fx9LSnre2Pl/xdR7fIW7Joe9S2wm937DxOjz4Hsu+zrd6L2dOMgPtQ5GUlGedncply5ly/nddHPxvJXOmobU/6y3P+SPaZ5RD18zN5WOUyuc6j/I63k3HejfXO+ypvn4/dPeZK9n22ydthDfJ2AAAAAGBJeVP0TOEriyojWbA5Ku7s5XIz9ZSSo6dwwF7GeTfWO0XeUk/b6RR686kwswLr5yzylnwaULbatupTzoydx/PR50D2Pdtqwke9P7OvdwTuRZGXlWScn8llSp0b82mRo7b/muT90/eOzvX59c+zVrlETYwrec4fyT5HOcTRV6bv25aHdfM73kbGeTfWu++rvH3szDGXfc82eTusRd4OAAAAACwpb4qeKXxVMWbfRvZfZVYtv/JtJpfbirgjWzF4Xxyq/89CGmScd2O9njizj8f690zFYxUZs1hZk4hrQsSswFljbnG8xe8+7vevX62jjrf9MluB9pFax9qGWt9arv6/nmazL5xmkbf6zuTxfPQ5kH2PWu2jWrdq29eWAmtR5GUlGedncpm9OqfXeXT/B041kat+ljnO/rzcySO2nCn/eKp+lrlEnvNHss9RDlEqF9hymFyH+tn2tdUl86Tcdt5Wxnk31uXt8nbgfZK3AwAAAABLypuiZwpfcDUZ52L9eVnk9VWEwFtQ5GUlGedyGe4s41ysP0/eDrwH8nYAAAAAYEl5U1ThizvLOBfrz6snT+2LvEdP1QF4LYq8rCTjXC7DnWWci/XnyduB90DeDgAAAAAsKW+KKnxxZxnnYv33r//cvpqxvta0U7CtvluBt5YBeAuKvKwk41wuw51lnIt1eTtwbfJ2AAAAAGBJeVNU4Ys7yzgX67/58ssvP3iazlGh95dffvn1q6+++qB/FYgB3oIiLyvJOJfLcGcZ52L9N/J24Krk7QAAAADAkvKmqMIXd5ZxLtZ/8+OPP35QtN0KvfUViFXU3dS/6+fZb98H4HNS5GUlGedyGe4s41ys/0beDlyVvB0AAAAAWFLeFFX44s4yzsX67/KpOt1WhV+At6LIy0oyzuUy3FnGuVj/nbwduCJ5OwAAAACwpLwpqvDFnWWci/Xf1VN0vv3224+KuEet+gO8JUVeVpJxLpfhzjLOxfrv5O3AFcnbAQAAAIAl5U1RhS/uLONcrH/s559//vXrr7/+qKC7tS+++OKvxd3qB/DWFHlZSca5XIY7yzgX6x+TtwNXIm8HAAAAAJaUN0UVvrizjHOxfqyeyvPjjz9+0ADeE0VeVpJxLpfhzjLOxfoxeTvw3snbAQAAAIAl5U1RhS/uLONcrANcmyIvK8k4l8twZxnnYh3g2uTtAAAAAMCS8qaowhd3lnEu1gGuTZGXlWScy2W4s4xzsQ5wbfJ2AAAAAGBJeVNU4Ys7yzgX6wDXpsjLSjLO5TLcWca5WAe4Nnk7AAAAALCkvCmq8MWdZZyLdYBrU+RlJRnnchnuLONcrANcm7wdAAAAAFhS3hRV+OLOMs7FOsC1KfKykoxzuQx3lnEu1gGuTd4OAAAAACwpb4oqfHFnGediHeDaFHlZSca5XIY7yzgX6wDXJm8HAAAAAJaUN0UVvrizjHOxDnBtirysJONcLsOdZZyLdYBrk7cDAAAAAEvKm6IKX9xZxrlYB7g2RV5WknEul+HOMs7FOsC1ydsBAAAAgCXlTVGFL+4s41ysA1ybIi8ryTiXy3BnGediHeDa5O0AAAAAwJLypqjCF3eWcS7WAa5NkZeVZJzLZbizjHOxDnBt8nYAAAAAYEl5U1ThizvLOBfrANemyMtKMs7lMtxZxrlYB7g2eTsAAAAAsKS8KarwxZ1lnIt1gGtT5GUlGedyGe4s41ysA1ybvB0AAAAAWFLeFFX44s4yzsU6wLUp8rKSjHO5DHeWcS7WAa5N3g4AAAAALClviip8cWcZ52Id4NoUeVlJxrlchjvLOBfrANcmbwcAAAAAlpQ3RRW+uLOMc7EOcG2KvKwk41wuw51lnIt1gGuTtwMAAAAAS8qbogpf3FnGuVgHuDZFXlaScS6X4c4yzsU6wLXJ2wEAAACAJeVNUYUv7izjXKwDXJsiLyvJOJfLcGcZ52Id4Nrk7QAAAADAkvKmqMIXd5ZxLtYBrk2Rl5VknMtluLOMc7EOcG3ydgAAAABgSXlTVOGLO8s4F+sA16bIy0oyzuUy3FnGuVgHuDZ5OwAAAACwpLwpqvDFnWWci3WAa1PkZSUZ53IZ7izjXKwDXJu8HQAAAABYUt4UVfjizjLOxTrAtSnyspKMc7kMd5ZxLtYBrk3eDgAAAAAsKW+KKnxxZxnnYh3g2hR5WUnGuVyGO8s4F+sA1yZvBwAAAACWlDdFFb64s4xzsQ5wbYq8rCTjXC7DnWWci3WAa5O3AwAAAABLypuiCl/cWca5WAe4NkVeVpJxLpfhzjLOxTrAtcnbAQAAAIAl5U1RhS/uLONcrANcmyIvK8k4l8twZxnnYh3g2uTtAAAAAMCS8qaowhd3lnEu1gGuTZGXlWScy2W4s4xzsQ5wbfJ2AAAAAGBJeVNU4Ys7yzgX6wDXpsjLSjLO5TLcWca5WAe4Nnk7AAAAALCkvCmq8MWdZZyLdYBrU+RlJRnnchnuLONcrANcm7wdAAAAAFhS3hRV+OLOMs7FOsC1KfKykoxzuQx3lnEu1gGuTd4OAAAAACwpb4quUPj6/vvvf/3222//1n7++efs8rTXHJuXyzi/e6wD3J0iLyvJOF8hl3nN3Po1x+blMs7vHusAdydvBwAAAACWlDdFVyh8/elPf/r1D3/4w9/ajz/+mF2e9ppj83IZ53ePdYC7U+RlJRnnK+Qyr5lbv+bYvFzG+d1jHeDu5O0AAAAAwJLypugKha/XLMS+5ti8XMb53WP9vamnUu2PjzpeZurY2fc9ajXOV1999dfxf/jhB0++goUo8rKSjPMVcpnXzK1fc2xeLuP87rHOpzG6hjiSfWftyy+//OtnRl1vfPfdd7/+9NNPORTwgLwdAAAAAFhS3hRdofD1moXYmiD2WmPzchnnd4/19+a1JmeOWhVQq3BqoibcmyIvK8k4XyGXkbevK+P87rHOpzG6hjiSfc+0L7744tdvvvnGRE1okrcDAAAAAEvKm6IrFL6qeFJFm6398ssv2eVpOflMkfd9yTi/e6y/N3l8vObkzH2r1/2UxznwfijyspKM8xVyGXn7ujLO7x7rfBqja4gj2ffZVtc1/igMjsnbAQAAAIAl5U1Rha+XUeR93zLOxfrnlcfHmcmZ9WSaWv7777//2wSN+vfWaqw//vGPHxVK98vXV54D96LIy0oyzuUyL5N5ibz9fck4F+t05DVEtSPZd7u22K436kn828/qabt1TZHLbK2uRaofMCZvBwAAAACWlDdFFb5eRpH3fcs4F+ufVx4fZyZnHvXdqydsff3119OJmo5JuBdFXlaScS6XeZnMS+QI70vGuVinI68hqh0503dTT/Ctz4/ZRM36qnPgY/J2AAAAAGBJeVNU4etlFHnft4xzsf555fFxNOEyC6tHfUeqaPrll19+VCytSZs1gRO4B0VeVpJxLpd5mcxL5O3vS8a5WKcjryGqHTnTd6T+KCzHqFZP+wc+JG8HAAAAAJaUN0XPFL62r/qqdmayU2e5fZ8zhdLOcvWa+z41ieuR6lN9t68zq6dh1P/n1yQr8r5vGefdWP/5559Px0x5Zrkt1qpVUW/7Gr36/xrvJfZj1mTHfRx31q3s1y+3qdZvW99qub55fBxNuKyxu31nZhM06yk3wD0o8rKSjPMzucz+3D3Lv0c6y+37VOvqLCdvX1fGeTfWH+Xf9e+KhXr/6yurZ3G9qfG2r7aufHSLpUfLzWyvvcVntW1dzsRgHhtpe52aPLi9Rl0HPLve+/02uy7J64RRn5H9Pq7jddvP1Ubv4ZHqn7n/kTN9Z2YTNLvbD6uQtwMAAAAAS8qbomcKX/vCw5mJU53lsrDR1VmuXnPfZ1TM2psVW7ZWE722Ipci7/uWcd6N9Wff17PLVaFz9vV4W6vJhlW07Bb7qpj5KIa31vkKvix4ViG11LI5Xm5v7o/Z8V/ydY76HplN0MwJGsA1KfKykozzM7nMs+fUznJ5ju3qLCdvX1fGeTfWZ+9r5X4ZT1urJ6vXBMa9Tg7dfTpijVW5cr1OjpGtYrQTi7ktm871RO2jrlrv2Xjbdck2ebKuC/a/f7QdR+/JvtV+q3XuTNLMa4hqR870PTKKlc61FaxE3g4AAAAALClvip4pfO0LD7NibaoJZZ3lsrDR1VkuC0CzolGnILe17auSZ8VA3oeM826sP/u+ZvzMlqvC5KzoOWudr+eu348mJh61Oj6OCp9Z8NyenpPjVMvtzf04O/5Lvs5R30dqe3L/ZgEeuCZFXlaScX4ml3nmnCpv5y1lnHdjPd/XyrMzr5y1/aTFyhXz96P2aALe7A+FHrVH4+axsT3ZMseZtUfjl+4xVdtXr5/7/uiYml0/HLU6do+uU8rovT5ypu8jGTO1vsDv5O0AAAAAwJLypuiZwte+8DAr1qYslsyWywJWV6e4koWsWdEoiyvVtqeqVOGpWo21PQFl+11nbN5Gxnk31s8UGvc6sVaTAzLOqtWy29dwVmE0JxdubTZBs15r9HSeOrZq7Go17qzP7MmceQyPnpi5tdze3I+z47/k6xz17Rit52wbgetQ5GUlGedncplnzqndc7G8ndeQcd6N9cw384mVFQdH+XXl1vtJifs42sfQ/vdHEwbz+Mgxt3XJcasdPek9j416auV+jO2pltt659jVjnLh0cTM/XrX2Pttq//PfT87pmaTSLd13r7ifLTvZp9Dm/zcqnbkTN9HRtd13aerwgrk7QAAAADAkvKm6JnC15kiySaLJbPlsoDUlcWQkRx7VDTKJwVVqwLVyNHTUEZj83Yyzrux3i00pk6s5cSAowJvxWUWkWdxma896zt70tSob8ljeL8+tcxW5K1+uR25H2fHf8nXOerbMTqmR+8HcC2KvKwk4/xMLvPMObV7Ls6coyvPyyM59ujcPTrHz/IYeft1ZJx3Yz3zza1tT3fcq39njO1z29HEupqAlxMpazLhyGgSYq3fyCg263Vmcr23NtrOUuvdvY4YTTKc9d0/ATP3y+yYyu2s9ZrJr0qvNnpfNvm5Ve3Imb4duY9n7zesSN4OAAAAACwpb4qeKXztiw6zYm2qQlFnuSzYdHWKK1nIGhWNsqg3W89NbVcWYmZj83YyzruxnvHQfV/zaY2j5TJujp6QU7JYOirajoqSs4LqppbZF1Rnk0RHY3fWu+R+PDqu8nWO+nad3dfA+6fIy0oyzs/kMs+cU+XtvKWM826sZzxUm01YLKPJvdVmEy5LThicxVz+AdTRJMQyWpfZ0y3z2NjWY7adJb9KfHQdUfIaZrZ9mxx3a6NjarSNR5MtS+7HowmPeQ1R7ciZvh257x5dg8FK5O0AAAAAwJLypuiZwte+6PCoYLPXWe7ZIklnuSxkjYpG3ad+7GUhprscn0/GeTfWs8jbfV87y+1/P5sQmWpSYRUxa7xR/4zxblEwC6ujovSo4Dk7jlPuj6Pl8nWO+nblfjkq7ALXoMjLSjLOz+Qyz55TO8vt+1Tr6iyX5+5RLiVvv6eM826sZ75Z7dEf5OQE40c5eU4wnE26rFy6Yrha9Xk0CbHkU/VncZnHxlHfvVxmtJ3PHFO5D2fL1R+abfuklpntu70z1wXZt9qRM307Mv6O1hVWI28HAAAAAJaUN0XPFL6eLTp0lnu2SNJZLgtZWTTKJxPOxkmj5XJs3lbGeTfWs8jWfV87y2Uh8+jJPl0ZhxWbXfsnSY2KpaOC56OC9yb3x+z4L/k6R3278tg3OROuT5GXlWScn8llnj2ndpbb96nW1Vkuz92ZS43y747Rcjk2byvjvBvrmW/Ong65l3HW+cOmjJ9PJdd/lq/mOtc1REdee2TcZw7e2X8l/8hrNPZLdNcp17/akTN9O7pPVYUVydsBAAAAgCXlTdEzha9niw6d5Z4tknSWy0JWFo1qollnHUfyKxJzbN5Wxnk31rNI2n1fO8uNntz0kgma+SSfo+LlSB4faVTw7K5r7o+jYytf56hvVz6JaFbsBq5DkZeVZJyfyWWePad2ltv3qdbVWS7zksyl5O33lXHejfUz+eYm46zzhMt9/2qfSq7/LF/Nda5rio5cLuP+2Ry8rgdyn+TYL5Fjz+T6H/UtZ/p25Ot3J83CCuTtAAAAAMCS8qZot/CVT5vpFm1KZ7lniyRZbBrJPlk0yoJY58kpm0dj87YyzjuxXnJSX/d9zVgaLZcFvK3VhIEqstakg+7kx5LjVUGwftZt+TSdfOpmjj96uuZM7o/Z8V/ydY76duXxOSt2A9ehyMtKMs67uYy8fezR2LytjPNOrJeMiU6+90ws7PtX66o/pKrxa732rWK31iMnDc/WP9e5ntjYkcvltj6z/za5T3LsI9W3JsXmfqn1zXWuNpPXEEd9y5m+Hbn/Zp+bsCJ5OwAAAACwpLwp2i18ZdHjTNGhs9yzRZIs3IxknywaZUHlTEHq0di8rYzzTqyXZ9/XjKXZcqOvAcxWkyZrvCroHumMdablOr/k2M/9cbTsS15nJt/HzlORgPdNkZeVZJx3c5mXnFM7y+37VOvK8/JI9sm8JHMLeft9ZJx3Yr08ExMZC4/y7bLvX+1IjZd/7NVts/XPde7Gby5Xfwi298z+2+TYj9apJpTmZNRum8nPu6O+5Uzfjtx/9b4Dv5G3AwAAAABLypui3cJXFj1mxdqRznLPFknyqX8jj4pGWVB5zYIUn1fGeSfWy7Pva8bS0XL1u27RtvplIXWTr/nSluv8kmM/1+1o2Ze8zkx9xfvRtgHXo8jLSjLOu7nMS86pneX2fap1yds5knHeifXyTExkLHTs+x8tUxMQMwc902brn+vcjd9cLsd/Zv9tcuzZOtXTfPP4P9tm8vPuqG8507ejnoC6H+/M/oO7k7cDAAAAAEvKm6LdwlcWPWbF2pHOcs8WSTrLPSoafcqCVPfr5fg8Ms47sV7yfc2YmclY6ixXX2FecdMpWI6On3zNKgZXv2fbo681H63DTK7b0bIveZ2R/ErXame+Lh54nxR5WUnGeTeXeck5tbNcnl+7OsvVa+77ZC6VuYW8/T4yzjuxXp6JiYyFjn3/2TKzP7yqCXy1XhVzFdP71p3cl+ucx8ZMLpd/8PXM/tvk2KN1qtfb99laPUGzXqta7pP8DKs2c6ZvOdO3Iyfi5v6FlcnbAQAAAIAl5U3RbuErix6zYm2qyVCd5Z4tknSWe1Q0+pQFqTPL8voyzjuxXvJ9zZiZ+eabb55ablNfgVhfvV1F2iz0ba1eYy/jd3aMPevZY7+cWbeXvM5Ivhc1+RW4PkVeVpJx3s1lnj2nytt5SxnnnVgvz8RExkLHvv9omTzuqtXr5B8+pe765zrnsTHzaLnu64/kH5eNJjzn15jXNU5d7xwZ/ZHVzGi/HznT95HRxFN/DAa/k7cDAAAAAEvKm6LdwlcWPboTnXK5T1nkrYlsneUeFaSyqFJPPOnKgtSZYhavL+O8E+slY6b7BJRcLmPtrJxguLW9KoLuf9c9Nru6x/BIFnuPln3J66Qq6Obk1lGxGLgeRV5WknHezWXynNrNDXK52bl436dah7ydRzLOO7FeMt/svK8ZZxWfj+z7V0v51MzKRTtyudn65zrnsTHzaLln9t9mv9xo2fxMqfZoYmYZLTdzpm850/dITcLMz5TuZy2sQt4OAAAAACwpb4p2C1/dgmrKiWOfssjbLcQ8KkjlON2iSj5dqFoWpHhbGeedWC/drxdMOSEwY+0ZGb/V9k/gyfit9inl+LNjeCSLvUfLvuR19uqzKt+Hap2iO/D+KfKykozzbi4jb/+YvP39yzjvxHrJfLPzvj6Ks5GMn5Rj1vVER07wm61/jt9Z5/JouZzwPDvu0+hzJtc9x67WebJkTeDM5WbyM+GobznT90hOqq3WmXgKK5G3AwAAAABLypuiZwpfWXzoyGLQrNiTRalHX/9WRk8VHMl1yILU6GvTni0aZUGKt5Vx3o31Z4q8o8JgxtozKhbz6wDzKZD5ut0nfXbkds2O4ZHcj0fLvuR1NqMn2FTrFseB90+Rl5VknJ/JZfJc2JE58+xcnOdaeTufQsZ5N9Yz3+y8r4/ibCTjJ+UfB3Xy8cx/j9b/mXUuj5YbHVMdo2M61z3fm9lnSsprn6N1Gu3DI2f6zuQf8lWrdQY+JG8HAAAAAJaUN0XPFL7OFmJHT9OYFWTyyROPnjpRRdgsgFUbeVSQKlkA6hTTcp2rZUGKt5Vx3o31fMpL5yszR0W6jLWKj4rHirdqnckEJWMt4zNfe3acpTqG67iu5WvM0fpkwbM7djlTkH3J65TZxMz6nBhtF3BNirysJOP8TC6T50R5u7z9vcs478Z65pud97UTZ2nffzQRL8fMP6YayWWq1aTHkezbWefSWe7sMTX647Fque9zUvRov6VcZmszeQ1x1Lec6TuS111be7TPYEXydgAAAABgSXlT9EzhK4uaR0+jm02UmhV5s6j2aDLcrCgy0ilI5es/mtA1KxplQYq3lXHejfXRE2SOvhZ7Fg8Zaxm3s+NhLyeKjtZl9FXenYkSWVQdFYOz4NlZ500eV0fLPvs6te213rn9W1MohXtR5GUlGednchl5++9meZq8/X3JOO/GesZD533txFna9x8dGxnndUzNVLxm/0fL5Tp3c9xcbrSt+RTMOqbyemMz+7yolvs+8/vZ629qm2Y5/Wy50WscOdN3U9tcnyN57bS10TUUIG8HAAAAABaVN0XPFL5Gk8SyAFO2p/HV77NwMypkldHTekZF5P3YVbjJ4s1IpyA1ev16nexb/eopKFuffP3R/uDtZJx3Y71k7Na/86lTVajbx0Muk/EzKh7WhIbst6nXyxirf49kYbpaFQpHkxXq9XJdZxMbcp1nx/BIrtPRsvk62/E3ajVufT7MCqRbezRBFbgeRV5WknF+JpeRt8vbrybjvBvrOfm287524izt+4+OjX2s7dcl8+s6NvfH2miSZi5Tcp0721lyudG2jv4wrdYxn6y/v4ao4ylz8dHYedzV+mS/7Y+t9n1yvWcTIPMaotqR7JvXGVur97NeM9cj2+izD/iNvB0AAAAAWFLeFD1T+CpZgNnaqIBShZgs9IwKWZtRYWo/dhZ2aux8zZHsk8Wgzez163VrjNz2mlSXk8+6RTI+j4zzM7Gehd6tVRyM4qHiJ+NhFGuzOKtW4z4qAuYE0c3RU2zq5xWvs99Xmz19JwueR8dwyv1xtGy+zktaHbOjfQ9cnyIvK8k4P5vLZK6yNXn7b03e/r5knHdjPXPIzvvajbO9ff/RsTF6Kv3WKv7yNattf0iUP69WsbyfkJhPt+xsZ8nXnW3r7Nqn2mi7Rsf0aOw87vZj1n7Jset6pfZlbu/W6jX310P5/lc7kn1f0rrvAaxK3g4AAAAALClvip4pfJUqfmSxdda2osm+4DIqZG1GX808a1shKwtCI9lnVDTazAq92baiURabFGjel4zzM7Fe8itBZ237Os8sas5iLeOm2zpPgpwVMmdtm4wxkwXPo2M45XYeLZuv80yrbRk9oQi4D0VeVpJxfjaXkbf/1uTt15Bx3o31zCE77+uZONtkXI2cOeb26zmL5f0xmPHbuS4oZ7Y1r2VmbXZMz8Y++gOxfduO1TL6BoHR6+T7X+1I9n2m1fs1+9p34HfydgAAAABgSXlT9Ezha1OFiKMCSxVp9gWTfdHmqMhbqhiTRZ59275ebZN9R7LPrGi0qcLX0fbVRLytGJNfGdkpBvL5ZJyfjfUy+orCreVkwCwOHsVaFRyrsDcrOu5foyZcnikA1utW3B+NXZMvat0fjZvb9OgY3ssi8tGy+TqdVsdpjVn7Z/bkT+BeFHlZScb5M7mMvF3efhUZ591Yzxyy876ejbOSsTVT8Xb0B16Vg48mVlY+m0+R3B+DmVd31rmc3db6fb1WLlfrlpMSs8/R2HVNNbs2yWuqTV0vjY7v/evk+1/tSPZ91LZvTahtr/ct1xGYk7cDAAAAAEvKm6JnCl+pCjNVDKlCSxVT6v8fTfTqqqJHjVcFkG3so6f7vYZtHer1axs/5fbxeWScPxvrpd7/KupXPFRcHhUfz9rH+ta213hpAXA7Tvdx/CnXHeBzUuRlJRnnL8ll5O28dxnnz8b6e7HF5P6Y6+Tg27H6Xhxdi+TkzI76bNiuqeq/neudbV86puFa5O0AAAAAwJLypugdCl8wk3Eu1gGuTZGXlWScy2W4s4xzsf7+nXnSLrAeeTsAAAAAsKS8KarwxZ1lnIt1gGtT5GUlGedyGe4s41ysf171ZMr9Ey0fqadY7p+aWU8IBdiTtwMAAAAAS8qbogpf3FnGuVgHuDZFXlaScS6X4c4yzsX65/PNN998MNGyWn39+Ex9zXh+pflRf2BN8nYAAAAAYEl5U1ThizvLOBfrANemyMtKMs7lMtxZxrlY/3xqsuUf//jHDyZb1r9HEy7rqZrZ11eaAyPydgAAAABgSXlTVOGLO8s4F+sA16bIy0oyzuUy3FnGuVj/vOpryfPpmTUJsyZeVvv6669//eqrr4Z9anInQJK3AwAAAABLypuiCl/cWca5WAe4NkVeVpJxLpfhzjLOxfrnN5p8+ajVkzQBRuTtAAAAAMCS8qaowhd3lnEu1gGuTZGXlWScy2W4s4xzsf42fvzxx78+KTMnYWarJ2lWX4AZeTsAAAAAsKS8KarwxZ1lnIt1gGtT5GUlGedyGe4s41ysv62ffvrp1++///7Xb7/99q9P1KxW/19ff+5rzIEOeTsAAAAAsKS8KarwxZ1lnIt1gGtT5GUlGedyGe4s41ysA1ybvB0AAAAAWFLeFFX44s4yzsU6wLUp8rKSjHO5DHeWcS7WAa5N3g4AAAAALClviip8cWcZ52Id4NoUeVlJxrlchjvLOBfrANcmbwcAAAAAlpQ3RRW+uLOMc7EOcG2KvKwk41wuw51lnIt1gGuTtwMAAAAAS8qbogpf3FnGuVgHuDZFXlaScS6X4c4yzsU6wLXJ2wEAAACAJeVNUYUv7izjXKwDXJsiLyvJOJfLcGcZ52Id4Nrk7QAAAADAkvKmqMIXd5ZxLtYBrk2Rl5VknMtluLOMc7EOcG3ydgAAAABgSXlTVOGLO8s4F+sA16bIy0oyzuUy3FnGuVgHuDZ5OwAAAACwpLwpqvDFnWWci3WAa1PkZSUZ53IZ7izjXKwDXJu8HQAAAABYUt4UVfjizjLOxTrAtSnyspKMc7kMd5ZxLtYBrk3eDgAAAAAsKW+KKnxxZxnnYh3g2hR5WUnGuVyGO8s4F+sA1yZvBwAAAACWlDdFFb64s4xzsQ5wbYq8rCTjXC7DnWWci3WAa5O3AwAAAABLypuiCl/cWca5WAe4NkVeVpJxLpfhzjLOxTrAtcnbAQAAAIAl5U1RhS/uLONcrANcmyIvK8k4l8twZxnnYh3g2uTtAAAAAMCS8qaowhd3lnEu1gGuTZGXlWScy2W4s4xzsQ5wbfJ2AAAAAGBJeVNU4Ys7yzgX6wDXpsjLSjLO5TLcWca5WAe4Nnk7AAAAALCkvCmq8MWdZZyLdYBrU+RlJRnnchnuLONcrANcm7wdAAAAAFhS3hRV+OLOMs7FOsC1KfKykoxzuQx3lnEu1gGuTd4OAAAAACwpb4oqfHFnGediHeDaFHlZSca5XIY7yzgX6wDXJm8HAAAAAJaUN0UVvrizjHOxDnBtirysJONcLsOdZZyLdYBrk7cDAAAAAEvKm6IKX9xZxrlYB7g2RV5WknEul+HOMs7FOsC1ydsBAAAAgCXlTVGFL+4s41ysA1ybIi8ryTiXy3BnGediHeDa5O0AAAAAwJLypqjCF3eWcS7WAa5NkZeVZJzLZbizjHOxDnBt8nYAAAAAYEl5U1ThizvLOBfrANemyMtKMs7lMtxZxrlYB7g2eTsAAAAAsKS8KarwxZ1lnIt1gGtT5GUlGedyGe4s41ysA1ybvB0AAAAAWFLeFFX44s4yzsU6wLUp8rKSjHO5DHeWcS7WAa5N3g4AAAAALClviip8cWcZ52Id4NoUeVlJxrlchjvLOBfrANcmbwcAAAAAlpQ3RRW+uLOMc7EOcG2KvKwk41wuw51lnIt1gGuTtwMAAAAAS8qbogpf3FnGuVgHuDZFXlaScS6X4c4yzsU6wLXJ2wEAAACAJeVNUYUv7izjXKwDXJsiLyvJOJfLcGcZ52Id4Nrk7QAAAADAkvKm6AqFrz/96U+//uEPf/hb+/HHH7PL015zbF4u4/zusQ5wd4q8rCTj/Ewus89Pq8F7l3HejfWrquvG/TFa15Wrsi/uzzlpTfJ2AAAAAGBJeVN0hcLXa06gfM2xebmM87vHOp/Gzz///Ou33377QTtSv//mm2/++nkwavtx6jPip59+yiGAJkVeVpJxfiaXMRGGq8k478b6VZmQ+Lv3si8y///uu++yS1ttU14DrMw5aU3ydgAAAABgSXlTdIXC12tOoHzNsXm5jPO7xzqfRhaIHxUQs2+3ffnll38t+pqsCX2KvKwk4/xMLpPnHHjvMs67sX5VmW++1YTE9+C97Iv83Kz2ww8/ZLeWmpC5H+fRH3vdXe5X1iBvBwAAAACWlDdFVyh85RPtPuVEqCy6mJz5vmSc3z3W+TSyQPyogJh9n2lffPHF08VfWIkiLyvJOD+Ty+RTnN9CPYl6e/3vv/8+fw0fyDjvxvpV1TXp/hita9ZVZe79Vp9ZmZ9X++Mf//jrL7/8kl0fyvsEJmd+uF9Zg7wdAAAAAFhS3hRdofD1mrLoYnLm+5JxLtbpyALxowJi9s0JMVurCZjZN1v1q8kswJgiLyvJOL9aLlN/dLCd31afmMRjGedXinVeJnPv9zQ5s9ozE2fzPsHqn4G5T1mDvB0AAAAAWFLeFFX4epksupic+b5knIt1OrJA/KiAeKZvPXmnxq/PjtlkzXpCz6d8wi/ciSIvK8k4v1ouUxOatnPb6hOTeCzj/EqxzsvUHybtc+H3Njmz2tnr/LyeWP0zMPcna5C3AwAAAABLypuiCl8vY3Lm+5ZxLtbpyGLqowLimb6pXuvLL7/8aAwTNGFMkZeVZJxfLZepCVbbeW31iUk8lnF+pVjn5fZ58HuYnFm5+P7fla+fkdcTq38G7vdFNdYgbwcAAAAAlpQ3RRW+jtVTPKqwUm30VcMmZ75vGeefOtZr8lw9CbFri6VPNeluG+9Tjpm2Jz3OjoFnvNa6lv0x++zxmMXURwXEM31Hah+PJmjWz87EF6xAkZeVZJy/Ri7zyKNc+Mj+nLb6xCQeyzj/VLFeeedr5sv7Y+QOeVvm0meP+5lH+fn+8+KZyZn7a5Zn34v8zMqn3J/5HMvriTPLfm6z92TmmdjY74tq6SXnmiOfIi6OfOr1vRt5OwAAAACwpLwpeqbwVUWSrdXXFHZ1ltv3OVOM6SxXr7nv86goV7//6quvPirGVKufVWFlu6lvcub7lnHejfXvv/9+GDNVeKnfVXzsn6ZSk+gqzn744YcY6beCTY2RsVStxjlTzKm+9Tr5JJd9q991i395bGzqdWqM2et0jqO9bbxabj9m/fu77777YKzah/t1enRM1bFY78locuO+ff311+19ncXUakfO9J2ZTdCsbQN+p8jLSjLOz+Qy+3Pp/hy/d5QHHOUb1Xc2wWU/3n6ZyqH3v5tdE7CujPNurKfK4yrvG+VV1Squ6/edXDavCba8rOJ/NHlvi/Uaf3RdsFevf/aYqNcfvWa17XrkUe6c6niv9c1jNsfuXl/s1TKz96Gug/bruv/d/vPoSF1HVN+jfbK/dn9kv2wtl9cEFTvPXk/M9t8+BrrbXTrLHX3G176r92C/jlscjmJoFnvb8fRoH+dym1qP2bi1PvX7sz5lXMz24ej452PydgAAAABgSXlT9Ezha3/jeVYASHXDu7Nc3jDv6ixXr7nvMyo2bKroMCtE79v2RDuTM9+3jPNurI/e13q/swAzavsYqHjK32frfn11Fb1y2aNW6/ooHvPYKN3trPXuTBysbescU1tBerTvZ7pjj17nSBZTqx050/fIaILm2a9QhLtT5GUlGedncpnOuWmUB3TPrbP8JfvN2uyagHVlnHdjfS/zyEftUS6b420T7DJfm7Wj8TPfPDomZhPjZm12fKaaQNo53rdW69iZ0DbKaWdt20f5OkdqcmF3/Grdp9Hvl9ne67wGe7Rum3x/Z5Mzc/935TaO5Gd8rVPnMz4noeY+GLXax0cTV7N/6Yxbrfp1PBMXR+tcch+Wup7Msbbf8SF5OwAAAACwpLwpeqbwtb/x/GxRYrZcFpu6OjfE84b6bLLX0US6unGfRYwaNwt2s7F5Gxnn3VjP93V7+sb+ZxkPW6tYruJfxv5Rq2WOzApA1So2Z0WoWsejQmRuU61zjjXbzs74Z4+p6p/7fnZMHRUW6+e1bbPfP3oCy+i9O3Km7yOjfdYprsMqFHlZScb5mVwmzyUjmQeMJlTNzqXVRvlL9pm12TUB68o478Z6qdjNeO62oz/cyby0/j2aUHZ0nMwmaGa+OTsm8umG+zbKp7dWPz/KIUfbsR83r8+7444+R/bL5u+28fY/m+2LcnZCab7OkX3/bTJlbU++3qOnopZ8f2eTMzNuu3L7RnLsWu/R/s+xqm3vwejaZLbM0STK7Htm3Edjl9eKi9yH+b7uGx+TtwMAAAAAS8qbomcKX/sbz0cFk728eT1bLm96d3VuiOfYs8leeTO/Chd1k38/+Wz7CrCtTy4zG5u3kXHejfUsxG7vc/23Ckn7J2yMJgnuv/Y842j0xNWj2KnXyr4V0xmbZfTk19kxV/LY2IqwNUZ+3Xi91miS6KzQWP2zb42f612vsS8OZ8Fwtl9Ghepc5zJ7gkr228vPrWpHzvR9ZFQAnu1jWJEiLyvJOD+Ty3TOTZkHbOfLUb5T56fRZK7uxDPnMh7JOO/Gehnl1hXPFYf7OJ5N4Jr94U6Ou192+1ruLa/drhNH44+ezpfHyChnr/XNseo4zPy48trR10OPxiz52lvfHLfWe7TPRhOzN/tr5a2NcvR6rf1nTq7LyChPrpZfxT37vKpl8/ppb993/5mVEwkfjVNyH88+A/NzuCu3bSTH3uKj9ntt034bchur7a+38mvoZ/t4FOsl+21tu1belqtx63VG13qzSbGzuMhjZbbOR+9n7sP98vW7el+3xsfk7QAAAADAkvKm6JnC1/6m9KxgknJi2Wy5vOndtV9mtlyOnUWnksWIukGfBaS97H80Nm8n47wb61mIfRQTo8JptSo2zQo9OdGxClAjowLnrOhVshBYbSaPjWpH21ly39Q2juR6Pxp3VCirNjqmRhM/HxXEcoLmUf8z+7Cc6duR++LoiU6wGkVeVpJxfiaX6ZybRnlATd45c76e5fZ5Lj0670LJOO/G+mhi1lEOPpqgNZtsmHnv1o6e4jf6w63R5M88RkbHUr7+LO/e5BMoq42uG/LYP9qeMtqmUY5ecoLo0dj1XmSOXm20L0ruj2qzCeKl1jHX56j/vl9+ZuU+e5Sf5/ub421y3K79MrPlcuxqR8fGaP9WO3oP8zVGsV5yzEfrMoqN2XqM1nvWt4ziYrbeuX1bm00U5UPydgAAAABgSXlT9Ezha38zelYwGeksl8WerrxJPpI31EeFpOxzVLTZZFFvNjZvJ+O8G+ujAs+sYLPJGK42KoZusng6OzYyNo8KTZssNs3iMseu9ij2c8J1tZEspj0ad1RYn617To4+etrJJpeZTYYtWUytduRM346Mv1lswIoUeVlJxvmZXKZzbhrlAY8mnGT+UufgkTyXziYmwSbjvBvrmTcdTfjay2u5Uezn2NU6eVn+kdJoUmUeI6Nx8xgdrWOqnLeWq+2r9c9cOnPi2cTUlMuN1jf/YG203Wl0bTEae3St8Oj6ouRyR9u7Hzs/s0brmft2L9/fHG+T73FXrstIjl3tKIZG2zj7jN9krM+uVUfjPjpOR3+Ql8vk+1tttq/3crlZXIz2YWd8fiNvBwAAAACWlDdFzxS+9jekRwWTmc5yecO7q7Nc3lDPIsqoCJE3/Uey+DQam7eVcd6N9VEh9lFMZJzNYn0vX+NIxVa1R+tRcv1nE0tznTtFspKTP/MJWzlxo1pn3HyaaLWjY6qO3fp9vv5IFveOisVZTK125Ezfjnz/OrEEq1DkZSUZ52dymc65KfOA2eSUlGOPzvF5LjWZhUcyzruxnhOzjnLHvbwGHOVbmZNV60wIzLGrZb6ax8jo9XMCaXfi6ZE87h89AXKTufRom/KrqLtj5x91jfZFTg49yuVTvo+zGNn3GX1m5ThH65Dv72i8su9TrauzXMZP5zM+x330HuZ2jt67kuPOJnGmjI08/vKezNF7kvL9HE1czeOl2kuPwZXI2wEAAACAJeVN0TOFr/0N6dlN95HOcnnDu6uzXN5Qz2JMFhTO3NDP18+xeVsZ591Yz0LNLG73Ms5mBbi9jJ9PJdd/ti65zt0iWS6Xcf/sMTWa1Jljv0SOPZPrf9S3nOnb8ZIiI9ydIi8ryTg/k8t0zk15Pp/lC6kzGS7Ppd2xWVfG+bOxfmbiVB4DKXPqM+PnHzPlcZLHyOh6IyckVnvpBM08fnOC5ZHcXzmZ7dHvZ/IPtEb7It+L7nVLyX09+zzq9Mn3ddbvmdes1pWTFkdynz2aaFly3IzblNdvsydt5nY+Gxu5H3MbP3VcZEyPYpM5eTsAAAAAsKS8KdotfOXTP87clO4st+9TrSuLByN5Qz0LDHlD/+jrjtOjsXlbGeedWC8ZE50izzOxsO9f7awqzNbrZMunpIwKTSXXedYv5XK5rfn1dp1C4Cb3SY7dUUXC3CdZfKs2c6ZvOdO3I/ff7HMTVqTIy0oyzs/kMp1zU57P84lkM7nc6Fyd59JujsG6Ms47sZ5xdvYPWjKW65p3L68JzuRkOXZORst1H42d1+Bbq+3M8bpyrDNyf+RxnWPn/pzJP0wa7Yu8vul+XpXc17Pr/aNt2+RYNRlxtJ3Zbzbevk+1royvkUfv10iOO9q21NmG7NOdYJzXRbkNGRezb4wYyfdoFHe5P/L1OSZvBwAAAACWlDdFny18jW5cz3SW2/ep1pU3y0eyTxaQnylabB6NzdvKOO/EenkmJjIWOk+h2fev9kgVLmuiY71WPvXmqM3WP9e5W+TN5TLun9l/m3waTY6dqmBY41eRNSdrP2oz+Xl31Lec6duR+2/2uQkrUuRlJRnnZ3KZzrnp0fl8prNcnkvP5AKsKeO8E+sZZy9tGcsvyckePfEv1302dk5Oy1bL1dida498zWpn5P7IbXp27Fyv0b7Iz52XtNH4Zd8nt20vJwSOxsttmo2X69aV+2Mk36+M75HOuKmzDZ0+I7kfc1/n+r6k5dij8c9MCkbeDgAAAAAsKm+KPlv4Gt24nukslzfGu/Jm+Uj2yaJEFi1mhZORR2PztjLOO7FenomJjIWOff+jZWoCYo5/ps3WP8fsxm8ul+M/s/82OfbROlWx+swk1Wwz+Xl31Lec6duR++/Mk0fh7hR5WUnG+ZlcpnNuOnPO3essl+fSM7kAa8o478R65kwvbRnLOf7sWnYkl81jII+Ro7Fr2U7OW3/kVPnx7KmE+Zqzr6CeyW3KJ1Dm+nTleo32RWf7u200ftn3yfdrr/Zvrk/+kVtu02y8XLeu/Bweyfcr43ukM256tA351eejPjO5H/O9yz/se0nLsUvuj84+5HfydgAAAABgSXlTtFv4enRT/Ehnubwx3pVFkZFHN9SzaDErnIzk2J6k8L5knHdivTwTExkLHfv+s2UqpjLOt1bFqHrdKozWOm4t12W2/tkvj42ZXC6/Pu6Z/bfJsUfrVAXR7Ldv9btqNalxv1+y30x+3h31LWf6duQTQHP/wsoUeVlJxvmZXKZzbspzaefra0suNzpX57n0TC7AmjLOO7E+yu9e0jKWc/zZtexILpvHQB4jnbFrAmDl/bneozb6455nXnMvtymXz3Xo6qxXjv2SNhq/7Pvk+5XqGm3fv67X9pNic5tm4+W6deXn8Ei+XxnfI51x06NtyH0x6jOTy+Z7l+O+pOXYJfdHZx/yO3k7AAAAALCkvCnaLXw9uil+pLNc3hjv6iz36IZ6Fi1mhZORHPvMsry+jPNOrJdnYiJjoWPff7RMTZLIPtWq2Dp7Ik7prn+ucx4bM4+W677+SI6dT6Ep+VWC1Wq5XI+92l+5zEx+3h31LWf6PjJ6zztfUwmrUORlJRnnZ3KZPJeM5Dm3K5cbnX/zXHomF2BNGeedWM+cs/7ApWLv2Zb5dY4/u5YdyWXzGMhj5MzYtZ41ObAmas7+iGv0mqM884zcpsrJ954du7Mvcuz646V8/7ptllvvx899N5KfhfsJsblNs/Fyu7o6y+X7Vev0SG5Tx75//fFgyn3RHbfkshkbOe6njovcH9WPPnk7AAAAALCkvCnaLXw9uik+010ub6p3dZZ7dEO9buDvfz96yshMjj0ruvA2Ms47sV6ykNV5XzMWOvb9R8uMJiF2nmqVy83WP9c5j42ZR8s9s/82ub257Kio3Dlm87Oo2syZvuVM30dy3539ukm4O0VeVpJxfiaX6Zyb8nyeE9NmcrnMA0qeS/N8DinjvBPrmTfNrjWf9ZLxMx/Pb1jIY+TM2Kkmlc2eqJkTzvL3Z+T+yOP62bHrj7H2y432RX7u5P78FI62bWR0XbJ9Hub7Oxsvl+/qLJfv1+izOuV+7tj3H713uS+645ZcNsfP9f3U3ziQ43f2Ib+TtwMAAAAAS8qbot3CV94U704Yyq/7ypvpm32fah25TrPlHt1Qz3Fm6ziSTyqZFV14GxnnnVgvWcjqvK+P4mxk379ayjGr6NqRy83WP/t11rk8Wi6P+3yqzszo6Za57nm8VutMWB0tN3OmbznT90jut2q5/bA6RV5WknF+JpfJ88nIo/P5TGe5PJc6n/FIxnkn1jPOZrH+rLwmqCdzdj06TnLdz1yDztT65f7IyWrZpzspu+SE0zyuc5tzYuhM7ufRvsix87U/hWfGz3XfYiTf39l4+z7VOnLs2XK5bhmDI7mfO/b9R+/daH07128ltyGvK3N9Z/v5WTl+Zx/yO3k7AAAAALCkvCnaLXyVvKHeUU+02y8zullfcpJj52b9aCLTyKMb6lks6E48rWJTvv6nLgbwMhnn3VjPIlDnfX0UZyMZPymLp50nxIye4DJb/2fWuTxa7tljanRM57rnk25HX503ksXkajO5/kd9y5m+M6Ntr9b5LISVKPKykozzM7lMnk9GHp3PZ3K50QSsPJfm+RxSxnkn1kd/2PMpc6e8Jjgzfl7f5vGVx8jsOvmM2h+VG+/HfTSZrXN9scmxc5ty7JwYOpPXPKN9ke9F94/WztiPf+YzK/dLLZvv72y8XHb0eZpG1w0juc/y/RrJ97Bj33/03uW+qNaNu3wibO7H3MbR679E7o/OPuR38nYAAAAAYEl5U7Rb+CpZOHj0lI36fRalZjfLn7npnetTbeTR2KP17BRFcuJptSwW8LYyzruxnkWezvv6KM5GMn5SxniniDWahDhb/2fWuTxablQo7xxTWZgdrXtOzuw8wWg0YbXazKiAeORM35HRRO9qna9rh9Uo8rKSjPMzuUyeU0Yenc9ncrmRPJc6p/FIxnk31jMeczLikW0S3UxeE1TrTDjM3G70h0p5jOR1cuXT1afWoY6fR9fem5y4l+PmNnUnOY62Kdcpr487Y4+uG3KdS+6vat2JsrXutV8e9d+PndcgR3Ldat/k+zAbL+O3vuL9kbxGrDaS7/VRrG9yfTr2/bvvXSc2yqP7NKOxH73Pm05c5P7o7EN+J28HAAAAAJaUN0VfUvh6VJjKYkC10c36koWcR0W1LHZsbSTXe3RDPSe0PSoW1I38LBRUmxVdeBsZ591Yz9jtvK+dOEv7/qNjI8d8FJej4tRs7JLjd9a5dJbLp5w8e0znvh9t41FBrQq+ub5by+LeZvQaR8703at1q+0bfZbUpNMseAOKvKwl4/xMLpPnlZE8P47O5yO53EieS0cTuWAv47wb66NYO8oNN/vrv1omc86S1wTVamLco1jOa8vR5ORc78zX8/o4fz+Tf+yU2/XsHyZmbp/jlvyDqHqdR2Pnvjra1lyHR9dGpdZpv721f2br9Gj7juR25D6ejZcx9uiaKeNmayM5duczvvP5nvb9R+/dbJ1n78Mmrw9n35iQ+/5TxkXuj84+5HfydgAAAABgSXlT9EzhK59YVzfHRzewSxYCtja6WV/yxnvdKJ/d+M6++zbSuaE+KhiMimhlNjGz2qzowtvIOO/GesZv533txFna9x8dG7ke1WbF5n3fLMpWG8l17mxnyeVG21pPfcl1mBUb98d0Hlv5tNDR03Vm613H6vZkmRo3nzIzm2A++jw4cqZvrVO9bhYR961TyIZVKfKykozzM7lMnltGOufzkVxuJJ+yV212voaScd6N9ZIx+SiXGl1PjuJ/1K/a0R/RjJYZrUvmm3ktkBMdq82uTzd5vV5ttF15jfFof2XeejTZOq9DjvrmuPs2Mtons+uLUq+b65P7eW/f7+zn1WjSa2e8jJdPeR8k3+fZtc9eHksd+/6j/ZuxvrWjuBvdc8nrws0sLmZxdyYucn/M3hvG5O0AAAAAwJLypuiZwteo4FD/rpv+daO/bpbXTfD9je4sIMxuepecOFWtClA1fk30qv/f3xyvf+dN9ZHuDfXR69fPaptqO2o99mPVtucTTWZFF95Gxnk31rOA1Hlfu3G2t+8/OjZGExuq1dNA6pjYjrl97NY4owmMdazUduzXKwuine0s3W3N47NaHTe1/vVaue55jM/GzqfmVKtx6nOo9svoWK19mdu7Hd+13L54l+9/tSPZdz9+rUd+bh612mezCbiAIi9ryTg/k8vk+WWkc84dyeVm8vxX/65ltwZ7GefdWC+j3G2fc9bvtz+OGV3zzSb45bg13hbX++vE6pf559ZmsZ5jj/qNct5tu2p7aox97pvH3GwS6ey6fr+/artG19vVjq4Z8vo/13n0PuQ1dbWZzOer1Vg1xqP3otpsMmDZ9zvaxpnRtnfGG8Xko/sguX0jtXx3HTY57ih+0r7/KI4z1iumtrjKeK7/7o+zrdW/j9ZlFEOfIi6yf/c8yW/k7QAAAADAkvKm6NnCV97gP2rbkz32PxvdrN8cFTOybQW0vFk+kn1mN9RHT1A4anUDP/dHp+DB55Nx3o31LCB13tdunO3t+1fxaCRj7KjtC7CzWN4fgzl2ZztLd1vPHFOzY3o0dn4N3aNWRc0yeprQ6HXy/a92JPs+02p7av8fFR0BRV7WknF+JpfJ88xI55w7ksvNjCaWdZZjTRnn3Vjf7J+YfqbNJmaWzAkrVztzzTqbHFly7Nl18mgyYqcdvXapfLqbp2+t8tXO0xfzGuOobfs/f37kzPhbq3V/9Bm379+9Lkr5+dgZb/SNA7O2fWV3vs5I7qftmuhIZ9y07z+K41GsjyYIz1r1m02e3Mvt7bRHcZH746gvH5O3AwAAAABLypuizxS+jiY4bW3/lWv7G9qjm/V7Vex6dJN+u5lf8mb5SPY5uqHenUy2faVW7oujogufX8Z5N9azgNR5X8/E2Sbjaqbi7MxxUWaxvD8Gs4DVWedyZltrPUZPP9naNilx0x27CnTZN1sV6LMIOXqqSr5Ovv/VjmTfM622IZ/cCcwp8rKSjPMzuUyeb0byPDo756ZcbmbLAXJdHi3HmjLOu7G+VzHXncxYeeLsa5I3mRNuOWtngubRpM+SYx9dJ1eueGbiab12N7ec5cbZ6rqiM0Fu09lH+wmk+btHav9190l9DnXWfb9M5/pvZPQV253x6ppldr20tbP3QZ651uuMm3Id0yzWR19dnu1s3J2ZpN2Ji9wfnX3I7+TtAAAAAMCS8qbos4Wv7amRVfipG9bVtq9By6/k3b4SvNqjAlgZjV2tfpY3z/djzwoe2SfXb6Ruum9fubZfh5xEVWPtx3az/n3JOO/G+jPv6zNxtu8/i9/Ntk4Zk4/Wr363f439MZS/66xzeWZbS/Xbvnpx+3q5LBxnASx/n7Z12e+T7SsmZ2of1LG8rX/1PTquqx3JvkettnlrwHmKvKwk4/xMLpPnn5Fnz+dnl8tzdf3/0XmaNWWcd2N9ZJ9z1jXqFnvb9Wr+8c5MTirbH0uVO25fwbyNXxMda+xH+WvJfLNzTFQOu78WqHWqyW3btuW1alety3ZdsN+ebb2ezVv378M+V6/9lGPm50pXjVPLbl/1vX+N2h+PPp/29q+f63fGts1nxzu63nvmPsgz13qdcdO+/yiOH8V6/Xt0X2l0rdj1qeIi90d3OX4jbwcAAAAAlpQ3RV9a+IL3LONcrL9/VTTbCuD1pBSAPUVeVpJxLpfhzjLO30OsH03OBOCYvB0AAAAAWFLeFH0vhS94DRnnYv1t1BNGOk89qT77r7arJ5sA7CnyspKMc7kMd5Zx/h5i3eRMgOfJ2wEAAACAJeVN0fdS+ILXkHEu1j+fKl7nUzAfTdCsr5jbF8C7XzkJrEORl5VknMtluLOM8/cQ6yZnAjxP3g4AAAAALClvir6Xwhe8hoxzsf75ZDH7aIJm/ayekrnvW0/QHPUF1qbIy0oyzuUy3FnG+XuI9cxnTc4E6JO3AwAAAABLypui76XwBa8h41ysf15ff/31RxM062ma9YTMKnZX+/777z/4KvOteWomMKLIy0oyzuUy3FnG+XuIdZMzAZ4nbwcAAAAAlpQ3Rd9L4QteQ8a5WP+8fv755+HEy0etnqIJMKLIy0oyzuUy3FnG+XuIdZMzAZ4nbwcAAAAAlpQ3Rd9L4QteQ8a5WP/8aoLm6Amao1YTOasvwIwiLyvJOJfLcGcZ5+8h1k3OBHievB0AAAAAWFLeFH0vhS94DRnnYv3tbJM062vN82maX3zxxV+/3vyXX37JxQA+oMjLSjLO5TLcWcb5e4j1nJzp6e4AffJ2AAAAAGBJeVP0vRS+4DVknIt1gGtT5GUlGedyGe4s41ysA1ybvB0AAAAAWFLeFFX44s4yzsU6wLUp8rKSjHO5DHeWcS7WAa5N3g4AAAAALClviip8cWcZ52Id4NoUeVlJxrlchjvLOBfrANcmbwcAAAAAlpQ3RRW+uLOMc7EOcG2KvKwk41wuw51lnIt1gGuTtwMAAAAAS8qbogpf3FnGuVgHuDZFXlaScS6X4c4yzsU6wLXJ2wEAAACAJeVNUYUv7izjXKwDXJsiLyvJOJfLcGcZ52Id4Nrk7QAAAADAkvKmqMIXd5ZxLtYBrk2Rl5VknMtluLOMc7EOcG3ydgAAAABgSf/wD//w/+aN0Wp/+ctf8j4qXF7GuSIvwLX9+7//+0ef69X+98//78x54Ork7awk41zeDnBt8nYAAAAAYEn/+I//+D/zxmi1H374Ie+jwuVlnCvyAlzbv/7rv370uV7tP/7jP/6vzHng6uTtrCTjXN4OcG3ydgAAAABgSfX1QXljtNq//du/5X1UuLyMc0VegOv67//+71///u///qPP9WqZ78AdyNtZSca5vB3guuTtAAAAAMCy/tf/+l//Z94Y3VrdPIU7yRhX5AW4ru+///6jz/StZb4DdyBvZyUZ49UAuCZ5OwAAAACwtL/7u7/7//LmaDVP4eFuMsYVeQGu6b/+67+mT9/5p3/6p/+RuQ7chbydVWSMy9sBrkneDgAAAAAs71/+5V/+n7xBurX663a4i4xvRV6A6/nLX/7y6z//8z9/9Hm+tXq6YOY6cBfydlaR8V0NgGuRtwMAAAAA/G//+Z//+X/kDdJ9qyfx1A1VuLqM7WoAXEPlIn/+85+nT96p9o//+I//M/McuBN5O6vI2K4GwDXI24H/v737t2kYCOMwvAFbsAEjZJKMwAQswgApUqRKQeM2RkpzJToXKSPs0i3oohTwCfFHQnCOn0d6u5QufrqTLgAAAAAEu93uLh6Uxtq2fem67nTAOo6jNLniN12Kv5Ek1dMwDKfd8dmLO2/LOS/ixoFLY7drDsVvuhR/I0mqJ7sdAAAAAOAL6/X6KR6WSpIkTaGU0jJuG7hUdrskSZpqdjsAAAAAMEuHw+HGRa8kSZpa5SXBuGvgktntkiRpitntAAAAAMCs9X1/tdlsHuPhqSRJUm2tVqvn/X5/G/cMzIHdLkmSppLdDgAAAABwVi56m6a5Lwen8TBVkiSphrbb7cPxeLyOOwbmxG6XJEm1Z7cDAAAAAHygXPaWvxty2StJkmqovBJYXtxxuQvv2e2SJKmm7HYAAAAAgB8oh6k550VKaVkufiVJkv6qsj9c7ML32O2SJOm/stsBAAAAAAAAAAAAAAAAAAAAAAAAAAAAAAAAAAAAAAAAAAAAAAAAAAAAAAAAAAAAAAAAAAAAAAAAAAAAAAAAAAAAAAAAAAAAAAAAAAAAAAAAAAAAAAAAAAAAAAAAAAAAAAAAAAAAAAAAAAAAAAAAAAAAAAAAAAAAAAAAAAAAAAAAAAAAAAAAAAAAAAAAAAAAAAAAAAAAAAAAAAAAAAAAAAAAAAAAAAAAAAAAAAAAAAAAAAAAAAAAAAAAAAAAAAAAAAAAAAAAAAAAAAAAAAAAAAAAAAAAAAAAAAAAAAAAAAAAAAAAAAAAAAAAAAAAAAAAAAAAAAAAAAAAAAAAAAAAAAAAAAAAAAAAAAAAAAAAAAAAAAAAAAAAAAAAAAAAAAAAAAAAAAAAAAAAAAAAAAAAAAAAAAAAAAAAAAAAAAAAAAAAAAAAAAAAAAAAAAAAAAAAAAAAAAAAAAAAAAAAAAAAAAAAAAAAAAAAAAAAAAAAAAAAAAAAAAAAAAAAAAAAAAAAAAAAAAAAAAAAAAAAAAAAAAAAAAAAAAAAAAAAAAAAAAAAAAAAAAAAAAAAAAAAAAAAAAAAAAAAAAAAAAAAAAAAAAAAAAAAAAAAAAAAAAAAAAAAAAAAAAAAAAAAAAAAAAAAAAAAAAAAAAAAAAAAAAAAAAAAAAAAAAAAAAAAAAAAAAAAAAAAAAAAAAAAAAAAAAAAAAAAAAAAAAAAAAAAAAAAAAAAAAAAAAAAAAAAAAAAAAAAAAAAAAAAAAAAAAAAAAAAAAAAAAAAAAAAAAAAAAAAAAAAAAAAAAAAAAAAAAAAAAAAAAAAAAAAAAAAAAAAAAAAAAAAAAAAAAAAAAAAAAAAAAAAAAAAAAAAAAAAAAAAAAAAAAAAAAAAAAAAAAAAAAAAAAAAAAAAAAAAAAAAAAAAAAAAAAAAAAAAAAAAAAAAAAAAAAAAAAAAAAAAAAAAAAAAAAAAAAAAAAAAAAAAAAAAAAAAAAAAAAAAAAAAAACA3/IKinn/PFrlP0sAAAAASUVORK5CYII=;" parent="1" vertex="1"><mxGeometry x="-200" y="-520" width="2663" height="921" as="geometry"/></mxCell><mxCell id="sLMIWecMijC4AU-lOXYT-22" value="&lt;font color=&quot;#000000&quot;&gt;PathOfFile&lt;/font&gt;" style="html=1;overflow=block;blockSpacing=1;whiteSpace=wrap;fontSize=16.7;fontColor=#333333;spacing=9;strokeColor=#5e5e5e;strokeOpacity=100;rounded=1;absoluteArcSize=1;arcSize=9;strokeWidth=2.3;lucidId=m4-6s2IDwNbs;" parent="1" vertex="1"><mxGeometry x="875" y="693" width="120" height="90" as="geometry"/></mxCell><mxCell id="sLMIWecMijC4AU-lOXYT-23" value="&lt;font color=&quot;#000000&quot;&gt;mangaName&lt;/font&gt;" style="html=1;overflow=block;blockSpacing=1;whiteSpace=wrap;fontSize=16.7;fontColor=#333333;spacing=9;strokeColor=#5E5E5E;rounded=1;absoluteArcSize=1;arcSize=9;strokeWidth=2.3;lucidId=C4-6vmRtbzAM;" parent="1" vertex="1"><mxGeometry x="200" y="693" width="120" height="90" as="geometry"/></mxCell><mxCell id="sLMIWecMijC4AU-lOXYT-24" value="&lt;font color=&quot;#000000&quot;&gt;original(list of image)&lt;/font&gt;" style="html=1;overflow=block;blockSpacing=1;whiteSpace=wrap;fontSize=16.7;fontColor=#333333;spacing=9;strokeColor=#5E5E5E;rounded=1;absoluteArcSize=1;arcSize=9;strokeWidth=2.3;lucidId=P4-6wgWVF26c;" parent="1" vertex="1"><mxGeometry x="605" y="640" width="180" height="90" as="geometry"/></mxCell><mxCell id="sLMIWecMijC4AU-lOXYT-25" value="&lt;font color=&quot;#000000&quot;&gt;language(name)&lt;/font&gt;" style="html=1;overflow=block;blockSpacing=1;whiteSpace=wrap;fontSize=16.7;fontColor=#333333;spacing=9;strokeColor=#5E5E5E;rounded=1;absoluteArcSize=1;arcSize=9;strokeWidth=2.3;lucidId=04-6iSsn7_0C;" parent="1" vertex="1"><mxGeometry x="605" y="745" width="180" height="90" as="geometry"/></mxCell><mxCell id="sLMIWecMijC4AU-lOXYT-26" value="" style="html=1;jettySize=18;whiteSpace=wrap;fontSize=13;strokeColor=#5E5E5E;strokeWidth=1.5;rounded=1;arcSize=12;edgeStyle=orthogonalEdgeStyle;startArrow=none;endArrow=block;endFill=1;exitX=1.009;exitY=0.5;exitPerimeter=0;entryX=-0.007;entryY=0.5;entryPerimeter=0;lucidId=T5-6gWxzuG5~;" parent="1" source="sLMIWecMijC4AU-lOXYT-23" target="sLMIWecMijC4AU-lOXYT-27" edge="1"><mxGeometry width="100" height="100" relative="1" as="geometry"><Array as="points"/></mxGeometry></mxCell><mxCell id="sLMIWecMijC4AU-lOXYT-27" value="&lt;font color=&quot;#000000&quot;&gt;episodeNumber&lt;/font&gt;" style="html=1;overflow=block;blockSpacing=1;whiteSpace=wrap;fontSize=16.7;fontColor=#333333;spacing=9;strokeColor=#5E5E5E;rounded=1;absoluteArcSize=1;arcSize=9;strokeWidth=2.3;lucidId=U5-6qka_ebtC;" parent="1" vertex="1"><mxGeometry x="395" y="693" width="150" height="90" as="geometry"/></mxCell><mxCell id="sLMIWecMijC4AU-lOXYT-28" value="" style="html=1;jettySize=18;whiteSpace=wrap;fontSize=13;strokeColor=#5E5E5E;strokeWidth=1.5;rounded=1;arcSize=12;edgeStyle=orthogonalEdgeStyle;startArrow=none;endArrow=block;endFill=1;exitX=1.007;exitY=0.5;exitPerimeter=0;entryX=-0.006;entryY=0.442;entryPerimeter=0;lucidId=u6-6OEceqz.p;" parent="1" source="sLMIWecMijC4AU-lOXYT-27" target="sLMIWecMijC4AU-lOXYT-24" edge="1"><mxGeometry width="100" height="100" relative="1" as="geometry"><Array as="points"/></mxGeometry></mxCell><mxCell id="sLMIWecMijC4AU-lOXYT-29" value="" style="html=1;jettySize=18;whiteSpace=wrap;fontSize=13;strokeColor=#5E5E5E;strokeWidth=1.5;rounded=1;arcSize=12;edgeStyle=orthogonalEdgeStyle;startArrow=none;endArrow=block;endFill=1;exitX=1.007;exitY=0.5;exitPerimeter=0;entryX=-0.006;entryY=0.558;entryPerimeter=0;lucidId=x6-6YSfZs-~q;" parent="1" source="sLMIWecMijC4AU-lOXYT-27" target="sLMIWecMijC4AU-lOXYT-25" edge="1"><mxGeometry width="100" height="100" relative="1" as="geometry"><Array as="points"/></mxGeometry></mxCell><mxCell id="sLMIWecMijC4AU-lOXYT-30" value="" style="html=1;jettySize=18;whiteSpace=wrap;fontSize=13;strokeColor=#5E5E5E;strokeWidth=1.5;rounded=1;arcSize=12;edgeStyle=orthogonalEdgeStyle;startArrow=none;endArrow=block;endFill=1;exitX=1.006;exitY=0.5;exitPerimeter=0;entryX=-0.009;entryY=0.5;entryPerimeter=0;lucidId=s7-6FmA3FM6W;" parent="1" source="sLMIWecMijC4AU-lOXYT-24" target="sLMIWecMijC4AU-lOXYT-22" edge="1"><mxGeometry width="100" height="100" relative="1" as="geometry"><Array as="points"/></mxGeometry></mxCell><mxCell id="sLMIWecMijC4AU-lOXYT-31" value="" style="html=1;jettySize=18;whiteSpace=wrap;fontSize=13;strokeColor=#5E5E5E;strokeWidth=1.5;rounded=1;arcSize=12;edgeStyle=orthogonalEdgeStyle;startArrow=none;endArrow=block;endFill=1;exitX=1.006;exitY=0.5;exitPerimeter=0;entryX=-0.009;entryY=0.5;entryPerimeter=0;lucidId=u7-6m5eNXBiI;" parent="1" source="sLMIWecMijC4AU-lOXYT-25" target="sLMIWecMijC4AU-lOXYT-22" edge="1"><mxGeometry width="100" height="100" relative="1" as="geometry"><Array as="points"/></mxGeometry></mxCell></root></mxGraphModel></diagram><diagram id="5VioMNRIdMqWD7fF_mRd" name="Example_how_to_work_app"><mxGraphModel dx="1463" dy="1905" grid="1" gridSize="10" guides="1" tooltips="1" connect="1" arrows="1" fold="1" page="1" pageScale="1" pageWidth="827" pageHeight="1169" math="0" shadow="0"><root><mxCell id="0"/><mxCell id="1" parent="0"/><mxCell id="SG6Wk0yrXJ__dqq80Dwp-45" value="" style="rounded=1;arcSize=10;dashed=0;fillColor=none;gradientColor=none;strokeWidth=2;" parent="1" vertex="1"><mxGeometry x="-400" y="-190" width="2030" height="812" as="geometry"/></mxCell><mxCell id="SG6Wk0yrXJ__dqq80Dwp-32" style="edgeStyle=orthogonalEdgeStyle;rounded=0;orthogonalLoop=1;jettySize=auto;html=1;entryX=1;entryY=0.25;entryDx=0;entryDy=0;fillColor=#fa6800;strokeColor=#C73500;" parent="1" source="ZWSjEQNFcy7tGaE6YxXL-1" target="ZWSjEQNFcy7tGaE6YxXL-7" edge="1"><mxGeometry relative="1" as="geometry"><Array as="points"><mxPoint x="1390" y="136"/><mxPoint x="1390" y="136"/></Array></mxGeometry></mxCell><mxCell id="ZWSjEQNFcy7tGaE6YxXL-1" value="" style="shape=image;html=1;verticalAlign=top;verticalLabelPosition=bottom;labelBackgroundColor=#ffffff;imageAspect=0;aspect=fixed;image=https://cdn0.iconfinder.com/data/icons/long-shadow-web-icons/512/python-128.png" parent="1" vertex="1"><mxGeometry x="1450" y="103" width="128" height="128" as="geometry"/></mxCell><mxCell id="SG6Wk0yrXJ__dqq80Dwp-10" style="edgeStyle=orthogonalEdgeStyle;rounded=0;orthogonalLoop=1;jettySize=auto;html=1;entryX=0;entryY=0.5;entryDx=0;entryDy=0;entryPerimeter=0;" parent="1" source="ZWSjEQNFcy7tGaE6YxXL-3" target="SG6Wk0yrXJ__dqq80Dwp-9" edge="1"><mxGeometry relative="1" as="geometry"><Array as="points"><mxPoint x="750" y="167"/><mxPoint x="750" y="362"/><mxPoint x="895" y="362"/></Array></mxGeometry></mxCell><mxCell id="SG6Wk0yrXJ__dqq80Dwp-17" style="edgeStyle=orthogonalEdgeStyle;rounded=0;orthogonalLoop=1;jettySize=auto;html=1;" parent="1" source="ZWSjEQNFcy7tGaE6YxXL-3" target="ZWSjEQNFcy7tGaE6YxXL-7" edge="1"><mxGeometry relative="1" as="geometry"/></mxCell><mxCell id="SG6Wk0yrXJ__dqq80Dwp-36" style="edgeStyle=orthogonalEdgeStyle;rounded=0;orthogonalLoop=1;jettySize=auto;html=1;entryX=1;entryY=0.5;entryDx=0;entryDy=0;" parent="1" source="ZWSjEQNFcy7tGaE6YxXL-3" target="SG6Wk0yrXJ__dqq80Dwp-7" edge="1"><mxGeometry relative="1" as="geometry"><Array as="points"><mxPoint x="625" y="496"/></Array></mxGeometry></mxCell><mxCell id="ZWSjEQNFcy7tGaE6YxXL-3" value="" style="dashed=0;outlineConnect=0;html=1;align=center;labelPosition=center;verticalLabelPosition=bottom;verticalAlign=top;shape=mxgraph.webicons.java;gradientColor=#DFDEDE" parent="1" vertex="1"><mxGeometry x="560" y="102" width="130" height="130" as="geometry"/></mxCell><mxCell id="SG6Wk0yrXJ__dqq80Dwp-20" style="edgeStyle=orthogonalEdgeStyle;rounded=0;orthogonalLoop=1;jettySize=auto;html=1;" parent="1" source="ZWSjEQNFcy7tGaE6YxXL-4" target="ZWSjEQNFcy7tGaE6YxXL-3" edge="1"><mxGeometry relative="1" as="geometry"/></mxCell><mxCell id="ZWSjEQNFcy7tGaE6YxXL-4" value="" style="outlineConnect=0;dashed=0;verticalLabelPosition=bottom;verticalAlign=top;align=center;html=1;shape=mxgraph.aws3.android;fillColor=#205E00;gradientColor=none;" parent="1" vertex="1"><mxGeometry x="310" y="152" width="126" height="130" as="geometry"/></mxCell><mxCell id="ZWSjEQNFcy7tGaE6YxXL-5" value="&lt;font style=&quot;font-size: 25px;&quot;&gt;User&lt;/font&gt;" style="shape=umlActor;verticalLabelPosition=bottom;verticalAlign=top;html=1;outlineConnect=0;" parent="1" vertex="1"><mxGeometry x="-340" y="182" width="70" height="130" as="geometry"/></mxCell><mxCell id="SG6Wk0yrXJ__dqq80Dwp-19" style="edgeStyle=orthogonalEdgeStyle;rounded=0;orthogonalLoop=1;jettySize=auto;html=1;" parent="1" source="ZWSjEQNFcy7tGaE6YxXL-6" target="ZWSjEQNFcy7tGaE6YxXL-4" edge="1"><mxGeometry relative="1" as="geometry"/></mxCell><mxCell id="ZWSjEQNFcy7tGaE6YxXL-6" value="" style="verticalLabelPosition=bottom;html=1;verticalAlign=top;align=center;strokeColor=none;fillColor=#00BEF2;shape=mxgraph.azure.cloud;" parent="1" vertex="1"><mxGeometry x="-30" y="272" width="180" height="102" as="geometry"/></mxCell><mxCell id="SG6Wk0yrXJ__dqq80Dwp-18" style="edgeStyle=orthogonalEdgeStyle;rounded=0;orthogonalLoop=1;jettySize=auto;html=1;entryX=0;entryY=0.5;entryDx=0;entryDy=0;" parent="1" source="ZWSjEQNFcy7tGaE6YxXL-7" target="ZWSjEQNFcy7tGaE6YxXL-1" edge="1"><mxGeometry relative="1" as="geometry"/></mxCell><mxCell id="SG6Wk0yrXJ__dqq80Dwp-35" style="edgeStyle=orthogonalEdgeStyle;rounded=0;orthogonalLoop=1;jettySize=auto;html=1;fillColor=#fa6800;strokeColor=#C73500;" parent="1" source="ZWSjEQNFcy7tGaE6YxXL-7" target="ZWSjEQNFcy7tGaE6YxXL-3" edge="1"><mxGeometry relative="1" as="geometry"><Array as="points"><mxPoint x="900" y="132"/><mxPoint x="900" y="132"/></Array></mxGeometry></mxCell><mxCell id="ZWSjEQNFcy7tGaE6YxXL-7" value="" style="shape=image;verticalLabelPosition=bottom;verticalAlign=top;imageAspect=0;aspect=fixed;image=data:image/svg+xml,PHN2ZyB4bWxucz0iaHR0cDovL3d3dy53My5vcmcvMjAwMC9zdmciIHByZXNlcnZlQXNwZWN0UmF0aW89InhNaWRZTWlkIiB2aWV3Qm94PSIwIDAgMjU2IDI3MC43Njk5ODkwMTM2NzE5IiBoZWlnaHQ9Ijc5OS4zMjEwMDA3NzgzNjcyIiB3aWR0aD0iNzU1LjcxOTU1NzE5NTU3MiI+PHBhdGggZmlsbD0iI0Y2MCIgZD0iTTI0NS40NCAxMDguMzA4aC04NS4wOWE3LjczOCA3LjczOCAwIDAgMS03LjczNS03LjczNHYtODguNjhDMTUyLjYxNSA1LjMyNyAxNDcuMjkgMCAxNDAuNzI2IDBoLTMwLjM3NWMtNi41NjggMC0xMS44OSA1LjMyNy0xMS44OSAxMS44OTR2ODguMTQzYzAgNC41NzMtMy42OTcgOC4yOS04LjI3IDguMzFsLTI3Ljg4NS4xMzNjLTQuNjEyLjAyNS04LjM1OS0zLjcxNy04LjM1LTguMzI1bC4xNzMtODguMjQxQzU0LjE0NCA1LjMzNyA0OC44MTcgMCA0Mi4yNCAwSDExLjg5QzUuMzIxIDAgMCA1LjMyNyAwIDExLjg5NFYyNjAuMjFjMCA1LjgzNCA0LjcyNiAxMC41NiAxMC41NTUgMTAuNTZIMjQ1LjQ0YzUuODM0IDAgMTAuNTYtNC43MjYgMTAuNTYtMTAuNTZWMTE4Ljg2OGMwLTUuODM0LTQuNzI2LTEwLjU2LTEwLjU2LTEwLjU2em0tMzkuOTAyIDkzLjIzM2MwIDcuNjQ1LTYuMTk4IDEzLjg0NC0xMy44NDMgMTMuODQ0SDE2Ny42OWMtNy42NDYgMC0xMy44NDQtNi4xOTktMTMuODQ0LTEzLjg0NHYtMjQuMDA1YzAtNy42NDYgNi4xOTgtMTMuODQ0IDEzLjg0NC0xMy44NDRoMjQuMDA1YzcuNjQ1IDAgMTMuODQzIDYuMTk4IDEzLjg0MyAxMy44NDR2MjQuMDA1eiIvPjwvc3ZnPg==" parent="1" vertex="1"><mxGeometry x="1110" y="106" width="113.54" height="120" as="geometry"/></mxCell><mxCell id="ZWSjEQNFcy7tGaE6YxXL-8" value="" style="shape=image;html=1;verticalAlign=top;verticalLabelPosition=bottom;labelBackgroundColor=#ffffff;imageAspect=0;aspect=fixed;image=https://cdn1.iconfinder.com/data/icons/CrystalClear/128x128/mimetypes/pdf.png" parent="1" vertex="1"><mxGeometry x="160" y="172" width="128" height="128" as="geometry"/></mxCell><mxCell id="SG6Wk0yrXJ__dqq80Dwp-5" style="edgeStyle=orthogonalEdgeStyle;rounded=0;orthogonalLoop=1;jettySize=auto;html=1;entryX=0.011;entryY=0.647;entryDx=0;entryDy=0;entryPerimeter=0;" parent="1" source="ZWSjEQNFcy7tGaE6YxXL-5" target="ZWSjEQNFcy7tGaE6YxXL-6" edge="1"><mxGeometry relative="1" as="geometry"/></mxCell><mxCell id="SG6Wk0yrXJ__dqq80Dwp-37" style="edgeStyle=orthogonalEdgeStyle;rounded=0;orthogonalLoop=1;jettySize=auto;html=1;" parent="1" source="SG6Wk0yrXJ__dqq80Dwp-7" target="ZWSjEQNFcy7tGaE6YxXL-5" edge="1"><mxGeometry relative="1" as="geometry"/></mxCell><mxCell id="SG6Wk0yrXJ__dqq80Dwp-7" value="" style="shape=image;html=1;verticalAlign=top;verticalLabelPosition=bottom;labelBackgroundColor=#ffffff;imageAspect=0;aspect=fixed;image=https://cdn1.iconfinder.com/data/icons/CrystalClear/128x128/mimetypes/pdf.png" parent="1" vertex="1"><mxGeometry x="340" y="432" width="128" height="128" as="geometry"/></mxCell><mxCell id="SG6Wk0yrXJ__dqq80Dwp-26" style="rounded=0;orthogonalLoop=1;jettySize=auto;html=1;entryX=0;entryY=0.25;entryDx=0;entryDy=0;" parent="1" source="SG6Wk0yrXJ__dqq80Dwp-8" target="ZWSjEQNFcy7tGaE6YxXL-1" edge="1"><mxGeometry relative="1" as="geometry"/></mxCell><mxCell id="SG6Wk0yrXJ__dqq80Dwp-34" style="rounded=0;orthogonalLoop=1;jettySize=auto;html=1;fillColor=#fa6800;strokeColor=#C73500;" parent="1" source="SG6Wk0yrXJ__dqq80Dwp-8" target="ZWSjEQNFcy7tGaE6YxXL-3" edge="1"><mxGeometry relative="1" as="geometry"/></mxCell><mxCell id="SG6Wk0yrXJ__dqq80Dwp-8" value="" style="outlineConnect=0;dashed=0;verticalLabelPosition=bottom;verticalAlign=top;align=center;html=1;shape=mxgraph.aws3.bucket_with_objects;fillColor=#E05243;gradientColor=none;" parent="1" vertex="1"><mxGeometry x="900" y="-78" width="120" height="130" as="geometry"/></mxCell><mxCell id="SG6Wk0yrXJ__dqq80Dwp-27" style="rounded=0;orthogonalLoop=1;jettySize=auto;html=1;entryX=0;entryY=0.75;entryDx=0;entryDy=0;" parent="1" source="SG6Wk0yrXJ__dqq80Dwp-9" target="ZWSjEQNFcy7tGaE6YxXL-1" edge="1"><mxGeometry relative="1" as="geometry"/></mxCell><mxCell id="SG6Wk0yrXJ__dqq80Dwp-33" style="rounded=0;orthogonalLoop=1;jettySize=auto;html=1;fillColor=#fa6800;strokeColor=#C73500;" parent="1" source="SG6Wk0yrXJ__dqq80Dwp-9" target="ZWSjEQNFcy7tGaE6YxXL-3" edge="1"><mxGeometry relative="1" as="geometry"/></mxCell><mxCell id="SG6Wk0yrXJ__dqq80Dwp-9" value="" style="outlineConnect=0;dashed=0;verticalLabelPosition=bottom;verticalAlign=top;align=center;html=1;shape=mxgraph.aws3.dynamo_db;fillColor=#2E73B8;gradientColor=none;" parent="1" vertex="1"><mxGeometry x="910" y="292" width="130" height="141" as="geometry"/></mxCell><mxCell id="SG6Wk0yrXJ__dqq80Dwp-12" style="edgeStyle=orthogonalEdgeStyle;rounded=0;orthogonalLoop=1;jettySize=auto;html=1;entryX=0.06;entryY=0.5;entryDx=0;entryDy=0;entryPerimeter=0;" parent="1" source="ZWSjEQNFcy7tGaE6YxXL-3" target="SG6Wk0yrXJ__dqq80Dwp-8" edge="1"><mxGeometry relative="1" as="geometry"><Array as="points"><mxPoint x="750" y="167"/><mxPoint x="750" y="-13"/></Array></mxGeometry></mxCell><mxCell id="SG6Wk0yrXJ__dqq80Dwp-13" value="" style="group" parent="1" vertex="1" connectable="0"><mxGeometry x="697" y="-48" width="130" height="110" as="geometry"/></mxCell><mxCell id="SG6Wk0yrXJ__dqq80Dwp-14" value="Photo" style="html=1;whiteSpace=wrap;strokeColor=none;fillColor=#0079D6;labelPosition=center;verticalLabelPosition=middle;verticalAlign=top;align=center;fontSize=12;outlineConnect=0;spacingTop=-6;fontColor=#FFFFFF;sketch=0;shape=mxgraph.sitemap.photo;" parent="SG6Wk0yrXJ__dqq80Dwp-13" vertex="1"><mxGeometry width="100" height="70" as="geometry"/></mxCell><mxCell id="SG6Wk0yrXJ__dqq80Dwp-15" value="Photo" style="html=1;whiteSpace=wrap;strokeColor=none;fillColor=#0079D6;labelPosition=center;verticalLabelPosition=middle;verticalAlign=top;align=center;fontSize=12;outlineConnect=0;spacingTop=-6;fontColor=#FFFFFF;sketch=0;shape=mxgraph.sitemap.photo;" parent="SG6Wk0yrXJ__dqq80Dwp-13" vertex="1"><mxGeometry x="10" y="20" width="100" height="70" as="geometry"/></mxCell><mxCell id="SG6Wk0yrXJ__dqq80Dwp-16" value="Photo" style="html=1;whiteSpace=wrap;strokeColor=none;fillColor=#0079D6;labelPosition=center;verticalLabelPosition=middle;verticalAlign=top;align=center;fontSize=12;outlineConnect=0;spacingTop=-6;fontColor=#FFFFFF;sketch=0;shape=mxgraph.sitemap.photo;" parent="SG6Wk0yrXJ__dqq80Dwp-13" vertex="1"><mxGeometry x="30" y="40" width="100" height="70" as="geometry"/></mxCell><mxCell id="SG6Wk0yrXJ__dqq80Dwp-30" style="edgeStyle=orthogonalEdgeStyle;rounded=0;orthogonalLoop=1;jettySize=auto;html=1;entryX=1;entryY=0.12;entryDx=0;entryDy=0;entryPerimeter=0;fillColor=#fa6800;strokeColor=#C73500;" parent="1" source="ZWSjEQNFcy7tGaE6YxXL-1" target="SG6Wk0yrXJ__dqq80Dwp-8" edge="1"><mxGeometry relative="1" as="geometry"><Array as="points"><mxPoint x="1514" y="-62"/></Array></mxGeometry></mxCell><mxCell id="SG6Wk0yrXJ__dqq80Dwp-31" style="edgeStyle=orthogonalEdgeStyle;rounded=0;orthogonalLoop=1;jettySize=auto;html=1;entryX=1;entryY=0.78;entryDx=0;entryDy=0;entryPerimeter=0;fillColor=#fa6800;strokeColor=#C73500;" parent="1" source="ZWSjEQNFcy7tGaE6YxXL-1" target="SG6Wk0yrXJ__dqq80Dwp-9" edge="1"><mxGeometry relative="1" as="geometry"><Array as="points"><mxPoint x="1514" y="402"/></Array></mxGeometry></mxCell><mxCell id="SG6Wk0yrXJ__dqq80Dwp-38" value="" style="shape=image;html=1;verticalAlign=top;verticalLabelPosition=bottom;labelBackgroundColor=#ffffff;imageAspect=0;aspect=fixed;image=https://cdn1.iconfinder.com/data/icons/CrystalClear/128x128/mimetypes/pdf.png" parent="1" vertex="1"><mxGeometry x="1440" y="-118" width="128" height="128" as="geometry"/></mxCell><mxCell id="SG6Wk0yrXJ__dqq80Dwp-39" value="" style="group" parent="1" vertex="1" connectable="0"><mxGeometry x="1070" y="-28" width="130" height="110" as="geometry"/></mxCell><mxCell id="SG6Wk0yrXJ__dqq80Dwp-40" value="Photo" style="html=1;whiteSpace=wrap;strokeColor=none;fillColor=#0079D6;labelPosition=center;verticalLabelPosition=middle;verticalAlign=top;align=center;fontSize=12;outlineConnect=0;spacingTop=-6;fontColor=#FFFFFF;sketch=0;shape=mxgraph.sitemap.photo;" parent="SG6Wk0yrXJ__dqq80Dwp-39" vertex="1"><mxGeometry width="100" height="70" as="geometry"/></mxCell><mxCell id="SG6Wk0yrXJ__dqq80Dwp-41" value="Photo" style="html=1;whiteSpace=wrap;strokeColor=none;fillColor=#0079D6;labelPosition=center;verticalLabelPosition=middle;verticalAlign=top;align=center;fontSize=12;outlineConnect=0;spacingTop=-6;fontColor=#FFFFFF;sketch=0;shape=mxgraph.sitemap.photo;" parent="SG6Wk0yrXJ__dqq80Dwp-39" vertex="1"><mxGeometry x="10" y="20" width="100" height="70" as="geometry"/></mxCell><mxCell id="SG6Wk0yrXJ__dqq80Dwp-42" value="Photo" style="html=1;whiteSpace=wrap;strokeColor=none;fillColor=#0079D6;labelPosition=center;verticalLabelPosition=middle;verticalAlign=top;align=center;fontSize=12;outlineConnect=0;spacingTop=-6;fontColor=#FFFFFF;sketch=0;shape=mxgraph.sitemap.photo;" parent="SG6Wk0yrXJ__dqq80Dwp-39" vertex="1"><mxGeometry x="30" y="40" width="100" height="70" as="geometry"/></mxCell><mxCell id="SG6Wk0yrXJ__dqq80Dwp-43" value="" style="sketch=0;points=[[0,0,0],[0.25,0,0],[0.5,0,0],[0.75,0,0],[1,0,0],[0,1,0],[0.25,1,0],[0.5,1,0],[0.75,1,0],[1,1,0],[0,0.25,0],[0,0.5,0],[0,0.75,0],[1,0.25,0],[1,0.5,0],[1,0.75,0]];outlineConnect=0;fontColor=#232F3E;fillColor=#8C4FFF;strokeColor=#ffffff;dashed=0;verticalLabelPosition=bottom;verticalAlign=top;align=center;html=1;fontSize=12;fontStyle=0;aspect=fixed;shape=mxgraph.aws4.resourceIcon;resIcon=mxgraph.aws4.data_exchange;" parent="1" vertex="1"><mxGeometry x="710" y="323.5" width="78" height="78" as="geometry"/></mxCell><mxCell id="SG6Wk0yrXJ__dqq80Dwp-44" value="" style="sketch=0;points=[[0,0,0],[0.25,0,0],[0.5,0,0],[0.75,0,0],[1,0,0],[0,1,0],[0.25,1,0],[0.5,1,0],[0.75,1,0],[1,1,0],[0,0.25,0],[0,0.5,0],[0,0.75,0],[1,0.25,0],[1,0.5,0],[1,0.75,0]];outlineConnect=0;fontColor=#232F3E;fillColor=#8C4FFF;strokeColor=#ffffff;dashed=0;verticalLabelPosition=bottom;verticalAlign=top;align=center;html=1;fontSize=12;fontStyle=0;aspect=fixed;shape=mxgraph.aws4.resourceIcon;resIcon=mxgraph.aws4.data_exchange;" parent="1" vertex="1"><mxGeometry x="1465" y="366" width="78" height="78" as="geometry"/></mxCell><mxCell id="SG6Wk0yrXJ__dqq80Dwp-46" value="" style="dashed=0;html=1;shape=mxgraph.aws3.instance;fillColor=#F58536;gradientColor=none;dashed=0;" parent="1" vertex="1"><mxGeometry x="-380" y="-210" width="40" height="41" as="geometry"/></mxCell><mxCell id="_DTNcQezLGT050prXagQ-1" value="" style="shape=image;html=1;verticalAlign=top;verticalLabelPosition=bottom;labelBackgroundColor=#ffffff;imageAspect=0;aspect=fixed;image=https://cdn1.iconfinder.com/data/icons/CrystalClear/128x128/mimetypes/pdf.png" parent="1" vertex="1"><mxGeometry x="-140" y="1000" width="128" height="128" as="geometry"/></mxCell><mxCell id="_DTNcQezLGT050prXagQ-2" value="" style="verticalLabelPosition=bottom;html=1;verticalAlign=top;align=center;strokeColor=none;fillColor=#00BEF2;shape=mxgraph.azure.cloud;" parent="1" vertex="1"><mxGeometry x="-166" y="1160" width="180" height="102" as="geometry"/></mxCell><mxCell id="_DTNcQezLGT050prXagQ-3" value="" style="sketch=0;points=[[0,0,0],[0.25,0,0],[0.5,0,0],[0.75,0,0],[1,0,0],[0,1,0],[0.25,1,0],[0.5,1,0],[0.75,1,0],[1,1,0],[0,0.25,0],[0,0.5,0],[0,0.75,0],[1,0.25,0],[1,0.5,0],[1,0.75,0]];outlineConnect=0;fontColor=#232F3E;fillColor=#8C4FFF;strokeColor=#ffffff;dashed=0;verticalLabelPosition=bottom;verticalAlign=top;align=center;html=1;fontSize=12;fontStyle=0;aspect=fixed;shape=mxgraph.aws4.resourceIcon;resIcon=mxgraph.aws4.data_exchange;" parent="1" vertex="1"><mxGeometry x="-108" y="1310" width="78" height="78" as="geometry"/></mxCell><mxCell id="_DTNcQezLGT050prXagQ-4" value="" style="outlineConnect=0;dashed=0;verticalLabelPosition=bottom;verticalAlign=top;align=center;html=1;shape=mxgraph.aws3.dynamo_db;fillColor=#2E73B8;gradientColor=none;" parent="1" vertex="1"><mxGeometry x="-142" y="1440" width="130" height="141" as="geometry"/></mxCell><mxCell id="_DTNcQezLGT050prXagQ-5" value="" style="shape=image;verticalLabelPosition=bottom;verticalAlign=top;imageAspect=0;aspect=fixed;image=data:image/svg+xml,PHN2ZyB4bWxucz0iaHR0cDovL3d3dy53My5vcmcvMjAwMC9zdmciIHByZXNlcnZlQXNwZWN0UmF0aW89InhNaWRZTWlkIiB2aWV3Qm94PSIwIDAgMjU2IDI3MC43Njk5ODkwMTM2NzE5IiBoZWlnaHQ9Ijc5OS4zMjEwMDA3NzgzNjcyIiB3aWR0aD0iNzU1LjcxOTU1NzE5NTU3MiI+PHBhdGggZmlsbD0iI0Y2MCIgZD0iTTI0NS40NCAxMDguMzA4aC04NS4wOWE3LjczOCA3LjczOCAwIDAgMS03LjczNS03LjczNHYtODguNjhDMTUyLjYxNSA1LjMyNyAxNDcuMjkgMCAxNDAuNzI2IDBoLTMwLjM3NWMtNi41NjggMC0xMS44OSA1LjMyNy0xMS44OSAxMS44OTR2ODguMTQzYzAgNC41NzMtMy42OTcgOC4yOS04LjI3IDguMzFsLTI3Ljg4NS4xMzNjLTQuNjEyLjAyNS04LjM1OS0zLjcxNy04LjM1LTguMzI1bC4xNzMtODguMjQxQzU0LjE0NCA1LjMzNyA0OC44MTcgMCA0Mi4yNCAwSDExLjg5QzUuMzIxIDAgMCA1LjMyNyAwIDExLjg5NFYyNjAuMjFjMCA1LjgzNCA0LjcyNiAxMC41NiAxMC41NTUgMTAuNTZIMjQ1LjQ0YzUuODM0IDAgMTAuNTYtNC43MjYgMTAuNTYtMTAuNTZWMTE4Ljg2OGMwLTUuODM0LTQuNzI2LTEwLjU2LTEwLjU2LTEwLjU2em0tMzkuOTAyIDkzLjIzM2MwIDcuNjQ1LTYuMTk4IDEzLjg0NC0xMy44NDMgMTMuODQ0SDE2Ny42OWMtNy42NDYgMC0xMy44NDQtNi4xOTktMTMuODQ0LTEzLjg0NHYtMjQuMDA1YzAtNy42NDYgNi4xOTgtMTMuODQ0IDEzLjg0NC0xMy44NDRoMjQuMDA1YzcuNjQ1IDAgMTMuODQzIDYuMTk4IDEzLjg0MyAxMy44NDR2MjQuMDA1eiIvPjwvc3ZnPg==" parent="1" vertex="1"><mxGeometry x="-125.53999999999996" y="1634" width="113.54" height="120" as="geometry"/></mxCell><mxCell id="_DTNcQezLGT050prXagQ-6" value="" style="dashed=0;outlineConnect=0;html=1;align=center;labelPosition=center;verticalLabelPosition=bottom;verticalAlign=top;shape=mxgraph.webicons.java;gradientColor=#DFDEDE" parent="1" vertex="1"><mxGeometry x="-771" y="1040" width="130" height="130" as="geometry"/></mxCell><mxCell id="_DTNcQezLGT050prXagQ-7" value="" style="outlineConnect=0;dashed=0;verticalLabelPosition=bottom;verticalAlign=top;align=center;html=1;shape=mxgraph.aws3.android;fillColor=#205E00;gradientColor=none;" parent="1" vertex="1"><mxGeometry x="-771" y="1210" width="126" height="130" as="geometry"/></mxCell><mxCell id="_DTNcQezLGT050prXagQ-8" value="" style="shape=image;html=1;verticalAlign=top;verticalLabelPosition=bottom;labelBackgroundColor=#ffffff;imageAspect=0;aspect=fixed;image=https://cdn0.iconfinder.com/data/icons/long-shadow-web-icons/512/python-128.png" parent="1" vertex="1"><mxGeometry x="-770" y="871" width="128" height="128" as="geometry"/></mxCell><mxCell id="_DTNcQezLGT050prXagQ-9" value="" style="outlineConnect=0;dashed=0;verticalLabelPosition=bottom;verticalAlign=top;align=center;html=1;shape=mxgraph.aws3.bucket_with_objects;fillColor=#E05243;gradientColor=none;" parent="1" vertex="1"><mxGeometry x="-125.53999999999996" y="1800" width="120" height="130" as="geometry"/></mxCell><mxCell id="_DTNcQezLGT050prXagQ-10" value="Photo" style="html=1;whiteSpace=wrap;strokeColor=none;fillColor=#0079D6;labelPosition=center;verticalLabelPosition=middle;verticalAlign=top;align=center;fontSize=12;outlineConnect=0;spacingTop=-6;fontColor=#FFFFFF;sketch=0;shape=mxgraph.sitemap.photo;" parent="1" vertex="1"><mxGeometry x="-150" y="860" width="100" height="70" as="geometry"/></mxCell><mxCell id="_DTNcQezLGT050prXagQ-11" value="Photo" style="html=1;whiteSpace=wrap;strokeColor=none;fillColor=#0079D6;labelPosition=center;verticalLabelPosition=middle;verticalAlign=top;align=center;fontSize=12;outlineConnect=0;spacingTop=-6;fontColor=#FFFFFF;sketch=0;shape=mxgraph.sitemap.photo;" parent="1" vertex="1"><mxGeometry x="-140" y="880" width="100" height="70" as="geometry"/></mxCell><mxCell id="_DTNcQezLGT050prXagQ-12" value="Photo" style="html=1;whiteSpace=wrap;strokeColor=none;fillColor=#0079D6;labelPosition=center;verticalLabelPosition=middle;verticalAlign=top;align=center;fontSize=12;outlineConnect=0;spacingTop=-6;fontColor=#FFFFFF;sketch=0;shape=mxgraph.sitemap.photo;" parent="1" vertex="1"><mxGeometry x="-120" y="900" width="100" height="70" as="geometry"/></mxCell><mxCell id="_DTNcQezLGT050prXagQ-13" value="&lt;font style=&quot;font-size: 34px;&quot;&gt;Images&lt;/font&gt;" style="text;html=1;strokeColor=none;fillColor=none;align=left;verticalAlign=middle;whiteSpace=wrap;rounded=0;" parent="1" vertex="1"><mxGeometry x="60" y="900" width="160" height="30" as="geometry"/></mxCell><mxCell id="_DTNcQezLGT050prXagQ-14" value="&lt;font style=&quot;font-size: 34px;&quot;&gt;PDF File(Manga)&lt;/font&gt;" style="text;html=1;strokeColor=none;fillColor=none;align=left;verticalAlign=middle;whiteSpace=wrap;rounded=0;" parent="1" vertex="1"><mxGeometry x="60" y="1040" width="290" height="30" as="geometry"/></mxCell><mxCell id="_DTNcQezLGT050prXagQ-15" value="&lt;font style=&quot;font-size: 34px;&quot;&gt;Web app&lt;/font&gt;" style="text;html=1;strokeColor=none;fillColor=none;align=left;verticalAlign=middle;whiteSpace=wrap;rounded=0;" parent="1" vertex="1"><mxGeometry x="60" y="1190" width="290" height="30" as="geometry"/></mxCell><mxCell id="_DTNcQezLGT050prXagQ-16" value="&lt;font style=&quot;font-size: 34px;&quot;&gt;Data&lt;/font&gt;" style="text;html=1;strokeColor=none;fillColor=none;align=left;verticalAlign=middle;whiteSpace=wrap;rounded=0;" parent="1" vertex="1"><mxGeometry x="60" y="1334" width="290" height="30" as="geometry"/></mxCell><mxCell id="_DTNcQezLGT050prXagQ-17" value="&lt;font style=&quot;font-size: 34px;&quot;&gt;Database&lt;/font&gt;" style="text;html=1;strokeColor=none;fillColor=none;align=left;verticalAlign=middle;whiteSpace=wrap;rounded=0;" parent="1" vertex="1"><mxGeometry x="60" y="1490" width="290" height="30" as="geometry"/></mxCell><mxCell id="_DTNcQezLGT050prXagQ-19" value="&lt;font style=&quot;font-size: 34px;&quot;&gt;RebbitMQ(broker of messages)&lt;/font&gt;" style="text;html=1;strokeColor=none;fillColor=none;align=left;verticalAlign=middle;whiteSpace=wrap;rounded=0;fontStyle=1" parent="1" vertex="1"><mxGeometry x="60" y="1690" width="530" height="30" as="geometry"/></mxCell><mxCell id="_DTNcQezLGT050prXagQ-20" value="&lt;font style=&quot;font-size: 34px;&quot;&gt;S3Bucket(storage for files)&lt;/font&gt;" style="text;html=1;strokeColor=none;fillColor=none;align=left;verticalAlign=middle;whiteSpace=wrap;rounded=0;fontStyle=1" parent="1" vertex="1"><mxGeometry x="60" y="1860" width="550" height="30" as="geometry"/></mxCell><mxCell id="_DTNcQezLGT050prXagQ-21" value="&lt;font style=&quot;font-size: 34px;&quot;&gt;Python-service&lt;/font&gt;" style="text;html=1;strokeColor=none;fillColor=none;align=left;verticalAlign=middle;whiteSpace=wrap;rounded=0;" parent="1" vertex="1"><mxGeometry x="-573" y="920" width="243" height="30" as="geometry"/></mxCell><mxCell id="_DTNcQezLGT050prXagQ-22" value="&lt;span style=&quot;font-size: 34px;&quot;&gt;Java-service&lt;/span&gt;" style="text;html=1;strokeColor=none;fillColor=none;align=left;verticalAlign=middle;whiteSpace=wrap;rounded=0;" parent="1" vertex="1"><mxGeometry x="-573" y="1090" width="243" height="30" as="geometry"/></mxCell><mxCell id="_DTNcQezLGT050prXagQ-23" value="&lt;span style=&quot;font-size: 34px;&quot;&gt;JS-validator&lt;/span&gt;" style="text;html=1;strokeColor=none;fillColor=none;align=left;verticalAlign=middle;whiteSpace=wrap;rounded=0;" parent="1" vertex="1"><mxGeometry x="-573" y="1260" width="243" height="30" as="geometry"/></mxCell></root></mxGraphModel></diagram></mxfile>